<svg id="Layer_1" data-name="Layer 1" xmlns="http://www.w3.org/2000/svg" xmlns:xlink="http://www.w3.org/1999/xlink" viewBox="0 0 556.79 455.87" width="406" height="306" class="illustration styles_illustrationTablet__1DWOa"><defs><linearGradient id="linear-gradient" x1="599.92" y1="222.73" x2="402.94" y2="403.53" gradientTransform="translate(-5.83 -165.42) rotate(17.7)" gradientUnits="userSpaceOnUse"><stop offset="0" stop-color="#e4c5d5"></stop><stop offset="0.42" stop-color="#e9d3cf"></stop><stop offset="1" stop-color="#efe8ca"></stop></linearGradient><linearGradient id="linear-gradient-2" x1="449.78" y1="244.38" x2="783.08" y2="155.42" gradientTransform="translate(-5.83 -165.42) rotate(17.7)" gradientUnits="userSpaceOnUse"><stop offset="0" stop-color="#010101" stop-opacity="0"></stop><stop offset="0.95" stop-color="#010101"></stop></linearGradient><linearGradient id="linear-gradient-3" x1="338.33" y1="153.29" x2="369.89" y2="153.29" gradientTransform="matrix(1, -0.05, 0.05, 1, 12.58, 26.06)" gradientUnits="userSpaceOnUse"><stop offset="0" stop-color="#fff" stop-opacity="0"></stop><stop offset="0.95" stop-color="#fff"></stop></linearGradient><linearGradient id="linear-gradient-4" x1="343.74" y1="131.13" x2="362.83" y2="195.4" xlink:href="#linear-gradient-3"></linearGradient><linearGradient id="linear-gradient-5" x1="441.17" y1="302.95" x2="-116.83" y2="656.47" gradientTransform="translate(-5.83 -165.42) rotate(17.7)" xlink:href="#linear-gradient-3"></linearGradient><linearGradient id="linear-gradient-6" x1="302.31" y1="174.34" x2="290.67" y2="749.44" xlink:href="#linear-gradient-2"></linearGradient><linearGradient id="linear-gradient-7" x1="430.07" y1="176.92" x2="418.43" y2="752.03" xlink:href="#linear-gradient-2"></linearGradient><linearGradient id="linear-gradient-8" x1="430" y1="176.92" x2="418.35" y2="752.03" xlink:href="#linear-gradient-2"></linearGradient><linearGradient id="linear-gradient-9" x1="371.29" y1="175.73" x2="359.64" y2="750.84" xlink:href="#linear-gradient-2"></linearGradient><linearGradient id="linear-gradient-10" x1="336.32" y1="175.02" x2="324.68" y2="750.13" xlink:href="#linear-gradient-2"></linearGradient><linearGradient id="linear-gradient-11" x1="294.97" y1="174.19" x2="283.33" y2="749.29" xlink:href="#linear-gradient-2"></linearGradient><linearGradient id="linear-gradient-12" x1="412.41" y1="176.56" x2="400.77" y2="751.67" xlink:href="#linear-gradient-2"></linearGradient><linearGradient id="linear-gradient-13" x1="343.79" y1="175.18" x2="332.15" y2="750.28" xlink:href="#linear-gradient-2"></linearGradient><linearGradient id="linear-gradient-14" x1="348.73" y1="175.28" x2="337.09" y2="750.38" xlink:href="#linear-gradient-2"></linearGradient><linearGradient id="linear-gradient-15" x1="340.16" y1="175.1" x2="328.52" y2="750.21" xlink:href="#linear-gradient-2"></linearGradient><linearGradient id="linear-gradient-16" x1="306.65" y1="174.42" x2="295.01" y2="749.53" xlink:href="#linear-gradient-2"></linearGradient><linearGradient id="linear-gradient-17" x1="392.76" y1="176.17" x2="381.12" y2="751.27" xlink:href="#linear-gradient-2"></linearGradient><linearGradient id="linear-gradient-18" x1="405.84" y1="176.43" x2="394.19" y2="751.54" xlink:href="#linear-gradient-2"></linearGradient><linearGradient id="linear-gradient-19" x1="332.76" y1="174.95" x2="321.12" y2="750.06" xlink:href="#linear-gradient-2"></linearGradient><linearGradient id="linear-gradient-20" x1="298.75" y1="174.26" x2="287.11" y2="749.37" xlink:href="#linear-gradient-2"></linearGradient><linearGradient id="linear-gradient-21" x1="322.22" y1="174.74" x2="310.57" y2="749.85" xlink:href="#linear-gradient-2"></linearGradient><linearGradient id="linear-gradient-22" x1="301.19" y1="174.31" x2="289.55" y2="749.42" xlink:href="#linear-gradient-2"></linearGradient><linearGradient id="linear-gradient-23" x1="323.91" y1="174.77" x2="312.27" y2="749.88" xlink:href="#linear-gradient-2"></linearGradient><linearGradient id="linear-gradient-24" x1="317.66" y1="174.65" x2="306.02" y2="749.75" xlink:href="#linear-gradient-2"></linearGradient><linearGradient id="linear-gradient-25" x1="334.46" y1="174.99" x2="322.81" y2="750.09" xlink:href="#linear-gradient-2"></linearGradient><linearGradient id="linear-gradient-26" x1="453.77" y1="177.4" x2="442.13" y2="752.51" xlink:href="#linear-gradient-2"></linearGradient><linearGradient id="linear-gradient-27" x1="315.51" y1="174.6" x2="303.87" y2="749.71" xlink:href="#linear-gradient-2"></linearGradient><linearGradient id="linear-gradient-28" x1="410.88" y1="176.53" x2="399.24" y2="751.64" xlink:href="#linear-gradient-2"></linearGradient><linearGradient id="linear-gradient-29" x1="343.51" y1="175.17" x2="331.87" y2="750.28" xlink:href="#linear-gradient-2"></linearGradient><linearGradient id="linear-gradient-30" x1="431.01" y1="176.94" x2="419.37" y2="752.05" xlink:href="#linear-gradient-2"></linearGradient><linearGradient id="linear-gradient-31" x1="296.96" y1="174.23" x2="285.32" y2="749.34" xlink:href="#linear-gradient-2"></linearGradient><linearGradient id="linear-gradient-32" x1="323.12" y1="174.76" x2="311.48" y2="749.86" xlink:href="#linear-gradient-2"></linearGradient><linearGradient id="linear-gradient-33" x1="452.87" y1="177.38" x2="441.23" y2="752.49" xlink:href="#linear-gradient-2"></linearGradient><linearGradient id="linear-gradient-34" x1="269.52" y1="252.11" x2="320" y2="252.11" xlink:href="#linear-gradient-2"></linearGradient><linearGradient id="linear-gradient-35" x1="327.28" y1="344.9" x2="440.5" y2="699.57" xlink:href="#linear-gradient-2"></linearGradient><linearGradient id="linear-gradient-36" x1="394.73" y1="168.78" x2="219.91" y2="396.75" xlink:href="#linear-gradient-2"></linearGradient><linearGradient id="linear-gradient-37" x1="394.91" y1="175.2" x2="227.05" y2="394.08" xlink:href="#linear-gradient-2"></linearGradient><linearGradient id="linear-gradient-38" x1="406.59" y1="163.56" x2="429.31" y2="221.32" xlink:href="#linear-gradient-2"></linearGradient><linearGradient id="linear-gradient-39" x1="492.26" y1="227.59" x2="670.1" y2="227.59" xlink:href="#linear-gradient"></linearGradient><linearGradient id="linear-gradient-40" x1="515.61" y1="248.37" x2="599.76" y2="248.37" gradientTransform="translate(3.85 -224.57) rotate(23.94)" xlink:href="#linear-gradient"></linearGradient><linearGradient id="linear-gradient-41" x1="536.4" y1="264.72" x2="612.95" y2="264.72" gradientTransform="translate(3.85 -224.57) rotate(23.94)" xlink:href="#linear-gradient"></linearGradient><linearGradient id="linear-gradient-42" x1="550.84" y1="281.48" x2="627.39" y2="281.48" gradientTransform="translate(3.85 -224.57) rotate(23.94)" xlink:href="#linear-gradient"></linearGradient><linearGradient id="linear-gradient-43" x1="571.06" y1="295.71" x2="641.53" y2="295.71" gradientTransform="translate(3.85 -224.57) rotate(23.94)" xlink:href="#linear-gradient"></linearGradient></defs><title>Global Warming 3</title><path d="M482.46,77c-20.73-18.56-45.8-31.6-71.4-42.52C377.89,20.29,341.61,9.23,306.11,15.59c-54.58,9.78-95.68,58.33-150,69.73C131,90.6,104.08,87.6,80.27,97.25c-30.86,12.52-50.1,43.93-60.17,75.68-26.79,84.5,1.18,183.71,68.16,241.78s169.16,71.67,249,33.16c13.65-6.58,28-14.77,42.94-12.33,14.31,2.34,25.53,14,39.6,17.52,23.86,6,47.4-13.65,57.55-36.06s11.53-47.74,19-71.18a143,143,0,0,1,32-54.46c11.09-11.78,24.33-21.85,32.68-35.71,17-28.22-7.86-63.43-19.48-90C527.24,133,509.34,101,482.46,77Z" transform="translate(-10.03 -13.75)" fill="#68e1fd" opacity="0.24" style="isolation: isolate;"></path><path d="M520.17,284c1.06-.78-10.23-19.83-9.87-21.1.45-1.62-.49-3.27-1.39-4.69l-28.05-44.35c-2.84-4.49-5.71-9-9.49-12.76a35.75,35.75,0,0,0-32.54-9.25c-4.92,1.12-9.73,3.44-12.9,7.37-7.17,8.9-3.67,21.87-.88,32.95,3.91,15.48,6.11,32.28,16.35,44.53,7.21,8.62,17.55,17.78,28.61,12.44C483.28,282.74,508.34,292.73,520.17,284Z" transform="translate(-10.03 -13.75)" fill="url(#linear-gradient)"></path><path d="M404.86,177.6h31.49a5.44,5.44,0,0,1,5.44,5.44V307.38a0,0,0,0,1,0,0H399.42a0,0,0,0,1,0,0V183A5.44,5.44,0,0,1,404.86,177.6Z" transform="translate(-72.04 175.88) rotate(-23.71)" fill="#68e1fd"></path><path d="M398.65,189.82c.63,4,2.73,7.53,4.8,11a24.34,24.34,0,0,0-16.24,3.87,4.82,4.82,0,0,0-1.77,1.76,3.92,3.92,0,0,0-.12,2.6c1,4.29,5.46,6.71,9.43,8.63l36,17.32a2.26,2.26,0,0,0,1.06.3,2,2,0,0,0,1.26-.78c2.2-2.47,2.82-6,2.42-9.29a35,35,0,0,0-3-9.39l-7.1-16.47c-2.24-5.19-4.57-10.52-8.57-14.52C410.1,178.12,396.56,176.67,398.65,189.82Z" transform="translate(-10.03 -13.75)" fill="url(#linear-gradient-2)"></path><path d="M364.66,180.43a17.94,17.94,0,0,1-8.6-12.15c-1-5.6.7-11.29,2.39-16.72a32.16,32.16,0,0,1,2.29,5.41,28.41,28.41,0,0,0-5.53-20.73,47.28,47.28,0,0,1,9.86,5.67,19,19,0,0,1,6.58,9.09,25.69,25.69,0,0,0-1.15-7.28c2.37,2.88,5.31,5.26,7.62,8.19s4,6.69,3.21,10.33a29.46,29.46,0,0,0,.28-11.83,48.56,48.56,0,0,0,6.48,11.71,28.06,28.06,0,0,1,2.9,4.23A11.3,11.3,0,0,1,389.88,178c-2.95,3.85-6.75,4-11.13,4.12C373.59,182.26,369.48,183.18,364.66,180.43Z" transform="translate(-10.03 -13.75)" fill="#68e1fd"></path><path d="M366,180.77a15.61,15.61,0,0,1-7.53-10.63c-.9-4.9.6-9.89,2.09-14.64a27.83,27.83,0,0,1,2,4.74,24.89,24.89,0,0,0-4.84-18.15,41.49,41.49,0,0,1,8.63,5,16.63,16.63,0,0,1,5.76,8,22.9,22.9,0,0,0-1-6.37c2.07,2.52,4.64,4.6,6.66,7.16s3.5,5.86,2.82,9a25.78,25.78,0,0,0,.24-10.35,42.75,42.75,0,0,0,5.68,10.24,25.11,25.11,0,0,1,2.54,3.71,9.89,9.89,0,0,1-1,10.23c-2.58,3.37-5.9,3.52-9.74,3.6C373.82,182.38,370.22,183.18,366,180.77Z" transform="translate(-10.03 -13.75)" fill="url(#linear-gradient-3)"></path><path d="M369.27,181.51a10,10,0,0,1-4.8-6.79c-.57-3.12.39-6.31,1.33-9.34a17.53,17.53,0,0,1,1.28,3A15.88,15.88,0,0,0,364,156.82,26.64,26.64,0,0,1,369.5,160a10.66,10.66,0,0,1,3.68,5.08,14.42,14.42,0,0,0-.65-4.07c1.33,1.61,3,2.94,4.26,4.58a7.19,7.19,0,0,1,1.79,5.77,16.36,16.36,0,0,0,.16-6.61,27.33,27.33,0,0,0,3.62,6.54,15.06,15.06,0,0,1,1.62,2.37,6.29,6.29,0,0,1-.62,6.52c-1.65,2.15-3.77,2.25-6.22,2.3C374.26,182.53,372,183.05,369.27,181.51Z" transform="translate(-10.03 -13.75)" fill="url(#linear-gradient-4)"></path><path d="M320.45,327.18A125.36,125.36,0,0,1,75.74,293.25,125.39,125.39,0,0,1,230.86,167.3c2.76.66,5.52,1.46,8.29,2.34a125.27,125.27,0,0,1,81.3,157.54Z" transform="translate(-10.03 -13.75)" fill="#68e1fd"></path><path d="M320.45,327.18A125.36,125.36,0,0,1,75.74,293.25,125.39,125.39,0,0,1,230.86,167.3c2.76.66,5.52,1.46,8.29,2.34a125.27,125.27,0,0,1,81.3,157.54Z" transform="translate(-10.03 -13.75)" fill="url(#linear-gradient-5)"></path><path d="M320.45,327.18a125.48,125.48,0,0,1-118.87,87.26c-2.76-.66-5.52-1.46-8.29-2.35A125.37,125.37,0,0,1,230.86,167.3c2.76.66,5.52,1.46,8.29,2.34a125.27,125.27,0,0,1,81.3,157.54Z" transform="translate(-10.03 -13.75)" fill="#68e1fd"></path><path d="M217.83,324.51c-3.38-3.71-7.37-6.56-12.73-6.62.71-4.05-1-5.58-5.08-4.63a3.89,3.89,0,0,1-2.16.05,48.72,48.72,0,0,1-4.36-2.22c1-.73,2-1.55,3.06-2.3,1.39-1,2.39-2,1.64-3.9a3.06,3.06,0,0,1-.09-1.32c.24-4.11-1.12-6.43-4.83-8.06-3.08-1.36-5.56-3.18-6-6.86a3.13,3.13,0,0,0-.63-1.42c-1.07-1.47-1.21-2.65.72-3.53.41-.19.63-.79.94-1.2-2.09-.1-4,.88-5.59.48a13.58,13.58,0,0,1-8.29-5.69c-1.16-1.8-2.41-1.85-3.58,0-.6.94-1.16,1.91-1.73,2.87l-.85-.48,2.85-5.27c-.45-.1-1.22-.51-1.5-.3-2.24,1.75-5.59.85-7.56,3.27-1,1.21-2,1-3.19-.1a6.64,6.64,0,0,0-4-1.52c-3,0-4.7-1.94-3.69-4.83.74-2.11,1.66-4.15,2.51-6.23a2.51,2.51,0,0,0-1.32-3.54c-1.18-.6-2.41-1.1-3.88-1.75.5-.82.87-1.52,1.34-2.16,1.22-1.68,2.54-3.31,3.73-5s.64-2.7-1.26-2.51a8.94,8.94,0,0,0-4.37,1.65c-1.78,1.38-3.45,2.34-5.7,1.55a4.74,4.74,0,0,1-3.29-4.85,11,11,0,0,1,1.39-5c1-1.78,2.74-3.14,3.9-4.85,2.28-3.36,5.78-4,9.35-4.38A3.83,3.83,0,0,1,156.4,235c1.51,1.55,2.82,1.9,4.64.45,1.45-1.14,7,1.26,7.35,3.11a5.41,5.41,0,0,1-.4,2.15,17.32,17.32,0,0,0-.91,3.44c0,.72.69,1.46,1.07,2.2.66-.36,1.67-.57,1.92-1.12a26.45,26.45,0,0,0,1.82-5.24c1.13-5,4.77-6.87,9.3-7.13a7.28,7.28,0,0,0,6.62-4.14c1.42-2.87,4.07-3.38,6.59-4.21s5.37-1.52,8-2.31a2.32,2.32,0,0,0,.86-.68c2.54-2.71,8.47-3.54,12.05-1.47l-3.71,1.3.15.61c3.13.64,5.95-1.17,9-1.4-1.16-1-3-1.53-3.38-2.57s.69-2.68,1.17-4.2l-2.11-1.49c1.2,0,1.75,0,2.29.07a76.69,76.69,0,0,0,8.18,1.17,16.12,16.12,0,0,0,6.28-1c2-.76,2-2.18.36-3.68a3.88,3.88,0,0,1-.7-1.07c-1.06-1.95-.63-3.77.26-5.69.4-.86.16-2,.22-3-1,0-2,0-3,.14a15.23,15.23,0,0,1-1.52.37,15.91,15.91,0,0,1-2.23-.36c.3-.64.63-1.26.89-1.91.32-.82,1-1.79.79-2.48-.51-1.69-6.15-4.22-7.55-3.27-1.93,1.31-4.11,2.82-5.1,4.78-1.41,2.79-3.38,3.88-6.18,4.45a10.71,10.71,0,0,0-3.69,1.86c-1,.71-1.68,2.78-3.13,1.65s.14-2.52.86-3.58.87-1.68-.2-2.44c-1.57-1.1-3.12-2.24-4.65-3.4-1.37-1-1.61-3.45-.42-4.36,3.78-2.87,8.33-3.39,12.79-4.19,1.18-.21,3.13-.3,3.34-.92.54-1.59,1.48-1.24,2.44-1.09a46.62,46.62,0,0,0,5.05.93,7.93,7.93,0,0,0,3.74-.8c.77-.38,1.19-1.47,1.76-2.24a24.28,24.28,0,0,0-3.3-.86c-.51-.06-1.07.46-1.63.67-.72.28-1.46.52-1.91.68l-1.35-5.15c-2.52-.53-4.18.88-5.79,2.51l.82-1.68-3.23,0c.1.75.21,1.51.34,2.45a3.8,3.8,0,0,1-1.72.19c-1.7-.6-3.34-1.37-5-2.12-.62-.28-1.2-.68-1.8-1,.06-.21.12-.41.17-.61a6,6,0,0,0,6.52.08c.45-1.69.76-2.9,1.12-4.24-3.13.56-6,.22-8.35-2.27a3.16,3.16,0,0,0-2.53-.54,68.63,68.63,0,0,0-6.89,1.85c-.38.12-.58.84-.86,1.28a4.89,4.89,0,0,0,1.5.36c1.18-.08,2.35-.31,3.27-.44.18,1,.28,1.58.37,2.13l-1.79.26c-.06.21-.11.42-.16.63l5.53,2.36c-1.29.37-2.38,1-3.3.86a9.8,9.8,0,0,1-3.23-1.8c-4.78-3.27-10-3.53-15.46-2.42a40.61,40.61,0,0,1-6.8.56c-4.45.13-8.94-.22-13.33.3-8.12,1-15.08,5.5-22.7,8-.12,0-.21.2-.35.34l.94.81a19.69,19.69,0,0,0-12.1,6.54,8.46,8.46,0,0,0,1.73-.49c5.71-1.64,11.38-3.5,17.17-4.77,1.8-.4,4,.69,5.9,1.32.44.15.59,1.2.93,2l-3.12-.12,2.3,1.62c-3.44,1.56-3.84,5.72-7.42,6.88-.43.13-.78,1-.83,1.58a1.4,1.4,0,0,0,1,1,3.06,3.06,0,0,0,1.67-.67,4.67,4.67,0,0,0,.84-1.2c.4.54.55,1.26.35,1.39a44.65,44.65,0,0,1-4.54,2.51c-.82.39-1.93.28-2.66.77-3.83,2.56-7.61,5.18-11.31,7.91a6.16,6.16,0,0,0-1.6,2.59c-.46,1.08-.61,2.28-1,3.37a4,4,0,0,0,0,4c.43.73,0,2.08-.26,3.08-.66,2.36-1.48,4.68-2.22,7a1.09,1.09,0,0,0,0,.44c.25,1.73.53,3.44.74,5.17a11.82,11.82,0,0,1-.06,1.78l1.33-.5c.12-.7.28-1.39.36-2.09.37-3,.64-6.06,1.13-9.07.11-.7.94-1.29,1.43-1.93.23.74.75,1.53.63,2.21a22.22,22.22,0,0,0,.44,10.9,7.31,7.31,0,0,1-.5,5.82,3.58,3.58,0,0,0-.24,2.87,56,56,0,0,0,5.8,7.61,6.87,6.87,0,0,0,4.17,1.71,4.47,4.47,0,0,1,3.66,2c1.68,2.3,2.62,5.26,5.63,6.45.33.13.33,1.06.49,1.62a58.14,58.14,0,0,0,2.25,7.55c.65,1.49,2.2,2.58,3.28,3.89.88,1.06,1.58,1.54,2.53,0a2.16,2.16,0,0,1,1.78-.76c.36.05.84,1.05.81,1.6-.25,4.68-.83,9.24-5,12.34-1.19.89-2.19,2-3.39,2.9a3,3,0,0,0-1.29,3.64,3,3,0,0,1-.59,2.42c-1.7,2-1.61,4-.88,6.28a22.59,22.59,0,0,1,1.42,5.6c.15,3,2.15,4.52,3.89,6.33l.58-.23c0-2-.08-4,.06-6,0-.64.69-1.23,1.06-1.84.31.58.86,1.15.87,1.74.08,2.75.11,5.52,0,8.27-.11,2-.13,4.14-.93,5.88a4,4,0,0,0,.35,4.43c2.81,4.42,4.68,9.05,1.84,14.25a4.32,4.32,0,0,0-.3,1.31c-1.15,7.06-2.45,14.1-3.35,21.19-.37,2.88.07,5.88.28,8.81.14,2,.59,3.91.75,5.87a1.87,1.87,0,0,1-.87,1.43c-1.43.69-.94,1.53-.52,2.57.59,1.43,1.55,3,1.35,4.39-.35,2.47.86,4.2,2,5.94a3.55,3.55,0,0,0,2.68,1.07c.43,0,.89-1.23,1.27-1.94a21.24,21.24,0,0,1,1.55-3.09,3.24,3.24,0,0,0,.61-3.26,6.12,6.12,0,0,1,.43-3.25c.6-1.89,2.71-3.33,1.36-5.88,2.8.7,3.23-1.42,4-2.94,1.93,0,4.3,1.78,5.22-.92.61-1.79.24-3.91.31-6a4.61,4.61,0,0,1,1.31.55c1.7,1.44,3.13,1.24,5,0a24.17,24.17,0,0,0,6.47-6.28c.77-1.15,2-2.27,2.14-3.52.41-2.84,2.11-4,4.6-4.34,1.88-.26,3.82-.15,5.71-.37a4.28,4.28,0,0,0,2.28-1,28.19,28.19,0,0,0,8.5-13.92,10.16,10.16,0,0,1,4.2-6.11c1.4-1,2.88-1.86,4.37-2.72C219.47,330.65,220.35,327.27,217.83,324.51Z" transform="translate(-10.03 -13.75)" fill="url(#linear-gradient-6)"></path><path d="M314.39,337.5a45.62,45.62,0,0,0,1.37-6.26,7,7,0,0,1,1.42-3.66,9.41,9.41,0,0,0,1.84-3.67q1.59-4.64,2.75-9.4a124.87,124.87,0,0,0,3.1-19.31,2.43,2.43,0,0,0-.72-1.66q-2.07-2.16-4.31-4.13a28.91,28.91,0,0,0-2.73-1.94l-1.71,3a28.37,28.37,0,0,1-2.87-1.95c-.46-.41-.59-1.17-.93-1.73a13.55,13.55,0,0,0-2.3-3.43c-2.09-1.74-3.49-3.58-3-6.48.27-1.76-.54-2.91-2.33-3.54s-3.64-1.71-5.5-2.46c-1.28-.53-2.69-1.27-4-1.17-3.2.27-5.92-.24-7.49-2.9a25.55,25.55,0,0,1-4.11,1.78,4.59,4.59,0,0,0-3.12,2.85,10,10,0,0,1-2.87,3.41c-3.24,2.37-6.71,4.44-9.94,6.82-2.1,1.55-2.8,3.81-2.69,6.49.06,1.64-.09,3.79-1.07,4.87a15.14,15.14,0,0,0-3.66,7.43,7.89,7.89,0,0,0,.27,3.47c.61,2.12,2,4.15,2.07,6.26.15,3.84,1.76,6.88,3.93,9.75a3.09,3.09,0,0,0,2.37,1.22,11.59,11.59,0,0,1,7.15,1.15,6.18,6.18,0,0,0,2.59.19c2.29-.07,4.58-.35,6.86-.26,1.48,0,2.33,1,2.42,2.69a2.21,2.21,0,0,0,1.28,1.58c1.24.31,2.17.56,1.81,2.15-.06.24.34.56.44.86.21.64.68,1.42.48,1.92a10.81,10.81,0,0,1-1.78,2.54c-1.57,1.93-2.19,3.83-1,6.35a6.38,6.38,0,0,1,.11,5.63,41.54,41.54,0,0,0-1.51,5.13,4.53,4.53,0,0,1-1.16,2.3c-7.16,5-8.05,13.25-10.89,20.49a1.14,1.14,0,0,0,0,.66c.65,2.45-.22,4.17-2.43,5.36-.35.19-.47.8-1,1.69,1.14-.11,1.82-.13,2.48-.25,1.32-.26,2.61-.67,3.93-.83a13.16,13.16,0,0,0,7.75-3.56,126.48,126.48,0,0,0,18.5-22c2.82-4.22,5-8.83,8-12.91A16,16,0,0,0,314.39,337.5Z" transform="translate(-10.03 -13.75)" fill="url(#linear-gradient-7)"></path><path d="M305,240.55c1.8.65,2.57,2.28,1.88,4.53-.51-.9-.9-1.61-1.3-2.31l-.76,0c0,1.2-.05,2.4-.07,3.66a6.13,6.13,0,0,0-2.22-.34c-3.08.71-6.1,1.78-9.31.52-.35-.14-1.21.13-1.3.4a2.22,2.22,0,0,0,.18,1.61c.49.91,1.5,1.68,1.64,2.61.17,1.19-.06,3.43-.54,3.55-2.08.52-1.71,2.06-1.85,3.44a8.81,8.81,0,0,0-2-.77c-4.23-.44-4.89-1.53-3.17-5.4,0-.07-.14-.22-.31-.48-.32.31-.78.56-.85.89-.65,2.82-1.26,5.66-1.77,8.51a2.15,2.15,0,0,0,.53,1.6,13.66,13.66,0,0,0,6.69,4.25,2.81,2.81,0,0,0,3.45-1.16,14.2,14.2,0,0,1,2.66-2.59,31.22,31.22,0,0,1,3.1-1.88c1.24.32,2.63,1.07,3.87.89,1.69-.25,2.24.38,2.81,1.72a42.51,42.51,0,0,0,2.38,4.46c.88,1.54,1.9,3,2.69,4.6a6.62,6.62,0,0,1,.15,2.29l-2.79-.76-.48.54c.61.72,1.47,2.14,1.78,2a37.18,37.18,0,0,0,4.77-2.38l-6.32-11.29.51-.28c5.21,5.55,7.63,12.58,10,19.76,2.35-1.44.52-3,.7-4.77l5,1.59c0-2.34.07-4.44-.14-6.52a105.14,105.14,0,0,0-6.82-29.05c-1.5-3.7-4.24-6.92-6.59-10.22-.87-1.22-2.27-2-3.9-1-1.24.78-2.42,1.4-4,.67-.31-.14-1.3.41-1.45.83C301.11,236.4,302.89,239.78,305,240.55Z" transform="translate(-10.03 -13.75)" fill="url(#linear-gradient-8)"></path><path d="M281.19,204.09a14.28,14.28,0,0,1-.71-1.66c3.52.37,4.37.1,4.87-2.08.43-1.88,1.1-1.63,2.2-.63a5.77,5.77,0,0,0,1.09.61l.2-.36a16.44,16.44,0,0,1-2-2.05c-3.92-5.89-9.36-9.87-15.6-13-2.57-1.27-4.85-3.11-7.34-4.55a15.2,15.2,0,0,0-4.24-1.75c-2.81-.6-5.69-.94-8.54-1.34-.53-.07-1.39-.08-1.56.2a1.7,1.7,0,0,0,.11,1.63,16.1,16.1,0,0,0,3.73,3.05c3.46,1.71,5.33,7.58,2.63,10.25-2.16,2.13-2.68,4.84-3.95,7.27-.92,1.78,1.26,6.75,3.2,7.32a4,4,0,0,0,2.54-.21,9.46,9.46,0,0,0,2.32-1.71,5.28,5.28,0,0,1,5.53-1.31,8.08,8.08,0,0,0,3.88,0,5.89,5.89,0,0,1,5,.8c2.07,1.38,4.55,3.09,7.72,1A16.67,16.67,0,0,1,281.19,204.09Z" transform="translate(-10.03 -13.75)" fill="url(#linear-gradient-9)"></path><path d="M226.08,180.54c2,.62,4.07,1,6.1,1.5a1.18,1.18,0,0,1,.75.43c1,2,1.9,4.06,3,6.44-1.73-.44-3-1.23-4-.91a6.56,6.56,0,0,1-4.51.22,6.09,6.09,0,0,0-2.07.09c0,.21-.07.42-.1.62.27.21.57.63.8.6,2.8-.4,3.31,1.57,4.11,3.56a3.82,3.82,0,0,0,4.4,2.39c-.24-.83-.43-1.5-.79-2.73l2.6,2.07,1.45-4.55A11.45,11.45,0,0,0,240,192a2.86,2.86,0,0,0,2.1.14c.32-.14.41-1.21.32-1.82-.16-1.09-.71-2.14-.8-3.23a7.07,7.07,0,0,0-3.9-5.54c-2.5-1.15-3.74-3.83-6.87-4.36-1.87-.31-3.44-.89-5.11.08a2.54,2.54,0,0,0-1.26,1.8C224.54,179.6,225.43,180.34,226.08,180.54Z" transform="translate(-10.03 -13.75)" fill="url(#linear-gradient-10)"></path><path d="M173.44,258.16a23.7,23.7,0,0,0-7.78-8,7.24,7.24,0,0,0-3.39-1A12.07,12.07,0,0,0,159,250l.3.94,1.7-.06c2-.05,5.6,2.39,5.93,4C167.55,257.8,170.35,259.32,173.44,258.16Z" transform="translate(-10.03 -13.75)" fill="url(#linear-gradient-11)"></path><path d="M293.49,237.06c.87.85,1.43,1.74-.21,2.61-.5.26-.6,1.37-.77,2.12a13.16,13.16,0,0,0-.1,2.05c1.28.55,2.74,1.27,4.27,1.8a2,2,0,0,0,1.49-.52,1.27,1.27,0,0,0,.18-1.17c-1.21-3.27-2.46-6.53-3.77-9.75a10.59,10.59,0,0,0-1.56-2C292.14,234.29,292.11,235.71,293.49,237.06Z" transform="translate(-10.03 -13.75)" fill="url(#linear-gradient-12)"></path><path d="M234,220.44c.25-.32,0-1.24-.28-1.76-.62-1.18-1.4-2.28-2.42-3.9a9.4,9.4,0,0,0-6.11,4.09c2.49.95,4.65,1.88,6.89,2.54C232.59,221.57,233.55,221,234,220.44Z" transform="translate(-10.03 -13.75)" fill="url(#linear-gradient-13)"></path><path d="M249.92,175.85c.09.18.54.2.83.26,1.68.34,3.35.73,5.05,1a23.29,23.29,0,0,0,2.9.1c-3-3-14.3-6.92-16.6-6.34.07.13.12.3.22.37C244.79,172.86,248.35,172.7,249.92,175.85Z" transform="translate(-10.03 -13.75)" fill="url(#linear-gradient-14)"></path><path d="M234.72,173l-.23.59c2,1.14,3.84,2.93,5.93,3.24,2.33.35,4.87-.65,7.32-1.06l0-.64q-3.21-1.45-6.42-2.88c-.19-.08-.52-.13-.64,0A5.19,5.19,0,0,1,234.72,173Z" transform="translate(-10.03 -13.75)" fill="url(#linear-gradient-15)"></path><path d="M174.19,263.15c1.74.47,3.47,1,5.25,1.36a1.65,1.65,0,0,0,1.3-1c.09-1.65-5.23-4.76-6-3.55-1.14,1.72-2.51,1-3.84,1.11-.12.24-.23.48-.35.71.69.34,1.36.72,2.07,1A14.4,14.4,0,0,0,174.19,263.15Z" transform="translate(-10.03 -13.75)" fill="url(#linear-gradient-16)"></path><path d="M284.55,214.5a7.26,7.26,0,0,0-2.87-1.6,5.75,5.75,0,0,0-2.22.31c.18.65.18,1.46.58,1.91a35.43,35.43,0,0,0,3.16,2.74l3.05-.59A12.61,12.61,0,0,0,284.55,214.5Z" transform="translate(-10.03 -13.75)" fill="url(#linear-gradient-17)"></path><path d="M290.76,239.34c1.45-4.4.71-5.61-3-4.85C286.88,239.47,286.88,239.47,290.76,239.34Z" transform="translate(-10.03 -13.75)" fill="url(#linear-gradient-18)"></path><path d="M238.1,177.21c-2.7-1.3-5.35-2.63-8.06-3.8-.44-.19-1.2.35-2.21.68C232.9,177.17,236.67,178.29,238.1,177.21Z" transform="translate(-10.03 -13.75)" fill="url(#linear-gradient-19)"></path><path d="M175.15,244.82c-.58-.37-1.2-1.06-1.75-1s-1.11.78-1.58,1.29a3.79,3.79,0,0,0-.7,1.2c-.3.82-.54,1.66-.8,2.49l.65,0c1-.71,2-1.35,2.92-2.15A8.82,8.82,0,0,0,175.15,244.82Z" transform="translate(-10.03 -13.75)" fill="url(#linear-gradient-20)"></path><path d="M214.94,187.68l5,1.27c.74-1.31.51-2.26-1-3.07S215.78,185.86,214.94,187.68Z" transform="translate(-10.03 -13.75)" fill="url(#linear-gradient-21)"></path><path d="M147.81,319.24c.82,2.22,1.63,4.43,2.55,6.94C152.63,323.55,151.92,322.13,147.81,319.24Z" transform="translate(-10.03 -13.75)" fill="url(#linear-gradient-22)"></path><path d="M191.74,273.82c-.2-1.19-.24-2.72-2.73-3,2.85,3.35.65,5.68-1,8.16C189.52,277.3,192.21,276.58,191.74,273.82Z" transform="translate(-10.03 -13.75)" fill="url(#linear-gradient-23)"></path><path d="M216.3,176.26a19.7,19.7,0,0,0,4.06-1.23c-.12-.36-.23-.72-.35-1.08l-5.65.51-.26.49C214.83,175.42,215.61,176.32,216.3,176.26Z" transform="translate(-10.03 -13.75)" fill="url(#linear-gradient-24)"></path><path d="M238.81,171.65c-1.27-2.3-3.42-3.1-4.59-2.19-.3.23-.13,1.71,0,1.73C235.53,171.42,236.9,171.49,238.81,171.65Z" transform="translate(-10.03 -13.75)" fill="url(#linear-gradient-25)"></path><path d="M324.74,287.1c1.32-3.74.68-6-1.74-6.32C323.56,282.83,324.11,284.84,324.74,287.1Z" transform="translate(-10.03 -13.75)" fill="url(#linear-gradient-26)"></path><path d="M184.14,267.06c.27.21,1.09-.24,1.66-.39L184.27,264l-2.13.75A15.13,15.13,0,0,0,184.14,267.06Z" transform="translate(-10.03 -13.75)" fill="url(#linear-gradient-27)"></path><path d="M290.06,255.06c-.39-.54-.73-1.47-1.18-1.51a2.59,2.59,0,0,0-1.92.87c-.2.25.35,1.14.73,2.24Z" transform="translate(-10.03 -13.75)" fill="url(#linear-gradient-28)"></path><path d="M196.65,310.35c.25.61.49,1.23.89,2.25,1-.56,1.81-.8,2.1-1.35.17-.32-.51-1.52-1-1.6C198.08,309.52,197.34,310.08,196.65,310.35Z" transform="translate(-10.03 -13.75)" fill="url(#linear-gradient-29)"></path><path d="M303.8,267.56a14.87,14.87,0,0,0,.8,2.77s.77-.21,1.63-.44l-1.4-3.05C304.47,267.09,303.77,267.38,303.8,267.56Z" transform="translate(-10.03 -13.75)" fill="url(#linear-gradient-30)"></path><path d="M164.52,260.13l2.58,1.69c.25-.39.49-.78.73-1.18a27.66,27.66,0,0,0-2.52-1.34C165.19,259.25,164.79,259.83,164.52,260.13Z" transform="translate(-10.03 -13.75)" fill="url(#linear-gradient-31)"></path><path d="M224.75,175.54c-1.51-1.46-2.75-1.28-3.84-.12.06.21.13.41.19.61Z" transform="translate(-10.03 -13.75)" fill="url(#linear-gradient-32)"></path><path d="M320.24,286.11l2.82,2.07.61-.81-2.79-2.11C320.67,285.55,320.46,285.83,320.24,286.11Z" transform="translate(-10.03 -13.75)" fill="url(#linear-gradient-33)"></path><path d="M222.28,171.93c-.43,5.53-11.37,9.19-24.44,8.17s-23.3-6.33-22.86-11.87c.14-1.82-1.16-14.42,1-15.73,4.33-2.68,14.71,6.88,23.46,7.56,8.16.64,17.51-8.62,21.55-5.63C223.39,156.23,222.44,169.86,222.28,171.93Z" transform="translate(-10.03 -13.75)" fill="#68e1fd"></path><path d="M222.28,171.93c-.43,5.53-11.37,9.19-24.44,8.17s-23.3-6.33-22.86-11.87c.14-1.82-1.16-14.42,1-15.73,4.33-2.68,14.71,6.88,23.46,7.56,8.16.64,17.51-8.62,21.55-5.63C223.39,156.23,222.44,169.86,222.28,171.93Z" transform="translate(-10.03 -13.75)" fill="url(#linear-gradient-34)"></path><path d="M320.45,327.18A125.36,125.36,0,0,1,75.74,293.25c5.08-1.61,10.61.33,15.64,2.28,39.26,15.16,80.07,29.4,122.17,28.53,41.28-.86,73.08-18.19,101.09-47.24a68.41,68.41,0,0,1,10-9A124.81,124.81,0,0,1,320.45,327.18Z" transform="translate(-10.03 -13.75)" fill="url(#linear-gradient-35)"></path><ellipse cx="198.57" cy="156.32" rx="10.05" ry="23.72" transform="translate(17.22 328.35) rotate(-85.53)" fill="#68e1fd"></ellipse><path d="M198.21,158.05a7.29,7.29,0,0,1-4.93-5.42c-.15-.68-3.45-16.65,6.65-30.47,7.65-10.47,20.5-16.64,38.19-18.34,33.1-3.19,47.95,24.35,58.79,44.47,5.66,10.52,11.52,21.39,17.63,23.34,6.56,2.09,12.77.13,16.63-5.25,4.83-6.73,6.27-20.29-5.56-36.35a7.35,7.35,0,1,1,11.84-8.72c16.49,22.38,13.74,42.39,5.67,53.65-7.53,10.49-20.5,14.68-33.05,10.68C298.31,181.88,291.34,169,284,155.26c-12.32-22.87-22.71-38.9-44.44-36.8-13.24,1.27-22.53,5.39-27.62,12.24-6.25,8.42-4.26,18.77-4.24,18.87a7.38,7.38,0,0,1-5.7,8.67A7.29,7.29,0,0,1,198.21,158.05Z" transform="translate(-10.03 -13.75)" fill="#68e1fd"></path><path d="M343.11,175c-7.52,10.48-20.5,14.69-33.05,10.69-11.76-3.76-18.7-16.7-26.09-30.39-12.33-22.88-22.73-38.91-44.46-36.8-13.25,1.28-22.52,5.39-27.6,12.25-6.26,8.43-4.26,18.75-4.25,18.85a7.68,7.68,0,0,1,.13,1.33,6.39,6.39,0,0,1-.22,2,7.35,7.35,0,0,1-5.61,5.31,7.37,7.37,0,0,1-8.68-5.61c0-.14-.15-.73-.3-1.73-.61-4.59-1.34-17.4,7-28.74,7.62-10.49,20.48-16.64,38.17-18.36,33.1-3.17,48,24.36,58.8,44.49,5.65,10.5,11.53,21.38,17.62,23.32,6.57,2.1,12.79.16,16.62-5.24a19.24,19.24,0,0,0,3.2-7.86c1.3-7.16-.42-16.89-8.3-27.84l-.43-.66a7.34,7.34,0,1,1,11.82-8.71c10,13.62,12.95,26.35,11.87,36.78l0,0A34.76,34.76,0,0,1,343.11,175Z" transform="translate(-10.03 -13.75)" fill="url(#linear-gradient-36)"></path><path d="M343.11,175c-7.52,10.48-20.5,14.69-33.05,10.69-11.76-3.76-18.7-16.7-26.09-30.39-12.33-22.88-22.73-38.91-44.46-36.8-13.25,1.28-22.52,5.39-27.6,12.25-6.26,8.43-4.26,18.75-4.25,18.85a7.68,7.68,0,0,1,.13,1.33c-.09.7-.18,1.4-.22,2a7.35,7.35,0,0,1-5.61,5.31,7.37,7.37,0,0,1-8.68-5.61c0-.14-.15-.73-.3-1.73a38.2,38.2,0,0,1,7.1-19c7.64-10.44,20.47-16.64,38.15-18.32,33.11-3.21,48,24.35,58.82,44.45,5.63,10.54,11.51,21.42,17.6,23.36,6.57,2.1,12.8.12,16.63-5.24,2.79-3.89,4.45-10,3.08-17.63-.94-5.55-3.6-11.92-8.62-18.73a7.3,7.3,0,0,1,.32-9.11,6.42,6.42,0,0,1,1.23-1.16A7.33,7.33,0,0,1,337.58,131c7.09,9.63,10.62,18.81,11.74,27.05l0,0A34.76,34.76,0,0,1,343.11,175Z" transform="translate(-10.03 -13.75)" fill="url(#linear-gradient-37)"></path><path d="M327.87,119.41a8.91,8.91,0,0,0-3.4,5.19,9.25,9.25,0,0,0,.17,4.7,2.36,2.36,0,0,0,.33.72,2.57,2.57,0,0,0,.8.63l2.42,1.46a1.4,1.4,0,0,0,.65.25c.46,0,.79-.41,1.1-.75a4.83,4.83,0,0,1,4.22-1.47,18.82,18.82,0,0,0,2.09.41c1.51.07,2.83-.93,4-1.88a2.17,2.17,0,0,0,.7-.78,2.1,2.1,0,0,0-.31-1.72,25.73,25.73,0,0,0-5.27-7C333.3,117.31,330,117.9,327.87,119.41Z" transform="translate(-10.03 -13.75)" fill="url(#linear-gradient-38)"></path><path d="M309.83,108.2a1.23,1.23,0,0,0-.57-.23,1.17,1.17,0,0,0-.74.29,7.58,7.58,0,0,0-2,2.09,1.51,1.51,0,0,0-.31,1.05c.08.47.52.77.93,1q3.76,2.3,7.57,4.53c1.25.73,5.71,4.48,6.54,2.16C322.41,115.9,312.06,109.56,309.83,108.2Z" transform="translate(-10.03 -13.75)" fill="#68e1fd"></path><path d="M299.6,133.53a4.35,4.35,0,0,1,1.37-4.44c1.28-1.17,8-3.67,7.26-.45C307.91,130.11,300,134.76,299.6,133.53Z" transform="translate(-10.03 -13.75)" fill="#68e1fd"></path><path d="M302.74,102.16A25.47,25.47,0,0,0,296,99.5a8,8,0,0,0-.71,3.71,1,1,0,0,0,.16.6,1.07,1.07,0,0,0,.57.29l1.57.45a6,6,0,0,0,3.49.27c1.13-.37,2-1.75,1.39-2.77" transform="translate(-10.03 -13.75)" fill="#68e1fd"></path><path d="M294.33,115.49c.19,1.62.53,3.48,1.95,4.29a26.77,26.77,0,0,0,5.62,1.76c1.11.24,2.41.18,2.57-1.43.18-1.87-2.19-2.06-3.61-2.56C300.21,117.33,294.37,115.84,294.33,115.49Z" transform="translate(-10.03 -13.75)" fill="#68e1fd"></path><path d="M336.46,100.24c.46-1.07,1.2-2.32,2.36-2.27a1.85,1.85,0,0,1,1.55,1.23,3.52,3.52,0,0,1,0,2.06c-.59,2.42-2.5,4.28-3.46,6.58-.19.45-.39,1-.85,1.17C331.1,111.1,336.09,101.08,336.46,100.24Z" transform="translate(-10.03 -13.75)" fill="#68e1fd"></path><path d="M330,90.65c-.5-.13-.9.43-1.1.91-.29.68-3.58,9.34,0,8C329.23,99.38,329.54,90.53,330,90.65Z" transform="translate(-10.03 -13.75)" fill="#68e1fd"></path><path d="M324.77,109.06l-1.63-4.47c-1-.37-2.09.7-2.21,1.78a8.07,8.07,0,0,0,.68,3.17c.12.37.28.81.66.88a1,1,0,0,0,.55-.1c.72-.29,1.43-.61,2.12-1" transform="translate(-10.03 -13.75)" fill="#68e1fd"></path><path d="M318.44,127.19l-3.21.3c-.64.06-1.38.19-1.64.77a1.25,1.25,0,0,0,.74,1.51,3.58,3.58,0,0,0,1.84.14l2.5-.25a.45.45,0,0,0,.36-.15.45.45,0,0,0,0-.39l-.77-2" transform="translate(-10.03 -13.75)" fill="#68e1fd"></path><path d="M318,98a27.33,27.33,0,0,0-2.87-7,2.69,2.69,0,0,0-1,2.48,7.84,7.84,0,0,0,.85,2.68,4.36,4.36,0,0,0,.92,1.46,1.51,1.51,0,0,0,1.6.37" transform="translate(-10.03 -13.75)" fill="#68e1fd"></path><path d="M353.49,118.6a1.62,1.62,0,0,0,1.13-.19,1.35,1.35,0,0,0,.42-1,5.79,5.79,0,0,0-.59-3.47,9.74,9.74,0,0,1-4.48,1.55c-1.11.1-3-.61-3.72.52C344.49,118.93,352.21,118.51,353.49,118.6Z" transform="translate(-10.03 -13.75)" fill="#68e1fd"></path><path d="M354.84,96.59c.39.77-.11,1.68-.62,2.38a35.37,35.37,0,0,1-3.5,4.13c-1.73,1.75-1.66-.43-.79-1.63A30.22,30.22,0,0,1,354.84,96.59Z" transform="translate(-10.03 -13.75)" fill="#68e1fd"></path><path d="M358.16,107.18a1.13,1.13,0,0,0-.54-.08.77.77,0,0,0-.45,1,2.06,2.06,0,0,0,.83.9c1,.68,5.12,3.39,5.47,1C363.73,108.07,359.4,107.56,358.16,107.18Z" transform="translate(-10.03 -13.75)" fill="#68e1fd"></path><path d="M347.12,88.67,346.91,84a1.2,1.2,0,0,1,0-.5c.21-.55,1-.53,1.57-.4l-.47,5.38a1.31,1.31,0,0,1-.19.68.44.44,0,0,1-.62.12" transform="translate(-10.03 -13.75)" fill="#68e1fd"></path><path d="M512.43,289.19c-7.2.64-14.43-1.62-20.66-5.27s-11.56-8.65-16.59-13.83c-4.19-4.34-8.25-8.89-11.19-14.16s-4.62-10.87-6.34-16.52L446.3,202a119.48,119.48,0,0,1-28.91-3.71,22.86,22.86,0,0,1-6.49-2.47c-3.31-2.06-5.47-5.55-7-9.14a21,21,0,0,1-2-10.15,4.11,4.11,0,0,1,.76-2.3,4.9,4.9,0,0,1,2.82-1.35,305.47,305.47,0,0,1,35.44-6c17.18-1.86,32,8.29,45.95,18.46,9,6.56,17.07,14.73,27.28,19.2,13.33,5.85,28.6,4.68,42.83,7.76a7.78,7.78,0,0,1,4,1.77,8.31,8.31,0,0,1,1.82,4.22c3,13.74,5.8,29.23-1.93,41-5.23,7.94-20,22.4-28.61,26.51S521.79,288.36,512.43,289.19Z" transform="translate(-10.03 -13.75)" fill="url(#linear-gradient-39)"></path><path d="M403.36,207.48c17,.58,32.95,8.2,48.28,15.68,2,1,4.07,2,5.17,3.94a6.42,6.42,0,0,1,.4,5.2c-1.86,5.43-8.84,6.68-14.57,7L404,241.69c-5.23.32-10.6.62-15.62-.88a23,23,0,0,1-15.89-21.38C372.47,202.37,391.9,207.1,403.36,207.48Z" transform="translate(-10.03 -13.75)" fill="url(#linear-gradient-40)"></path><path d="M413.11,231.24c15.51.52,30,7.46,43.92,14.26,1.8.88,3.71,1.85,4.7,3.59a5.76,5.76,0,0,1,.37,4.72c-1.69,4.94-8,6.08-13.25,6.4l-35.18,2.15c-4.76.29-9.64.56-14.21-.81A20.86,20.86,0,0,1,385,242.11C385,226.58,402.69,230.89,413.11,231.24Z" transform="translate(-10.03 -13.75)" fill="url(#linear-gradient-41)"></path><path d="M419.51,252.41c15.51.52,30,7.46,43.92,14.26,1.8.88,3.71,1.85,4.71,3.59a5.8,5.8,0,0,1,.36,4.72c-1.68,4.94-8,6.08-13.25,6.4l-35.18,2.14c-4.76.3-9.64.57-14.2-.8a20.87,20.87,0,0,1-14.46-19.44C391.42,247.75,409.09,252.06,419.51,252.41Z" transform="translate(-10.03 -13.75)" fill="url(#linear-gradient-42)"></path><path d="M430.12,273.92c14.28.48,27.6,6.87,40.44,13.13,1.65.81,3.41,1.71,4.33,3.3a5.37,5.37,0,0,1,.33,4.35c-1.55,4.55-7.4,5.6-12.2,5.89l-32.39,2c-4.38.26-8.87.52-13.07-.74a19.22,19.22,0,0,1-13.31-17.9C404.26,269.64,420.53,273.6,430.12,273.92Z" transform="translate(-10.03 -13.75)" fill="url(#linear-gradient-43)"></path></svg>