<svg xmlns="http://www.w3.org/2000/svg" viewBox="0 0 400 300" width="406" height="306" class="illustration styles_illustrationTablet__1DWOa"><g id="_136_asia_outline" data-name="#136_asia_outline"><path d="M127.35,79H272.65a0,0,0,0,1,0,0V233.84a3.46,3.46,0,0,1-3.46,3.46H130.82a3.46,3.46,0,0,1-3.46-3.46V79A0,0,0,0,1,127.35,79Z" fill="#68e1fd"></path><path d="M269.18,238.31H130.82a4.47,4.47,0,0,1-4.47-4.47V79a1,1,0,0,1,1-1h145.3a1,1,0,0,1,1,1V233.84A4.47,4.47,0,0,1,269.18,238.31ZM128.35,80V233.84a2.48,2.48,0,0,0,2.47,2.47H269.18a2.48,2.48,0,0,0,2.47-2.47V80Z" fill="#093f68"></path><path d="M130.82,62.69H269.18a3.46,3.46,0,0,1,3.46,3.46V79a0,0,0,0,1,0,0H127.35a0,0,0,0,1,0,0V66.16A3.46,3.46,0,0,1,130.82,62.69Z" fill="#fff"></path><path d="M272.65,80H127.35a1,1,0,0,1-1-1V66.16a4.47,4.47,0,0,1,4.47-4.47H269.18a4.47,4.47,0,0,1,4.47,4.47V79A1,1,0,0,1,272.65,80Zm-144.3-2h143.3V66.16a2.48,2.48,0,0,0-2.47-2.47H130.82a2.48,2.48,0,0,0-2.47,2.47Z" fill="#093f68"></path><circle cx="138.26" cy="70.84" r="2.98" fill="#f56132"></circle><path d="M138.26,74.82a4,4,0,1,1,4-4A4,4,0,0,1,138.26,74.82Zm0-6a2,2,0,1,0,2,2A2,2,0,0,0,138.26,68.85Z" fill="#093f68"></path><circle cx="148.04" cy="70.84" r="2.98" fill="#ffbc0e"></circle><path d="M148,74.82a4,4,0,1,1,4-4A4,4,0,0,1,148,74.82Zm0-6a2,2,0,1,0,2,2A2,2,0,0,0,148,68.85Z" fill="#093f68"></path><circle cx="157.83" cy="70.84" r="2.98" fill="#70cc40"></circle><path d="M157.83,74.82a4,4,0,1,1,4-4A4,4,0,0,1,157.83,74.82Zm0-6a2,2,0,1,0,2,2A2,2,0,0,0,157.83,68.85Z" fill="#093f68"></path><path d="M151.93,105.81a2,2,0,0,1-.46,3,1.85,1.85,0,1,1-1.15,3.51,7.41,7.41,0,0,0-1.36-.66,3.7,3.7,0,0,0-1.58.32,7.58,7.58,0,0,1-4.58-.67c-1.47-.54-3.05-1.12-4.57-.75s-2.82,2.11-2.11,3.5a2.81,2.81,0,0,1-2.48.69c.14,2.59,1,6,3.59,6.08a17.47,17.47,0,0,0,2.46-.39c.83-.07,1.84.28,2,1.1.35,1.68-3,2.38-2.64,4.06a7.38,7.38,0,0,0,4.81,4.54l.92,1.6-2.44.64a35.78,35.78,0,0,0,1.38,6,11.23,11.23,0,0,1,4.28-1.46,4.18,4.18,0,0,1,3.91,1.82c.91,1.6.26,3.57.07,5.4s.69,4.2,2.53,4.13c-1.46.8-.61,3,.28,4.4s1.24,3.88-.4,4.16a11.67,11.67,0,0,1,10.28,4.44l-.15,1.28a2.14,2.14,0,0,0,2.65.45,3.18,3.18,0,0,1,1-.57c1.11-.17,1.4,1.48,1.27,2.6a23.21,23.21,0,0,0,4.58,16.45,6.82,6.82,0,0,0,4.68-5.87,12.38,12.38,0,0,1,.17-2.36,6.26,6.26,0,0,1,1.7-2.58,48.86,48.86,0,0,1,11.95-9.16c.46-.21,1,.16,1.32.51,2.54,2.47,5.31,5.7,4.38,9.12a3.38,3.38,0,0,0,2.58-1.18c2.89,2.68-.18,8,2,11.28.57.83,1.43,1.43,2.07,2.21A36.8,36.8,0,0,1,207,187.2c.77,1.22,2.21,2.28,3.59,1.83,0-2.68-1.59-5.07-2.79-7.47s-2-5.36-.68-7.67c2.16,1,2.33,4.58,4.63,5.24,1.55.45,3-.76,4.22-1.87a6.59,6.59,0,0,0,2.24-3.23c.39-2-1-3.77-2.17-5.4s-2.12-3.91-.93-5.52a1.2,1.2,0,0,1,.77-.54c.49,0,.9.36,1.33.59,2.09,1.11,3.92-1.79,5.93-3,2.53-1.55,6.21-.49,8.41-2.47a6.64,6.64,0,0,0,1.77-3.6,22.52,22.52,0,0,0-.68-12.07,2.69,2.69,0,0,1-.15-2.09c.47-.9,2-1.18,2-2.2s-1.53-1.16-2.58-1-2.56-.58-2.06-1.51a9.57,9.57,0,0,1,4.58-2.77l.87,2.37c1.1-2,4.36-1.5,5.69.33s1.3,4.28,1.21,6.54c1,1.22,3.05-.38,3-2s-1-3-1.09-4.6c-.19-3.33,3.6-6,3.25-9.28a3,3,0,0,1,0-1.58c.26-.6,1-.82,1.57-1.1a5.47,5.47,0,0,0,2.61-6.85,6.7,6.7,0,0,1-9.3-2.88c-.39-.9-.57-1.87-.95-2.77a7.06,7.06,0,0,0-9.5-3.32,10.87,10.87,0,0,1-1.92,7.62C226.47,113,222.2,111,218.77,113c-1.22.7-2.59,1.88-3.82,1.2-.53-.29-.87-.9-1.44-1.13-1.1-.44-2.31.77-3.47.49-.82-.19-1.27-1-1.78-1.71a4.49,4.49,0,0,0-4.11-1.91,2.85,2.85,0,0,0-2.31,3.48l-6.13-1.07a6,6,0,0,0-2.63-.08c-2.13.57-3.32,3.32-5.52,3.45-2.85.16-4.46-4.15-7.3-4a7,7,0,0,1-1.69.17c-1.52-.29-1.56-2.43-2.33-3.77-1.21-2.08-4.13-2.06-6.53-2.16-3.54-.16-4.21-3.34-6.83-4C161.2,101.63,152.55,106.45,151.93,105.81Z" fill="#70cc40"></path><path d="M209.93,190.14a4.78,4.78,0,0,1-3.76-2.41,14.8,14.8,0,0,1-.89-1.72,9.44,9.44,0,0,0-1.11-2,9.62,9.62,0,0,0-.84-.86,8.43,8.43,0,0,1-1.29-1.42c-1.23-1.82-1.08-4.1-.95-6.12.11-1.68.2-3.18-.38-4.28a4.32,4.32,0,0,1-2.47.74,1,1,0,0,1-.78-.41,1,1,0,0,1-.17-.86c.8-2.9-1.78-5.87-4.11-8.13a2.56,2.56,0,0,0-.32-.26,47.81,47.81,0,0,0-11.53,8.88,5.53,5.53,0,0,0-1.46,2.15,6.06,6.06,0,0,0-.11,1.33q0,.42,0,.84a7.8,7.8,0,0,1-5.37,6.76,1,1,0,0,1-1.09-.35,24.15,24.15,0,0,1-4.78-17.17,2.81,2.81,0,0,0-.18-1.48l-.25.17-.37.25a3.15,3.15,0,0,1-3.93-.66,1,1,0,0,1-.23-.77l.11-.86a10.66,10.66,0,0,0-9.14-3.74,1,1,0,0,1-1.09-.86,1,1,0,0,1,.82-1.12.27.27,0,0,0,.23-.18,3.25,3.25,0,0,0-.5-2.46c-.48-.75-1.54-2.66-1.14-4.25,0-.05,0-.1.05-.15a3,3,0,0,1-.62-.52A5.58,5.58,0,0,1,151,144c0-.44.11-.88.18-1.32.21-1.32.4-2.56-.13-3.49a3.19,3.19,0,0,0-3-1.31,10.57,10.57,0,0,0-3.89,1.35,1,1,0,0,1-.84,0,1.06,1.06,0,0,1-.57-.62,38.07,38.07,0,0,1-1.41-6.13,1,1,0,0,1,.74-1.11l1.17-.3-.08-.13a8.45,8.45,0,0,1-5.07-5,.65.65,0,0,1,0-.13c-.3-1.44.84-2.36,1.67-3,.43-.35,1-.81,1-1s-.46-.34-.93-.3a6.57,6.57,0,0,0-.89.17,6.13,6.13,0,0,1-1.72.22c-2.61-.13-4.31-2.76-4.53-7A1,1,0,0,1,133,114a1,1,0,0,1,.86-.22,1.89,1.89,0,0,0,1.1-.13,3.2,3.2,0,0,1,.28-1.8,4.24,4.24,0,0,1,2.76-2.27,9,9,0,0,1,5.16.8,6.81,6.81,0,0,0,4,.64l.33-.11a2.8,2.8,0,0,1,2.86.27,2.93,2.93,0,0,0,.39.21.81.81,0,0,0,.66-.05.86.86,0,0,0,.47-.47.87.87,0,0,0-.09-.66.85.85,0,0,0-.51-.43,1,1,0,0,1-.74-.85,1,1,0,0,1,.51-1,.89.89,0,0,0,.41-.66.91.91,0,0,0-.19-.74h0a1,1,0,0,1,0-1.42,1,1,0,0,1,1-.23,33.74,33.74,0,0,0,4-1.59c3.86-1.7,5.8-2.48,6.89-2.22a6.83,6.83,0,0,1,3.18,2,5,5,0,0,0,3.48,1.88l.48,0c2.43.1,5.46.22,6.86,2.63a9.73,9.73,0,0,1,.68,1.65c.33,1,.55,1.56,1,1.65a2.13,2.13,0,0,0,.7-.08,5.83,5.83,0,0,1,.73-.1c1.87-.14,3.21,1.12,4.41,2.23,1,.91,1.9,1.77,2.9,1.71a4.31,4.31,0,0,0,2.36-1.47,5.58,5.58,0,0,1,6-1.89l4.86.86a3.45,3.45,0,0,1,.47-1.31,4,4,0,0,1,2.77-2,5.42,5.42,0,0,1,5.07,2.29l.27.38c.31.43.63.89.94,1a2.48,2.48,0,0,0,1.1-.24,2.81,2.81,0,0,1,3.64.61,2.24,2.24,0,0,0,.43.37c.45.25,1.16-.16,2.12-.76l.72-.44c3.53-2,7.64-.49,11.3,1.48a9.87,9.87,0,0,0,1.27-6.17,1,1,0,0,1,.51-1,8.06,8.06,0,0,1,10.9,3.8c.21.49.35,1,.5,1.45a12.55,12.55,0,0,0,.44,1.31,5.71,5.71,0,0,0,7.86,2.43,1,1,0,0,1,.83-.1,1,1,0,0,1,.62.56A6.49,6.49,0,0,1,249.4,124l-.3.13c-.32.14-.71.31-.78.47a1.62,1.62,0,0,0,0,.68c0,.13,0,.26.05.39.21,2-.79,3.7-1.75,5.33-.81,1.37-1.58,2.66-1.5,4a7.09,7.09,0,0,0,.49,1.94,8.39,8.39,0,0,1,.6,2.7,3.66,3.66,0,0,1-2.3,3.25,2.17,2.17,0,0,1-2.51-.64,1,1,0,0,1-.23-.68c.09-2.34.08-4.41-1-5.91a3.2,3.2,0,0,0-2.65-1.2,1.62,1.62,0,0,0-1.36.76,1,1,0,0,1-1.81-.13l-.55-1.47a8.54,8.54,0,0,0-2.91,1.87,1.89,1.89,0,0,0,.89.17,4.15,4.15,0,0,1,3,.63,1.88,1.88,0,0,1,.64,1.39,2.57,2.57,0,0,1-1.44,2.12,2.62,2.62,0,0,0-.66.57c-.14.26.07.86.22,1.3a23.28,23.28,0,0,1,.7,12.6,7.59,7.59,0,0,1-2.07,4.14c-1.43,1.28-3.24,1.48-5,1.68a8.89,8.89,0,0,0-3.56.89A13.18,13.18,0,0,0,222,162.3c-1.43,1.26-3.2,2.84-5.27,1.74a3.91,3.91,0,0,1-.44-.26c-.09-.06-.22-.15-.3-.19a.53.53,0,0,0-.09.11c-1,1.37.46,3.68.93,4.35l.23.33c1.14,1.6,2.56,3.59,2.11,5.84a7.45,7.45,0,0,1-2.53,3.76c-.87.83-2.9,2.77-5.19,2.11-1.6-.46-2.37-1.87-3.05-3.12a10.16,10.16,0,0,0-.88-1.44c-.41,1.83.35,4,1.16,5.59.21.42.44.85.66,1.27,1.09,2.06,2.21,4.19,2.23,6.63a1,1,0,0,1-.69,1A3.2,3.2,0,0,1,209.93,190.14Zm-9.09-21.24a1,1,0,0,1,.68.27c1.87,1.74,1.71,4.31,1.56,6.58-.12,1.86-.23,3.61.62,4.86a6.81,6.81,0,0,0,1,1.1,12.64,12.64,0,0,1,1,1,11,11,0,0,1,1.37,2.4,13.33,13.33,0,0,0,.78,1.51,3.28,3.28,0,0,0,1.66,1.39,16.08,16.08,0,0,0-1.92-4.73c-.23-.44-.46-.88-.68-1.32-1.72-3.44-2-6.43-.65-8.63a1,1,0,0,1,1.29-.39,6.33,6.33,0,0,1,2.62,3c.57,1,1.05,1.93,1.85,2.16,1.05.3,2.3-.72,3.26-1.64a5.71,5.71,0,0,0,1.95-2.7c.28-1.41-.76-2.87-1.78-4.29l-.23-.33c-1.82-2.58-2.15-5-.92-6.7a2.18,2.18,0,0,1,1.46-.93,2.44,2.44,0,0,1,1.64.52l.28.18c.77.39,1.54-.17,3-1.48a14.65,14.65,0,0,1,1.93-1.52A10.31,10.31,0,0,1,227,158.1c1.51-.17,2.93-.33,3.88-1.18a5.82,5.82,0,0,0,1.46-3.08,21.3,21.3,0,0,0-.64-11.52,3.55,3.55,0,0,1-.1-2.89,3.74,3.74,0,0,1,1.3-1.27,4.27,4.27,0,0,0,.53-.41,3.24,3.24,0,0,0-1.43-.11,3.33,3.33,0,0,1-3-1.18,1.67,1.67,0,0,1-.07-1.8.62.62,0,0,1,.14-.19,10.54,10.54,0,0,1,5-3.07,1,1,0,0,1,1.2.62l.34.94a4,4,0,0,1,1.71-.49,5.15,5.15,0,0,1,4.38,2c1.44,2,1.49,4.52,1.42,6.54h0a1.67,1.67,0,0,0,1-1.36,6.91,6.91,0,0,0-.49-2.06,9,9,0,0,1-.6-2.48c-.11-1.94.85-3.56,1.78-5.13.83-1.41,1.62-2.75,1.48-4.1,0-.1,0-.21,0-.31a3.07,3.07,0,0,1,.12-1.8,3.18,3.18,0,0,1,1.8-1.47l.26-.12a4.51,4.51,0,0,0,2.4-4.51,7.61,7.61,0,0,1-4.93.09,7.33,7.33,0,0,1-4.65-4,14.67,14.67,0,0,1-.53-1.53,13.07,13.07,0,0,0-.42-1.25,5.72,5.72,0,0,0-3.47-3.09,5.82,5.82,0,0,0-4,0,11.87,11.87,0,0,1-2.17,7.59,1,1,0,0,1-1.3.29c-3.38-1.89-7.23-3.6-10.16-1.93-.22.12-.43.26-.65.4-1.11.69-2.63,1.65-4.15.81a4,4,0,0,1-.87-.7,1.75,1.75,0,0,0-.46-.38,2,2,0,0,0-1.08.22,3.85,3.85,0,0,1-2.25.32,3.77,3.77,0,0,1-2.11-1.75q-.12-.18-.24-.33a3.5,3.5,0,0,0-3.14-1.53,2.09,2.09,0,0,0-1.38,1,1.43,1.43,0,0,0-.16,1.16,1,1,0,0,1-1.11,1.33l-6.13-1.08a5.34,5.34,0,0,0-2.2-.09,5.7,5.7,0,0,0-2.12,1.47,5.92,5.92,0,0,1-3.6,2c-1.86.12-3.2-1.13-4.38-2.24-1-.91-1.91-1.74-2.91-1.7a4.33,4.33,0,0,0-.5.08,3.55,3.55,0,0,1-1.44.07c-1.61-.3-2.11-1.78-2.51-3a7.1,7.1,0,0,0-.51-1.28c-.85-1.47-3.07-1.56-5.21-1.64l-.49,0a6.94,6.94,0,0,1-4.78-2.44,5,5,0,0,0-2.24-1.53c-.68-.08-3.79,1.29-5.64,2.1-1.65.73-2.8,1.23-3.64,1.51a3,3,0,0,1,0,1,3,3,0,0,1-.35,1,3,3,0,0,1,.46.64,2.85,2.85,0,0,1-3.53,4,6.47,6.47,0,0,1-.69-.36,1.73,1.73,0,0,0-.47-.24,2.1,2.1,0,0,0-.71.16l-.43.13c-1.91.54-3.89-.2-5.2-.69a7.32,7.32,0,0,0-4-.72,2.21,2.21,0,0,0-1.41,1.16,1,1,0,0,0,0,.92,1,1,0,0,1-.21,1.18,3.79,3.79,0,0,1-2.05,1c.21,1.53.81,4,2.53,4.06a3.9,3.9,0,0,0,1.17-.17,8.09,8.09,0,0,1,1.15-.21,2.76,2.76,0,0,1,3.08,1.88c.3,1.44-.85,2.36-1.68,3-.41.33-.95.76-1,1a6.39,6.39,0,0,0,4.12,3.82,1,1,0,0,1,.59.46l.92,1.61a1,1,0,0,1-.62,1.46l-1.56.41a35.37,35.37,0,0,0,.86,3.8,10,10,0,0,1,3.6-1,5.1,5.1,0,0,1,4.85,2.32c.87,1.53.6,3.26.36,4.78-.06.41-.12.81-.16,1.21a3.7,3.7,0,0,0,.72,2.69,1,1,0,0,0,.77.34,1,1,0,0,1,1,.74,1,1,0,0,1-.48,1.14.43.43,0,0,0-.24.3,4.27,4.27,0,0,0,.88,2.68,5.65,5.65,0,0,1,.85,3.68,12.77,12.77,0,0,1,9,4.86,1,1,0,0,1,.2.73l-.1.74a1.17,1.17,0,0,0,1.09,0l.22-.15a2.72,2.72,0,0,1,1.17-.55,1.83,1.83,0,0,1,1.58.5,4.17,4.17,0,0,1,.84,3.2,22.11,22.11,0,0,0,3.94,15.14,5.89,5.89,0,0,0,3.32-4.74c0-.24,0-.49,0-.73a7.66,7.66,0,0,1,.18-1.81,7.14,7.14,0,0,1,1.94-3,50,50,0,0,1,12.2-9.35,2.13,2.13,0,0,1,2.49.68c2.36,2.29,4.92,5.24,4.87,8.52a2.24,2.24,0,0,0,.63-.51,1,1,0,0,1,.71-.36Z" fill="#093f68"></path><path d="M213.17,198.15a2.15,2.15,0,0,0-.42-2.13c-.3-.33-.71-.58-.89-1s-.13-.62-.39-.76a1.85,1.85,0,0,0-.49-.11c-.48-.12-.67-.68-.9-1.12a6.15,6.15,0,0,0-1.66-1.79l-6.14-5.06a3,3,0,0,0-2.21-1c-.18.47.21.95.56,1.31a36.09,36.09,0,0,1,5.24,7,24.25,24.25,0,0,0,2.27,3.68C209.23,198.54,212.21,200.8,213.17,198.15Z" fill="#70cc40"></path><path d="M211.65,200.38c-1.72,0-3.52-1.59-4.27-2.51a18.55,18.55,0,0,1-2-3.05l-.42-.76a34.86,34.86,0,0,0-5.1-6.85,2.34,2.34,0,0,1-.77-2.35,1,1,0,0,1,.79-.64,4,4,0,0,1,3,1.18l6.14,5.06a7.12,7.12,0,0,1,1.91,2.11l.12.24c.06.12.14.29.2.38a1.54,1.54,0,0,1,1.45,1.3.58.58,0,0,0,0,.14,1.51,1.51,0,0,0,.31.34,4.75,4.75,0,0,1,.4.38,3.15,3.15,0,0,1,.61,3.15h0a2.57,2.57,0,0,1-2,1.84A2.32,2.32,0,0,1,211.65,200.38Zm-7.74-11.57a37.92,37.92,0,0,1,2.83,4.26l.43.78a17.42,17.42,0,0,0,1.74,2.75c.76.91,2.17,1.9,2.85,1.77.08,0,.28-.05.47-.56h0a1.14,1.14,0,0,0-.22-1.12,2.83,2.83,0,0,0-.25-.24,3,3,0,0,1-.82-1q0-.12-.09-.27l-.12,0a2.33,2.33,0,0,1-1.44-1.43l-.09-.2a5.36,5.36,0,0,0-1.42-1.48Z" fill="#093f68"></path><path d="M218,200.73a2.84,2.84,0,0,0,1.19-.08,6.78,6.78,0,0,1,2.54,0,1,1,0,0,1,.65.3,2,2,0,0,1,.22.61c.33,1,1.63,1.21,2.35,2a.3.3,0,0,1,.1.21c0,.16-.21.21-.37.21a17.57,17.57,0,0,1-3.74-.47c-1.09-.22-6-.53-6.51-1.51-.29-.61.44-1.35.92-1.61C216.48,199.75,217.05,200.47,218,200.73Z" fill="#70cc40"></path><path d="M224.56,204.93a19.25,19.25,0,0,1-3.77-.49c-.25-.05-.69-.1-1.24-.17-3.72-.44-5.47-.82-6-1.88s.44-2.43,1.34-2.93a2.75,2.75,0,0,1,2.76,0,3.3,3.3,0,0,0,.63.25h0a1.85,1.85,0,0,0,.57-.06l.17,0a7.7,7.7,0,0,1,2.91,0,1.74,1.74,0,0,1,1.6,1.45l0,.12c.08.23.46.45.86.68a5.49,5.49,0,0,1,1.26.91,1.25,1.25,0,0,1,.38,1,1.26,1.26,0,0,1-1.35,1.16Zm-9-3.41a24.76,24.76,0,0,0,4.27.77c.62.07,1.12.13,1.39.19l1,.19a2.62,2.62,0,0,1-.46-.8c0-.08-.05-.16-.07-.24h0a5.92,5.92,0,0,0-2.18,0l-.15,0a3.24,3.24,0,0,1-1.47,0h0a5.21,5.21,0,0,1-1-.37c-.55-.25-.65-.28-1-.11A1.43,1.43,0,0,0,215.52,201.52Zm6.23.14Z" fill="#093f68"></path><path d="M225.34,197c-.39-.22-.66-.62-1.05-.86a3.91,3.91,0,0,0-2.56-.1,1.12,1.12,0,0,1-.92-.15c-.22-.18-.3-.49-.54-.64s-.54-.08-.81-.17c-.67-.22-.65-1.14-.83-1.83a8,8,0,0,0-.94-1.78,2,2,0,0,1-.21-1.92c.32-.59,1.36-.71,1.61-.09,2-2,5-3,6.64-5.33.48-.71.85-1.57,1.62-2,1.13-.57,2.46.18,3.47.94.39.28.79.88.4,1.16s-.9-.1-1.18.21,0,.62.09.93-.14.8-.41.61a3.49,3.49,0,0,0,.66,3.34c.31.35.71.87.39,1.21s-.7.15-1,.37-.23.78-.31,1.19c-.14.8-1,1.22-1.45,1.9a6.9,6.9,0,0,0-.52,1.55C227.27,196.32,226.22,197.52,225.34,197Z" fill="#70cc40"></path><path d="M225.79,198.13a1.84,1.84,0,0,1-.94-.25h0a4,4,0,0,1-.74-.59,1.45,1.45,0,0,0-1.83-.31l-.42.06a2.07,2.07,0,0,1-1.7-.37,2.25,2.25,0,0,1-.43-.52h0a2,2,0,0,1-2-2.21c0-.14-.05-.28-.09-.41a3.64,3.64,0,0,0-.5-1c-.12-.19-.24-.38-.35-.57a2.94,2.94,0,0,1-.21-2.89,2,2,0,0,1,1.91-1,1.78,1.78,0,0,1,.53.11,23.39,23.39,0,0,1,2.39-1.67,11.28,11.28,0,0,0,3.47-2.92l.29-.45a4.41,4.41,0,0,1,1.71-1.84c1.87-.95,3.86.54,4.52,1a2.24,2.24,0,0,1,1,1.66,1.4,1.4,0,0,1-.56,1.12,1.54,1.54,0,0,1-.68.27,1.59,1.59,0,0,1-.57,1.47h0a2.54,2.54,0,0,0,.58,1.89c1.08,1.24.8,2.06.37,2.53a1.63,1.63,0,0,1-1,.51v0a4.53,4.53,0,0,1-.05.53,3.25,3.25,0,0,1-1.1,1.71,3.25,3.25,0,0,0-.49.53,3.06,3.06,0,0,0-.26.76c-.05.19-.1.38-.16.56a3.61,3.61,0,0,1-1.92,2.1A2.21,2.21,0,0,1,225.79,198.13Zm.05-2Zm-2.62-1.27a3,3,0,0,1,1.59.41,4.06,4.06,0,0,1,.68.56,3.34,3.34,0,0,0,.32.28,1.72,1.72,0,0,0,.75-.85c.05-.15.08-.29.12-.44a4.23,4.23,0,0,1,.5-1.32,5,5,0,0,1,.8-.93c.24-.23.49-.47.52-.63a1.06,1.06,0,0,0,0-.25,1.9,1.9,0,0,1,.66-1.56,1.57,1.57,0,0,1,.37-.21,4.5,4.5,0,0,1-.78-4.22,1,1,0,0,1,.26-.42,1.51,1.51,0,0,1,.27-1.48,1.35,1.35,0,0,1,.36-.29c-.82-.51-1.44-.67-1.86-.45a2.93,2.93,0,0,0-.91,1.09c-.11.18-.21.36-.33.53a13,13,0,0,1-4.05,3.48,16.38,16.38,0,0,0-2.72,2,1,1,0,0,1-.91.26.93.93,0,0,1-.53-.31,1.32,1.32,0,0,0,.21.86c.09.16.19.32.29.47a5.39,5.39,0,0,1,.75,1.54c0,.18.08.37.11.56a4.48,4.48,0,0,0,.14.58h0a1.92,1.92,0,0,1,.9.26,2,2,0,0,1,.62.65v0l.17,0L222,195A7.86,7.86,0,0,1,223.22,194.88Zm7-5.1Z" fill="#093f68"></path><path d="M234,197.36c-.06-.18-.15-.39-.34-.42a.38.38,0,0,0-.38.26,1.2,1.2,0,0,0,0,.5,12.32,12.32,0,0,1,0,2.19.67.67,0,0,1-.12.35.66.66,0,0,1-.47.18l-.76.07a1,1,0,0,1-.52,0c-.39-.16-.45-.69-.34-1.1a3.56,3.56,0,0,0,.29-1.22c-.07-.59-.65-1-.72-1.62a4.24,4.24,0,0,1,1-2.42,14.8,14.8,0,0,0,1.17-2.67,3,3,0,0,1,.53-1,2.6,2.6,0,0,1,2-.65,7.8,7.8,0,0,0,2.16,0,5.21,5.21,0,0,0,1.19-.51.85.85,0,0,1-.33,1.13,2.79,2.79,0,0,1-1.25.32,13.81,13.81,0,0,0-1.94.35,2.28,2.28,0,0,0-1.29.7c-.34.47-.29,1.13-.52,1.67.45.32,1.42-.28,2-.16s1,.53.76,1-.55.45-.61.77a.88.88,0,0,0,.14.54,6.76,6.76,0,0,1,.69,2.36,1.69,1.69,0,0,1-.19,1.15,1.22,1.22,0,0,1-1.51.41C234.13,199.07,234.16,197.89,234,197.36Z" fill="#70cc40"></path><path d="M231.65,201.5a1.73,1.73,0,0,1-.67-.12,1.86,1.86,0,0,1-.92-2.29c0-.15.08-.29.13-.43a1.63,1.63,0,0,0,.12-.42,1.94,1.94,0,0,0-.21-.39,2.93,2.93,0,0,1-.51-1.21,4.52,4.52,0,0,1,1-2.88l.13-.21a9.82,9.82,0,0,0,.87-1.91l.22-.58a3.94,3.94,0,0,1,.72-1.29,3.46,3.46,0,0,1,2.76-1l.62,0a4.51,4.51,0,0,0,1.29,0,4.32,4.32,0,0,0,1-.42,1,1,0,0,1,1.29.3,1.68,1.68,0,0,1,.26,1.26,2,2,0,0,1-.86,1.28,3.52,3.52,0,0,1-1.61.48,13,13,0,0,0-1.89.33,2.24,2.24,0,0,0-.67.27,2.2,2.2,0,0,1,.81,0,2.15,2.15,0,0,1,1.43,1,1.52,1.52,0,0,1,.05,1.3,1.73,1.73,0,0,1-.43.59,7.78,7.78,0,0,1,.73,2.58,2.74,2.74,0,0,1-.36,1.81,2.44,2.44,0,0,1-1.56,1,1.86,1.86,0,0,1-1.22-.21,1.47,1.47,0,0,1-.28.54,1.58,1.58,0,0,1-1.14.53l-.76.08Zm.64-2.93a3.62,3.62,0,0,1-.21.76l-.05.14.23,0C232.28,199.15,232.29,198.86,232.29,198.57Zm3,.14h0Zm-1.67-2.77a.75.75,0,0,1,.21,0,1.43,1.43,0,0,1,1.13,1.11h0a5.86,5.86,0,0,1,.15.81,5.74,5.74,0,0,0,.11.64.19.19,0,0,0,.08-.07,1,1,0,0,0,0-.47,5.9,5.9,0,0,0-.59-2,1.77,1.77,0,0,1-.23-1.17,1.26,1.26,0,0,1,.17-.46,2.2,2.2,0,0,1-1.91-.12l-.05,0c-.08.15-.17.3-.26.45l-.15.22c-.26.41-.76,1.17-.71,1.54a1.94,1.94,0,0,0,.21.39,3.36,3.36,0,0,1,.46.95,1.84,1.84,0,0,1,.09-.87A1.36,1.36,0,0,1,233.61,195.94Z" fill="#093f68"></path><path d="M240,202.48a4.51,4.51,0,0,0-1.68.84,2.54,2.54,0,0,0-.67.59.93.93,0,0,0-.14.85,1.78,1.78,0,0,0,1.3,0c.67-.22,1.34-.46,2-.73C242.36,203.34,241.28,202.23,240,202.48Z" fill="#70cc40"></path><path d="M238,205.87a2,2,0,0,1-.95-.23,1,1,0,0,1-.46-.5,1.9,1.9,0,0,1,.24-1.8,3.33,3.33,0,0,1,.92-.85,5.57,5.57,0,0,1,2.06-1,2.28,2.28,0,0,1,2.72,1.28c.2.68,0,1.6-1.35,2.13q-1,.41-2.07.75A3.52,3.52,0,0,1,238,205.87Zm2.68-3Zm-.68-.44h0Z" fill="#093f68"></path><path d="M260.34,203.41l-3.48-.55a.61.61,0,0,1-.46-.21c-.19-.26.09-.62.38-.78s.65-.31.71-.63a.92.92,0,0,0-.08-.46,3.85,3.85,0,0,0-1.16-1.95,4.79,4.79,0,0,0-2.45-.57,10.46,10.46,0,0,1-3.29-.86,2.29,2.29,0,0,1-1.24-1,.92.92,0,0,1,.57-1.29l-1.76-1.48a.73.73,0,0,1-.24-.31c-.11-.33.28-.59.6-.72a2.14,2.14,0,0,1,1.61-.22,1.71,1.71,0,0,1,.73.68c.4.63.6,1.39,1.06,2a1.51,1.51,0,0,0,1.95.53,2.91,2.91,0,0,0,.58-.72c1.41-1.95,4.58-1.36,5.69.61S260.52,201.2,260.34,203.41Z" fill="#70cc40"></path><path d="M260.34,204.41l-.15,0-3.48-.54a1.62,1.62,0,0,1-1.12-.61,1.32,1.32,0,0,1-.22-1.09,1.86,1.86,0,0,1,.93-1.16l.11-.05a2.76,2.76,0,0,0-.75-1.3,3.13,3.13,0,0,0-1.56-.35l-.39,0a11.61,11.61,0,0,1-3.61-.95,3.23,3.23,0,0,1-1.75-1.54,2.08,2.08,0,0,1,0-1.64l-.92-.78a1.61,1.61,0,0,1-.56-.77c-.19-.59,0-1.46,1.18-2a3.11,3.11,0,0,1,2.36-.22,2.58,2.58,0,0,1,1.21,1.08,8.48,8.48,0,0,1,.51,1,4.82,4.82,0,0,0,.49.91.8.8,0,0,0,.58.33,1.73,1.73,0,0,0,.2-.28l.15-.22a4,4,0,0,1,3.52-1.6,4.78,4.78,0,0,1,3.85,2.31c1.12,2,.8,4.94.53,7.32,0,.45-.09.86-.12,1.24a1,1,0,0,1-.38.7A1,1,0,0,1,260.34,204.41Zm-2.15-2.35,1.26.19a1.64,1.64,0,0,0,0-.22c.22-2,.52-4.7-.28-6.12a2.78,2.78,0,0,0-2.22-1.29,2,2,0,0,0-1.78.77l-.11.16a2.92,2.92,0,0,1-.7.79,2.49,2.49,0,0,1-3.33-.73,3.29,3.29,0,0,1-.23-.33s0,.05,0,.07a1,1,0,0,1-.58.64,1.42,1.42,0,0,0,.7.49,9,9,0,0,0,3,.78l.36,0a4.79,4.79,0,0,1,2.59.74,4.72,4.72,0,0,1,1.51,2.41,1.87,1.87,0,0,1,.12,1A1.52,1.52,0,0,1,258.19,202.06Zm-8.89-8.76.91.77a4,4,0,0,0-.27-.51c-.16-.24-.26-.29-.27-.29A.72.72,0,0,0,249.3,193.3Z" fill="#093f68"></path><path d="M239.64,183.36a.86.86,0,0,1-1.25.33,2.24,2.24,0,0,1-.79-1.23,1.71,1.71,0,0,0-.23-.47c-.3-.36-.91-.38-1.15-.79a.85.85,0,0,1,.19-1,2.49,2.49,0,0,1,.91-.52,4.75,4.75,0,0,1,2-.47c.88.06,2.42,1.1,2.12,2.17-.2.72-.6.38-1.11.62C239.5,182.42,239.9,182.5,239.64,183.36Z" fill="#70cc40"></path><path d="M238.9,184.82a2,2,0,0,1-1-.28,3.19,3.19,0,0,1-1.21-1.75c0-.07,0-.13-.07-.19s-.1,0-.18-.06a2.15,2.15,0,0,1-1-.83,1.84,1.84,0,0,1,.32-2.18,3.47,3.47,0,0,1,1.27-.76,5.77,5.77,0,0,1,2.48-.54,3.89,3.89,0,0,1,2.63,1.54,2.24,2.24,0,0,1,.39,1.89,1.56,1.56,0,0,1-1.52,1.25h-.14l0,0a5.06,5.06,0,0,1-.14.7h0a1.67,1.67,0,0,1-1,1A2,2,0,0,1,238.9,184.82Zm.74-1.46h0Zm-2.29-2.58a2.21,2.21,0,0,1,.8.58,2.24,2.24,0,0,1,.38.76,4.2,4.2,0,0,0,.23.52,1.64,1.64,0,0,1,1.19-1.53,2.51,2.51,0,0,1,.49-.16v0a2,2,0,0,0-1.14-.71,3.87,3.87,0,0,0-1.6.41A2.07,2.07,0,0,0,237.35,180.78Zm-.33-.17Z" fill="#093f68"></path><path d="M235.16,171.17c.14-.46-.06-1,.17-1.4s.82-.58.9-1-.24-.67-.52-.9a2.38,2.38,0,0,0-2.32-.61,1.89,1.89,0,0,0-.85.83,3,3,0,0,0-.29,2.56C232.68,171.75,234.61,172.91,235.16,171.17Z" fill="#70cc40"></path><path d="M234.13,173.06a3.3,3.3,0,0,1-2.81-2.1,4,4,0,0,1,.36-3.42,2.86,2.86,0,0,1,1.3-1.24,3.25,3.25,0,0,1,3.35.75,1.94,1.94,0,0,1,.89,1.85,2,2,0,0,1-.84,1.22,1.19,1.19,0,0,0-.19.16s0,.14,0,.24a2.72,2.72,0,0,1-.1.94,2.08,2.08,0,0,1-1.92,1.6Zm1-1.89h0ZM234,168.09a.34.34,0,0,0-.18,0,1,1,0,0,0-.39.42,2.06,2.06,0,0,0-.21,1.71,1.46,1.46,0,0,0,.95.8h0s0-.06.06-.19a1.47,1.47,0,0,0,0-.31,2.31,2.31,0,0,1,.25-1.29,2.36,2.36,0,0,1,.61-.67A2.11,2.11,0,0,0,234,168.09Z" fill="#093f68"></path><path d="M247.68,146.38a3,3,0,0,0,.93-1.48,1.43,1.43,0,0,0-.61-1.54,2.21,2.21,0,0,0-1.72.12,9.62,9.62,0,0,0-.18,2.27,1.16,1.16,0,0,0,.13.61c.34.57,1.2.37,1.81.09" fill="#70cc40"></path><path d="M247,147.72a1.8,1.8,0,0,1-1.61-.85,2.13,2.13,0,0,1-.27-1.08,11.15,11.15,0,0,1,.2-2.51,1,1,0,0,1,.65-.74,3.06,3.06,0,0,1,2.51-.06,2.39,2.39,0,0,1,1.13,2.63,3.31,3.31,0,0,1-.56,1.23,1,1,0,0,1-.58,1A3.49,3.49,0,0,1,247,147.72Zm.19-3.46a8,8,0,0,0-.08,1.29,1.83,1.83,0,0,0,.54-.86.47.47,0,0,0-.1-.44A.56.56,0,0,0,247.17,144.26Z" fill="#093f68"></path><path d="M259.26,133a4.65,4.65,0,0,1-1.83,3.34,6.94,6.94,0,0,0-1.89,1.53c-.2.33-.31.72-.51,1-1.07,1.75-4.11,1.1-5.34,2.75a.53.53,0,0,0-.11.24c0,.33.45.44.78.35.49-.13.94-.39,1.44-.48a1.24,1.24,0,0,1,1.33.51c.24.49.08,1.3.6,1.42s.73-.76,1.13-1.19c.61-.64,1.91-.18,2.42-.9.12-.17.17-.38.29-.55.39-.5,1.26-.25,1.63.27.14.2.3.45.54.42a.5.5,0,0,0,.27-.18c.86-1,.56-2.42.83-3.66.48-2.17,2.15-3.81,1.38-6.21C261.31,128.92,259.41,131.07,259.26,133Z" fill="#70cc40"></path><path d="M253.87,144.73a1.56,1.56,0,0,1-.36,0,1.74,1.74,0,0,1-1.22-1.63,1.67,1.67,0,0,0-.06-.32s-.11,0-.25,0a3.39,3.39,0,0,0-.64.21c-.24.09-.47.18-.72.25a1.8,1.8,0,0,1-1.59-.31,1.27,1.27,0,0,1-.44-1.12,1.35,1.35,0,0,1,.31-.73,5.23,5.23,0,0,1,3.2-1.69c.93-.23,1.74-.43,2.08-1,.07-.13.12-.26.18-.39a5.21,5.21,0,0,1,.33-.67,4.76,4.76,0,0,1,1.6-1.43c.18-.12.37-.24.54-.37a3.66,3.66,0,0,0,1.44-2.62c.12-1.56,1.14-3.36,2.56-3.53.49-.06,1.69,0,2.34,2a6.31,6.31,0,0,1-.66,4.84,10.19,10.19,0,0,0-.69,1.88,7.63,7.63,0,0,0-.13,1.13,4.57,4.57,0,0,1-.93,3,1.52,1.52,0,0,1-.88.5,1.56,1.56,0,0,1-1.47-.79.46.46,0,0,0-.12-.12,3.9,3.9,0,0,1-.19.35,2.52,2.52,0,0,1-1.93.91,2.39,2.39,0,0,0-.59.11,2.7,2.7,0,0,0-.19.33C255.19,143.91,254.75,144.73,253.87,144.73Zm-.5-3.62a1.9,1.9,0,0,1,.66.74l0,.07.07-.09a2.74,2.74,0,0,1,1.81-.72,2.09,2.09,0,0,0,.55-.1s0,0,0-.07a2.22,2.22,0,0,1,.27-.48,1.64,1.64,0,0,1,1.43-.66,2.3,2.3,0,0,1,1.35.49,6.24,6.24,0,0,0,.14-1.15,10.4,10.4,0,0,1,.16-1.44,12.66,12.66,0,0,1,.82-2.27c.55-1.22,1-2.19.58-3.41a1.93,1.93,0,0,0-.27-.59,2.76,2.76,0,0,0-.73,1.65h0a5.74,5.74,0,0,1-2.23,4.06,7.66,7.66,0,0,1-.66.45,3.2,3.2,0,0,0-1,.81,2.93,2.93,0,0,0-.19.4,4.78,4.78,0,0,1-.32.64A4,4,0,0,1,253.37,141.11Zm5.89-8.11h0Z" fill="#093f68"></path><path d="M261.53,127.9a4.07,4.07,0,0,1,2.4.43,1.55,1.55,0,0,0,.64.23c.41,0,.72-.36,1-.71l.57-.81a.74.74,0,0,0-.14-1.22,6.75,6.75,0,0,0-2.64-1.58,2.56,2.56,0,0,0-2.76.89,2.85,2.85,0,0,0-.21,2.15.77.77,0,0,0,.28.52c.31.2.88,0,1,.37" fill="#70cc40"></path><path d="M264.59,129.56h0a2.14,2.14,0,0,1-1-.31,3.31,3.31,0,0,0-1.21-.37,1,1,0,0,1-1.39,0,1.84,1.84,0,0,1-.86-.27,1.76,1.76,0,0,1-.71-1.12,3.78,3.78,0,0,1,.35-2.91,3.54,3.54,0,0,1,3.85-1.33,7.62,7.62,0,0,1,3,1.79,1.94,1.94,0,0,1,.73,1.14,2,2,0,0,1-.42,1.41l-.57.81A2.24,2.24,0,0,1,264.59,129.56Zm-2.54-2.69a5.22,5.22,0,0,1,2.35.57l.13.07a2.34,2.34,0,0,0,.18-.23l.53-.76a5.76,5.76,0,0,0-2.16-1.31,1.58,1.58,0,0,0-1.67.46,1.8,1.8,0,0,0-.12,1.26l.11,0A4.63,4.63,0,0,1,262.05,126.87Z" fill="#093f68"></path><path d="M120.5,202.26h68.7a0,0,0,0,1,0,0v22.12a2,2,0,0,1-2,2H122.45a2,2,0,0,1-2-2V202.26A0,0,0,0,1,120.5,202.26Z" fill="#fff"></path><path d="M187.24,227.33H122.45a3,3,0,0,1-3-3V202.26a1,1,0,0,1,1-1h68.69a1,1,0,0,1,1,1v22.12A3,3,0,0,1,187.24,227.33ZM121.5,203.26v21.12a.94.94,0,0,0,1,1h64.79a.94.94,0,0,0,.95-1V203.26Z" fill="#093f68"></path><path d="M122.45,192h64.79a2,2,0,0,1,2,2v8.29a0,0,0,0,1,0,0H120.5a0,0,0,0,1,0,0V194A2,2,0,0,1,122.45,192Z" fill="#fff"></path><path d="M189.19,203.26H120.5a1,1,0,0,1-1-1V194a3,3,0,0,1,3-2.95h64.79a3,3,0,0,1,2.95,2.95v8.29A1,1,0,0,1,189.19,203.26Zm-67.69-2h66.69V194a.94.94,0,0,0-.95-.95H122.45a.94.94,0,0,0-1,.95Z" fill="#093f68"></path><path d="M148.29,216.52l-.45-1.18H144l-.45,1.21a4.49,4.49,0,0,1-.45.95.71.71,0,0,1-.61.25.93.93,0,0,1-.64-.26.83.83,0,0,1-.27-.6,1.44,1.44,0,0,1,.06-.4c0-.13.12-.32.21-.57l2.41-6.11c.07-.18.15-.39.25-.63a3,3,0,0,1,.31-.62,1.24,1.24,0,0,1,.43-.39,1.28,1.28,0,0,1,.65-.15,1.36,1.36,0,0,1,.67.15,1.24,1.24,0,0,1,.43.39,2.49,2.49,0,0,1,.27.51c.08.18.17.42.29.73l2.46,6.07a3.12,3.12,0,0,1,.29,1,.81.81,0,0,1-.28.6.89.89,0,0,1-.65.27.93.93,0,0,1-.39-.08.73.73,0,0,1-.27-.22,1.91,1.91,0,0,1-.23-.42C148.42,216.84,148.35,216.67,148.29,216.52Zm-3.77-2.61h2.81L145.91,210Z" fill="#093f68"></path><path d="M157.25,215.46a2,2,0,0,1-1.4,2,4.62,4.62,0,0,1-1.68.27,4.15,4.15,0,0,1-1.62-.29,2.34,2.34,0,0,1-1-.72,1.49,1.49,0,0,1-.32-.87.68.68,0,0,1,.2-.49.7.7,0,0,1,.52-.21.61.61,0,0,1,.43.13,1.5,1.5,0,0,1,.28.38,1.77,1.77,0,0,0,.65.7,1.88,1.88,0,0,0,1,.23,1.43,1.43,0,0,0,.86-.23.66.66,0,0,0,.34-.54.74.74,0,0,0-.35-.67,4.11,4.11,0,0,0-1.15-.4,8.89,8.89,0,0,1-1.48-.48,2.35,2.35,0,0,1-.9-.65,1.47,1.47,0,0,1-.34-1,1.76,1.76,0,0,1,.31-1,2.21,2.21,0,0,1,.93-.75,3.65,3.65,0,0,1,1.48-.28,4.58,4.58,0,0,1,1.22.15,3,3,0,0,1,.91.38,1.84,1.84,0,0,1,.55.52,1.08,1.08,0,0,1,.19.57.64.64,0,0,1-.21.49.77.77,0,0,1-.57.19.73.73,0,0,1-.46-.15,2.82,2.82,0,0,1-.43-.46,1.65,1.65,0,0,0-.47-.41,1.39,1.39,0,0,0-.73-.16,1.47,1.47,0,0,0-.79.2.61.61,0,0,0-.32.51.56.56,0,0,0,.23.45,1.84,1.84,0,0,0,.63.29c.26.08.62.17,1.08.29a6,6,0,0,1,1.33.47,2.22,2.22,0,0,1,.78.65A1.44,1.44,0,0,1,157.25,215.46Z" fill="#093f68"></path><path d="M159.62,209.81a.88.88,0,0,1-.63-.23.79.79,0,0,1-.26-.63.78.78,0,0,1,.27-.61.88.88,0,0,1,.62-.24,1,1,0,0,1,.6.21.81.81,0,0,1,.26.64.79.79,0,0,1-.25.63A.93.93,0,0,1,159.62,209.81Zm.86,1.81v5.06a1.11,1.11,0,0,1-.25.8.83.83,0,0,1-.63.27.78.78,0,0,1-.63-.28,1.15,1.15,0,0,1-.24-.79v-5a1.12,1.12,0,0,1,.24-.78.8.8,0,0,1,.63-.27.83.83,0,0,1,.63.27A1,1,0,0,1,160.48,211.62Z" fill="#093f68"></path><path d="M166.72,216.76a5.08,5.08,0,0,1-1.23.74,3.32,3.32,0,0,1-1.33.25,2.48,2.48,0,0,1-1.18-.27,1.84,1.84,0,0,1-.79-.72,1.9,1.9,0,0,1-.28-1,1.76,1.76,0,0,1,.46-1.22,2.22,2.22,0,0,1,1.25-.68l.83-.18,1.13-.24,1-.28a1.9,1.9,0,0,0-.28-1,1.25,1.25,0,0,0-1-.33,2,2,0,0,0-1,.19,1.55,1.55,0,0,0-.58.56c-.16.24-.27.41-.34.49a.57.57,0,0,1-.43.12.8.8,0,0,1-.51-.19.64.64,0,0,1-.21-.49,1.47,1.47,0,0,1,.33-.9,2.27,2.27,0,0,1,1-.72,4.72,4.72,0,0,1,1.72-.28,5,5,0,0,1,1.82.27,1.69,1.69,0,0,1,.93.87,3.75,3.75,0,0,1,.28,1.56c0,.42,0,.76,0,1.05s0,.61,0,1a3.52,3.52,0,0,0,.17,1,3,3,0,0,1,.16.69.64.64,0,0,1-.25.49.84.84,0,0,1-.58.22.77.77,0,0,1-.53-.25A3.82,3.82,0,0,1,166.72,216.76Zm-.11-2.53a9.11,9.11,0,0,1-1.12.29l-1,.24a1.28,1.28,0,0,0-.54.28.76.76,0,0,0-.26.6.88.88,0,0,0,.3.68,1.12,1.12,0,0,0,.79.28,2,2,0,0,0,1-.23,1.49,1.49,0,0,0,.65-.58,2.69,2.69,0,0,0,.24-1.31Z" fill="#093f68"></path><circle cx="127.78" cy="197.28" r="1.66" fill="#dfeaef"></circle><circle cx="133.32" cy="197.28" r="1.66" fill="#dfeaef"></circle><circle cx="138.87" cy="197.28" r="1.66" fill="#dfeaef"></circle><path d="M255.3,225.2a1,1,0,0,1-1-1v-1.87H228a1,1,0,0,1,0-2H255.3a1,1,0,0,1,1,1v2.87A1,1,0,0,1,255.3,225.2Z" fill="#093f68"></path><path d="M226.72,225.2a1,1,0,0,1-1-1v-6.84a1,1,0,0,1,2,0v6.84A1,1,0,0,1,226.72,225.2Z" fill="#093f68"></path><path d="M240.37,225.82a1,1,0,0,1-1-1v-3.49a1,1,0,0,1,2,0v3.49A1,1,0,0,1,240.37,225.82Z" fill="#093f68"></path><path d="M160.81,92.51H141.24a1,1,0,0,1,0-2h19.57a1,1,0,0,1,0,2Z" fill="#093f68"></path></g></svg>