<svg id="Layer_2" data-name="Layer 2" xmlns="http://www.w3.org/2000/svg" viewBox="0 0 400 300" width="406" height="306" class="illustration styles_illustrationTablet__1DWOa"><title>ZZ</title><path d="M203.66,282l149.21-88.19c4.75-2.67,8.83-7,4.19-9.92L207.31,97.6c-2.25-1.39-5.66-2.3-7.94-1L42.74,187.52c-4.75,2.76-5.6,10.46-.85,13.22L184,281.86A19.84,19.84,0,0,0,203.66,282Z" fill="#9781e2"></path><path d="M261.31,201.92c-.41,3.39-.82,16.79-18.95,22.86s-16.48-11.23-38.72-7.11-9.56,24.71-21.87,37.48S121.14,246,121.14,246L184,281.86s7.69,7.22,19.67.14,8.22-32.2,21.82-34.26,41.91,4.82,47.32-41.66" fill="#f77f26"></path><path d="M177.08,268.19a18.91,18.91,0,0,0,11.79-10.57c2.55-5.76,1.19-12,1-18.06-.17-5.48.24-11.76,4.32-15.89,5.11-5.17,12.36-3.9,18.16-.77,6.21,3.35,11.5,7.4,18.74,8.28a28.55,28.55,0,0,0,17-3.22c9.66-5.28,14.61-15.09,14.58-25.54l-1.4-.51c-.41,3.39-.82,16.79-18.95,22.86s-16.48-11.23-38.72-7.11-9.56,24.71-21.87,37.48S121.14,246,121.14,246L163,269.91A42,42,0,0,0,177.08,268.19Z" fill="#db5f0b"></path><polyline points="178.91 213.27 121.14 245.98 46.4 203.32 101.64 170.46" fill="#7d6bd1"></polyline><path d="M93.22,94.46l0,0h0Z" fill="#68e1fd"></path><path d="M81.89,108.66l-.24.39a1.38,1.38,0,0,1,.54-.13C82.18,108.67,82,108.64,81.89,108.66Z" fill="#68e1fd"></path><path d="M80.91,111.8c-.19-.62-.42-1.16.33-1.27.31-.05.49-.33.72-.56s0-.37,0-.59l-.58.28a1,1,0,0,1,0-.17q-.57,1-1.11,1.93A6.21,6.21,0,0,0,80.91,111.8Z" fill="#68e1fd"></path><path d="M96.58,192.56l.77-4a13.68,13.68,0,0,0,.34-1.8,10,10,0,0,0-.19-1.55,4.71,4.71,0,0,0-.17-1.37c-.18-.29-.78-.54-1-.73L94.73,182a3.09,3.09,0,0,1-1-1.33l-1.92-3.59-1.58-3c-.32-.61.23-1.73.37-2.36a4.21,4.21,0,0,1,.31-1.26l.9-1.16c.67-.86,1.25-1.36,1.07-2.57,0-.27-.21-.42,0-.63,0,0-.07-.42,0-.56.08-.37-.73-.71-.65-1.06s.09-.39-.28-.59-.26-.13-.53,0a2.81,2.81,0,0,0-.53.43c-.09.09.17.4.23.5-.52.22-.49.28-.73-.28-.11.31-.62-.21-.91-.27s-.25.14-.34.08l-.47-.36c-.32-.24-1-.55-1.19-.9s-.09-.76-.34-1c-.61-.71-1-1.34-1.84-1.58-.66-.18-1.77-.23-2.29-.75L81.6,158.4c-.3-.3-.73,0-1.09.13-.82.25-1.65-.34-2.43-.66l-1.89-.76a2.39,2.39,0,0,1-.73-.3l-1.23-1.25c-.38-.38-.15-.61,0-1.15.1-.35-.55-1-.73-1.31a3.89,3.89,0,0,0-.65-.78l-1.32-1.23c-.1-.09,0-.38,0-.51s-.22-.35-.29-.44l-.27-.35q0,1.25.12,2.48c.17.15.38.38.35.59s-.16.32-.29.3A73.89,73.89,0,0,0,95,201.92c.09-.92.19-1.83.36-2.72Z" fill="#68e1fd"></path><path d="M92.56,136.39c.47.45,1.47-.42,1-.62l.43-.37c-.29.12-.9.58-1.11.49-.37-.16-.84.06-1.22.14C90.81,137.08,92.23,136.07,92.56,136.39Z" fill="#68e1fd"></path><path d="M90.56,137.08a.78.78,0,0,0-.77.28c-.21.18-.35.39-.64.25a.51.51,0,0,1,.39-.38c-.1-.16-.12,0-.18-.25a5.18,5.18,0,0,0-.56.86l.45.12-.1.14c.61.06.87-.24,1.39-.43a4.81,4.81,0,0,0,1.32-.77c0-.15,0-.23-.1-.32C91.76,136.86,90.84,137.09,90.56,137.08Z" fill="#68e1fd"></path><path d="M79.45,128.19c0,.07,0,.14,0,.21a.23.23,0,0,0,.07-.13c.22.08.15.36.13.57.06-.12.17-.26.32-.18s-.08.33-.12.44a1.1,1.1,0,0,1,.25-.13.72.72,0,0,0-.21.81c.09.29.27,0,.25-.21.05,0,.12,0,.17.06-.12-.26.1-.54-.08-.69a2.1,2.1,0,0,1-.37-.75c-.13-.35-.8-1.8-.51-2l-.07,0c-.1.12-.12.1-.26.12a.41.41,0,0,1,.28-.31l-.15-.13c-.21.38-.21.5.1.72-.24-.11-.69-.33-.78,0-.17.64-.07.51.4.64-.54.12.12.76.26,1l.19.11C79.31,128.15,79.28,128.28,79.45,128.19Z" fill="#68e1fd"></path><path d="M218.08,154.82c0,.2,0,.62-.31.43-.1,0-.2-.52-.25-.64.12,0,.22-.12.34-.15a1.22,1.22,0,0,0-1.41-.17c-.34.27-1.16.68-1.3,1.13,0,.14-.31.73-.24.84l.61,1c.29.47.65.88,1,1.31s.65.72.68,1.41c0,.42.25,1.42-.06,1.71A33.84,33.84,0,0,1,214.4,164c-.31-.33.13-.81-.1-1.05l-.92-1a2.32,2.32,0,0,0-1.72-1l.07-.54c-.73,0-.59.13-.65.92a5.15,5.15,0,0,1-.43,1.35,1.43,1.43,0,0,0,0,.6c0,.38,0,.32.38.3.18,0,.4,1.15.47,1.36s.79.67,1.06.88a3,3,0,0,1,.79.89c.16.41,0,1,.09,1.44a10.1,10.1,0,0,0,.49,1.24,3.37,3.37,0,0,1-1.49-.89c-.47-.37-.5-.58-.7-1.19a5.82,5.82,0,0,0-.56-1.7l-1.31-1.4c-.2-.21.08-1.36.11-1.68a12.18,12.18,0,0,0-.12-1.85,13.58,13.58,0,0,0-.8-3.29l-.7.86c-.3.36-.27.36-.72.25s-.43-.07-.36-.58c0-.22.21-.8.13-1a4.15,4.15,0,0,0-1.07-1.83,4.27,4.27,0,0,1-1-1.75c-.26.18-.63.58-.94.62l-1.63.23c-.07,0-.41,0-.47.06s.07.47,0,.58l-.8.82L199.25,158a4.12,4.12,0,0,1-1.09.54c-.4.2-.25.5-.25,1a5.65,5.65,0,0,1,0,1.41c-.1.37-.4,1-.3,1.33a2.57,2.57,0,0,0,.61,1.3,4.59,4.59,0,0,1,.68,1.28c.37.86-1.1,1.62-1.2.45a10.34,10.34,0,0,1,0-1.51c0-.51-.16-.58-.5-.94,0,.35,0,.72-.26.91l-.92.6c-.85-1.62-1.58-3.28-2.32-5a8.25,8.25,0,0,1-.62-1.42,6.51,6.51,0,0,1,0-1.13q0-1.61-.1-3.22l-.68.93c-.23.31-.25.27-.63.26s-.91-.82-1.2-1.14c.3-.07.94,0,1-.44a2,2,0,0,1-.54,0,6.22,6.22,0,0,1-1.32-.76c-.27-.16-.45-.86-.59-1.16s-2.43.18-2.81.23a7.73,7.73,0,0,1-2.53-.42c-.36-.08-.78,0-1-.41-.33-.66-.25-.85-.91-.61a2.46,2.46,0,0,1-1.47,0c-.36-.06-.59-.5-.92-.65a1.43,1.43,0,0,1-.94-1c-.19-.42-.27-1-.71-1-.76-.11-.76-.08-1.28.54-.18.22.45,1,.59,1.2.48.79.88,1.63,1.31,2.45.06-.37.12-.74.18-1.11a3.54,3.54,0,0,1,.27,1.76,4.74,4.74,0,0,0,2-.25,8.11,8.11,0,0,0,1.35-1.53c0,.47-.08,1.23.31,1.49a4.89,4.89,0,0,0,.71.48c.22.1.48,0,.6.25s.25.65.44.68.2.29.17.63-.73.93-.94,1.18c0-.11-.1-.21-.11-.32a2.26,2.26,0,0,0-.29,1.09c0,.4-.15.36-.49.53l-1,.5c-.21.1-.2.68-.4.78s-.42-.13-.59-.06l-.76.33c-.35.16-.3.63-.62.74l-1.73.62c-.17.06-.2.15-.31.32s-.32.19-.56.24c-.5.1-1,.26-1.48.39s-.44.51-.84.51c-.62,0-.67.14-.79-.5l-.36-1.95a7.44,7.44,0,0,0-1.2-2.55c-.31-.52-.35-.61-.89-.81-.31-.12-.3-1-.36-1.38a5.32,5.32,0,0,0-.62-1.38c-.13-.26-.44-.39-.6-.68l-1-1.85c-.17-.3-.3-.83-.71-.73,0-.38.1-.76.15-1.14l-.45,1.36a6.27,6.27,0,0,1-1.12-1.7c-.37.46.28,1.24.49,1.66l1.26,2.58c.25.51.16,1.09.54,1.5.16.17.56.45.6.7.06.44.13.87.2,1.31,0,.25,0,.74.21.92a4.84,4.84,0,0,1,.77.75,11.19,11.19,0,0,1,.75,2c.08.22.69.18.84.36l.7.82c.39.45,1.18,1,.57,1.54.41.13.86,1,1.19.89l3.38-.91c.21-.05.81-.31,1,0s-.29,1.27-.34,1.5a11,11,0,0,1-1.28,2.54,8.74,8.74,0,0,1-1.18,1.95,25.79,25.79,0,0,0-4,4.51c-.23.38-1.68,2.37-1.45,2.73a1.72,1.72,0,0,1,.37,1.48,1.37,1.37,0,0,0,.39,1.27c.61.83.4,2.11.45,3.15a2.35,2.35,0,0,1-1.21,2c-.34.17-1,.33-1.3.63l-1,1.19c-.3.35-.66.51-.47,1s.59,1,.55,1.33a5.23,5.23,0,0,1-.18,1.61c-.17.28-1,.49-1.32.63-.48.23-.37.45-.43,1a4.44,4.44,0,0,1-.15,1.42,24.21,24.21,0,0,1-1.74,2.46,14.33,14.33,0,0,1-1.16,1c-.22.19-.63.72-.91.78l-3,.64-1.39.29c-.22,0-.68-.54-.84-.7-.55-.49-.53-.48-.45-1.27,0-.3-.31-.84-.41-1.11l-.71-1.76c-.14-.35-.57-.62-.83-.87s-.17-1-.21-1.23l-.31-2a8.18,8.18,0,0,0-1-2.41l-.77-1.57c-.11-.23,0-.66.08-.9a9,9,0,0,1,.75-3.22c.54-1,.21-1.71,0-2.7l-.75-3.21c-.08-.32-.51-.71-.7-1l-1.09-1.46c-.2-.26-.06-.6,0-.93.08-.67.15-1.33.23-2s.1-.6-.23-1.06-.36-.57-.95-.53c-.34,0-1,.23-1.27-.07l-1-1.28a7.21,7.21,0,0,0-2.54.29l-1.51.77c-.39.2-.57.1-1,0a1.76,1.76,0,0,0-1.17-.1l-1.65.58c-.26.09-.56-.26-.77-.42l-1.58-1.14a3.92,3.92,0,0,1-1.41-1.43l-2-3.51-.65-1.13c-.1-.18.26-.83.32-1s.46-.88.39-1.22c-.12-.56-.25-1.12-.38-1.68a5.52,5.52,0,0,1-.32-1.43,3.05,3.05,0,0,1,.43-.78l1.94-3.51a4.15,4.15,0,0,1,1.78-1.56c.4-.26.59-.26.66-.76l.28-1.86c.11-.73,1.57-.86,1.85-1.58.2-.5.29-1.19.79-1.33.13,0,.49.64.89.55.18,0,.59-.22.76-.13s.46.33.55.28a13.61,13.61,0,0,1,1.19-.71,9.24,9.24,0,0,1,2.5-.78,2.41,2.41,0,0,1,.77-.08,2,2,0,0,0,.61.2c.21,0,.4-.25.61-.29a2.87,2.87,0,0,1,.57,0,2.11,2.11,0,0,0,1.4-.16c.39-.23.74.07,1.14.24-.29.65-.35.67,0,1.3.16.28-.44.71-.64.93.32.29.71.81,1.11.92l2.07.55c.53.14.38.73.91,1s.9.12,1.32.42c.6.42.92.53,1.31-.23.09-.18-.2-.45-.11-.62s.23-.56.37-.6a2.6,2.6,0,0,1,1.67-.11c.15,0,0,.35.21.39l.93.19c.25.05.26.17.39.42s.31-.16.42-.12l1.49.44a1.13,1.13,0,0,0,1.14-.09c.57-.28.63-.37,1.2-.09a1.45,1.45,0,0,0,2-.63c.19-.54,1.13-2.19.76-2.74-.24-.34.28-1.09.16-1.22s-.33.09-.44.18-.33-.18-.47-.15-.35.44-.53.53a2.28,2.28,0,0,1-.69,0c-.43,0-.62-.45-1-.52s-.48-.2-.58.09-.11.33-.45.39-.87-.39-1.14-.55c-.49-.28-1.34-1.71-.81-2.31l-.53.06c-.08-.59.69-.75,1-.76a2.63,2.63,0,0,0,1.47-.33l-.5-.26c.1-.29.72-.16,1-.13.51.07.54-.07.95-.34a1.86,1.86,0,0,1,1-.42,2.79,2.79,0,0,0,1.19,0c-.09.17.07.32.25.4s.18-.24.46.17c.11.15.88.26,1.13.37.42.17.69-.08,1.11,0a1.76,1.76,0,0,0,1.23-.38c.34-.21.15-.81-.06-1.05s-.68-.41-1-.72-.63-.75-1.1-.81a4.59,4.59,0,0,1-.47-.28c-.19-.13-.36-.28-.55-.41l.15-.21.52.1c-.16-.56.2-.73.61-.72-.19-.16-.46-.31-.56-.54l.52,0c-.13-.4.39-.11.47-.35s-.33-.16-.45-.14a1.66,1.66,0,0,0-1.21.49v-.15a1.83,1.83,0,0,0-1,.55l.09-.19c-.49-.06-.27.56-.07.8s.64.15,1.05.15c-.29.52-.62.13-.94.3s-1,.76-1.34.47c.22-.61-.06-.53-.57-.78.25-.13,1.21-.48.56-.71a1.84,1.84,0,0,0-.65,0c-.15,0-.36-.23-.49-.32.27,0,.61.16.75-.14-.29.15-1-.19-1.2,0s-.75.65-.79.94a2.56,2.56,0,0,1-.11.71c-.09.13-.47.12-.51.29-.11.53-.08.92-.51,1.2s-.32.76-.12,1.15.8.56.77.68c-.11.34-.73-.09-.95.12l-1,.92c0-.36.17-.43.41-.58-.19-.08-.41-.08-.63-.17a6.1,6.1,0,0,0-.85-.13c-.15,0-.35.09-.49.14s.05.31,0,.36c-.27.23-.46,0-.7-.14-.25.28,0,.55.17.81s.24.36-.08.68c.42.29.87.39.78,1-.25-.19-.42-.43-.68-.1.32.06.35.27.12.45s-.12.3,0,.6c-.28-.05-.49,0-.61-.29s-.23-.17-.44,0c-.22-.73-.37-.8.2-1.26-.53,0-.53-.07-.85-.54-.18-.27-.31-.72-.55-.92-.42-.34-.27-.6-.21-1.17s-.13-.52-.52-.84a4.17,4.17,0,0,0-1.75-1.07c-.16,0-.54-.52-.6-.69a1.39,1.39,0,0,0-.59-.95c-.18.54-.39.27-.46-.12s0-.28-.41-.17-.65.15-.39.62c.09.16-.23.55.06.77a3.88,3.88,0,0,1,.81.61c.18.26.15.66.39.87s.44.45.8.47.65,0,.28.3c.34.28,2,1,1.6,1.56-.17-.09-.66-.76-.86-.57a.76.76,0,0,0-.3.52c-.05.25.1.23.28.36.49.38-.34.49-.31.72s-.62.91-.61.37a.69.69,0,0,0-.24.93c.17.33-.51.44-.59.17-.15-.49-1.77-.43-1.13-1.13a3,3,0,0,0,2-.06c.21-.14,0-.29.25-.41s-.23-1.09-.34-1.1-.46,0-.42-.23a.26.26,0,0,0-.4-.26c0-.22-.44-.58-.64-.56-.35,0-.54-.3-.79-.55-.45-.43-1.05-.65-1.19-1.25s-.13-.6-.6-.84c-.25-.13-.55-.23-.73,0a6.13,6.13,0,0,1-1.57,1l-1.27-.42c-.22-.07-.55.39-.72.54s.17.72,0,1-.73.37-1,.49c-.69.36-.9.91-1.31,1.62-.12.21.41.4.15.74s-.57.56-.45.82c-.15,0-.5.05-.59.19s-.24.52-.38.53a9.5,9.5,0,0,1-1.32,0c-.39,0-.62.46-.93.56s-.78-.53-.43-.77c-.34.16-.5-.41-.93-.17s-.59-.1-.9.13a2.81,2.81,0,0,0,.1-.76c0-.14,0-.28,0-.43s-.16,0-.21-.05c-.26-.4-.07-.49,0-.94s.42-1.1.25-1.52a2.12,2.12,0,0,1,0-1.23c-.24.19-.4-.17-.3-.4s.54-.21.69-.24a.92.92,0,0,0-.07-.14c.41-.37.61.13,1,0a1.71,1.71,0,0,1,1.2,0c.39.12.71-.07,1.07.06a2.21,2.21,0,0,0,1,.1c.69-.15.6-1.48.59-2s.09-.68-.4-.84c-.28-.09-.32-.59-.26-.75-.26.06-.16-.1-.27-.15s-.42-.07-.47-.11c-.21-.16-.29-.27-.55-.26a.37.37,0,0,1-.43-.21c.07,0,.14-.06.22-.07a.43.43,0,0,1-.28-.41,1.6,1.6,0,0,0,.86-.15c.52-.37.22.29.56.21.12,0,.77-.13.74-.31a3,3,0,0,0-.27-.81c.14,0,.39,0,.44.12s0,.23.24.25a1.46,1.46,0,0,0,.92-.12c-.09,0-.17-.07-.26-.08a1.94,1.94,0,0,1,.84-.5c.4-.2,0-.46.18-.78.09-.14.71-.28.89-.37a1.41,1.41,0,0,1,.85-.11c-.12,0-.45-.08-.46-.22s.31-.06.34-.09,0-.21.06-.29a1.71,1.71,0,0,0,.34-.81c0-.17.32-.13.43-.26.36-.43.72-.18,1.14-.32.06,0,0-.22.11-.24l.35-.05a2.07,2.07,0,0,1,.56.06c-.06-.34.22-.25.46-.28-.13,0-.49-.35-.31-.49s0-.21-.06-.51.09-.49-.18-.71-.16-.29-.18-.59c0-.49.08-1,.59-1.06s.72-.43,1.09-.62c-.26.38-.4,1.2.17,1.34-.33.53-1,.71-.85,1.41.09.52.57,1,1.05.73l-.19.42c.47.28.88-.4,1.28-.44a.86.86,0,0,1,.59.39c.08.28.32.33.56.46a.78.78,0,0,0,0-.26l-.39,0c.29-.18,1.31-.2,1.51-.47a1.4,1.4,0,0,1,1.71-.32s-.2-.08-.29-.12c0,.44.61.51.84.24.09-.1.12-.36.18-.42s.18,0,.23-.06.35-.21.46-.39a1.17,1.17,0,0,1-.29.42c.75.36.3-1,.28-1.35a.94.94,0,0,1,.23-.7c.16-.19,0-.49.29-.69.67-.5.83.6,1.32.64.27,0,.47-.37.43-.61s.1-.78.06-.81-.21.12-.27.08a3.36,3.36,0,0,1-.3-.32c-.07-.08-.21-.64-.14-.67a3.23,3.23,0,0,1,1.55-.43l1.15.14c.52.07.08-.13.39-.33s.49,0,.73-.19.54,0,.72.07c-.11-.35-.81-.48-1.12-.61.05-.08.05-.22.11-.29-1.07.21-2.16.47-3.25.68-.11,0-.56.19-.63.07a1,1,0,0,0-.62-.55c-.43-.17-.39-.14-.31-.63a1.64,1.64,0,0,0,0-.82,3.29,3.29,0,0,1-.25-1c0-.21.48-.54.62-.7.35-.4.81-.65,1.15-1.06.17-.21.43-.7.66-.82s.55.11.42-.32a1.07,1.07,0,0,0-1.09-.81c-.74,0-.8-.05-1.32.52-.33.37-.5.66-.23,1.13s-1.77,1.46-1.94,1.68c-.5.63-1.35,1.65-.81,2.59.23.4.9.39,1.11.85s-.41.61-.65.82c-.42.36-.74.5-.82,1.07a7,7,0,0,1-.23,1.56c-.25.58-.68.58-1.18.68-.2,0-.19.28-.24.48s-.21.17-.44.18-.39.11-.44-.28a1.74,1.74,0,0,1-.06-.72c.15-.41-.44-.89-.67-1.21-.1-.13,0-.39-.11-.54a3.4,3.4,0,0,1-.31-.64c0-.21.14-.57-.1-.62s-.23-.39-.3-.6c-.14.55-.25.6-.68.92s-.55.55-.86.74c-.48.29-1.71.14-1.73-.61,0-.92-.39-1.81-.34-2.73s.09-.79.66-1.27a5,5,0,0,1,1-.61,3.33,3.33,0,0,0,1.17-.74c.31-.34.61-.66.95-1a10.69,10.69,0,0,0,1.55-2.36,15.9,15.9,0,0,1,1.81-2.14,6.56,6.56,0,0,1,2-1.83,22.19,22.19,0,0,1,2.79-1c.37-.11.56-.7.89-.9a2,2,0,0,1,1.15-.2,2.68,2.68,0,0,0-.82,1.39c.41-.08.77-.78,1-1.11q.07.32.12.63l.56-.75c.08-.11.56,0,.7,0l-.35.58c.5.38.21-.54.61-.38l1.28.5c.36.14-.31.48-.44.51a3.92,3.92,0,0,1-1-.1c.16.29.49.19.63.53,0,.08.47,0,.62,0,.37,0,.71.19,1-.13.11-.16.56.18.72.26-.09.34-.41.12-.65.06-.1.7,1.11.43,1.44.44a3,3,0,0,1,1.62.55,8.81,8.81,0,0,0,1.7.8,1.84,1.84,0,0,1,1.25,1c.18.53.15.52-.15,1-.19.28-.25.46-.54.56a2.23,2.23,0,0,1-1.56.1,14.47,14.47,0,0,1-3.42-1.16c.34.34,1.3,1,1.3,1.49s-.09,1.55.38,1.75,1.2.83,1.72.62c.3-.13.14-.61-.16-.61s-.43-.28-.64-.54c.48-.44.51-.34,1.1-.13l1.44.5a7.5,7.5,0,0,1-.37-1.09L172,113c.19-.13.54-.5.77-.42l1.15.34c0-.22.23-.62.15-.83s-.39-.66-.42-.59c.09-.35.17-.7.25-1.05,0-.12-.38-.5-.46-.6l1.39.18c.35,0,.58.57.79.86-.23,0-.91,0-1,.17s.17.57.39.86.6.11,1,.06.12-.39.36-.7c.11-.14.5-.23.65-.3l1.25-.57,1.91-.87c.18.6.18.59.74.74.36.09.55-.59.87-.56a1.81,1.81,0,0,0,1.18-.08,1.34,1.34,0,0,1,1.16-.1l-.25.42c.59.18.56.2,1-.32s.13-.53-.23-1a4,4,0,0,1,2.85.1l1.71.68a6.46,6.46,0,0,1,1.18.9c0-.22.24-.94.07-1.06l-1.26-.94c-.28-.2.17-.79.29-1.08s-.55-.49-.74-.61l1.24-1c.28-.23.4-1,.52-1.38s2.12,0,2.58.07l-.53,1.45c-.09.25.33.84.45,1.07.21.43-.48,2.32-.14,2.55s.86.32.65.84c-.12.28-.26,1-.52,1.11l-1.33.82c-.19.12-.79-.09-1-.11a2.06,2.06,0,0,0,2,.62,6,6,0,0,0,1.74-1.5c.5-.51-.79-1.28.27-1.6.2-.06.78-.37.94-.19l.81.94c-.06-.41,0-.8-.34-1a1,1,0,0,0-1-.24c-.12,0-1.16.25-1.19.15-.08-.28-.34-.79-.21-1.06s.55-.8.32-1.13-.74-.81-.55-1.11.63-.46,1-.63,0-.84,0-1c.23-.06.67.55.53.8-.31.59-.27.58.05,1.16.22.4,1.85.4,2.27.43a18.24,18.24,0,0,1-1.74-.72c-.66-.31.49-.81.75-.89a2.38,2.38,0,0,1,1.92.24,4.28,4.28,0,0,1,.69.43c.21.14.52,0,.76,0a3.08,3.08,0,0,0-.32-.86c-.15-.15-.72-.12-.92-.16s-.32-1.22-.37-1.53l2.67-.27,1.51-.15c.33,0,.2-.39.21-.73,0-.66,0-.67.48-1l0,0A74.08,74.08,0,0,0,100,88.53a3.05,3.05,0,0,1,1.1,0,15.27,15.27,0,0,1,2.5.66,7.16,7.16,0,0,1-2.18,1.1l-2.88.22,1.3.22-2.24.67,3.68-.74c0,.6-1.66,1-2.15,1.32a5.28,5.28,0,0,1-1.28.79L96.45,93l.9,0a2.7,2.7,0,0,1-.92.72c-.28.15-.67-.07-1-.15l.14.44c-.79.16-1.58.24-2.37.33l0,0c.44,0,1.54-.08,1.44.42H93.29c.33.09,1.37.12,1.33.61l-1.19.15.68.37a1.42,1.42,0,0,1-.9.67c-.24.08-.78-.27-.92-.15s.44.35,0,.69c-.13.12-.85.64-.71.86s.17.17.42,0,.26,0,.48.1.1.39.12.54-.31.17-.41.21-.26-.14-.3-.12-.17.26-.29.31l-1.19.36c.09-.35.2-.47-.07-.69s-.34.23-.62-.07c0,.43-.43.33-.67.11l-1,1.18.09,0c.37-.13.67,0,1-.07a2.4,2.4,0,0,1,2.26.7L91,101a1,1,0,0,1,.58.23c-.36.12-.48.08-.6.47,0,.18-.81.19-1,.22a1.4,1.4,0,0,1-.74-.15c-.31-.11-.08-.58-.5-.57,0,.17.06.34.09.51-.31,0-.94.34-1-.11-.12.45-.68.33-.9,0,0,.09,0,.2,0,.3h-.31q-.57.73-1.11,1.47a2.18,2.18,0,0,1,.46-.27,3,3,0,0,1,1.89-.23l-.15.58a7.79,7.79,0,0,0,1.53-.52,2.08,2.08,0,0,1,.75,0c.28,0,.22.39.37.6s.28.19.43.49.15.43-.07.84.1.34.3.14c.36-.36.33-.34.76-.08.12.07.47-.37.58-.47s.6-.11.8-.14a2.14,2.14,0,0,1,1.39.54c.25.24.87,1.22,1.13,1.13.42-.15,1.2-.24,1.38.36-.15.09-.81.37-.75.55.15.4.63.08.77-.24s1.58.53,1.86.67c-.12.39-.66.4-1,.5.25,0,.53,0,.44.36.26-.13.62-.21.68-.57.24.16.62.33.62.69a1.25,1.25,0,0,0-1,.26,1.34,1.34,0,0,0,.69.18c.44-.08.41-.09.57.37l-.85-.17.09.57-.61.07c.71.32,1.44.6,2.17.88a1.53,1.53,0,0,1,.73.54c.31.34.51.32,1,.39l-.29.45a3.31,3.31,0,0,1,1.1,0c.45.2.28.48.22,1-.22,0-.57-.19-.72,0l.52.25c-.52.27-.72.54-1.21.2a2.84,2.84,0,0,1,0,1.16,3.21,3.21,0,0,1-1.3-1c.26-.12.66-.16.54-.57-.17.06-.53.28-.7.25s-.44-.48-.65-.59-.42-.17-.57.06.17.31.19.68l-.56-.07.18.57c.28-.11.35-.24.45.08l.26.81c.09-.42.29-.23.55-.12s.28.23.36.61.34.21.48.44a3.17,3.17,0,0,1,.11.89l-.34-.45c-.2.35.31.45.16.82-.08,0-.18,0-.25-.07l.16.42c-.14,0-.52-.45-.75-.59l-1.23-.77c.05.11.06.24.11.35l-.72-.32.41.71c.1.17.47.14.63.25l.75.53c.25.17.15.29.11.62l-2-.52c-.25-.06-.23-.37-.38-.41l-1-.26.11-.18a1.46,1.46,0,0,1-.85-.32l.54-.27c-.31-.17-.66-.14-.86-.43-.35-.53-.34-.86-.87-.51,0-.23-.13-.35-.34-.32,0,.1-.05.22,0,.32-.31-.07-.64-.27-.89,0s-.67.16-1,.18-.58-.42-.46-.63.6-.37.54-.71a4.12,4.12,0,0,0,1.55.11c.12,0,.87-.15.92-.26s-.43-.52-.56-.62l1.24-1.25c.11-.11.3-.19.21-.34l-.52-1c-.27-.49-.82-.36-1.07-.79s-.17-.31-.5-.18l-.77.29c0-.64.11-.55.67-.72-.3-.25-1-1.1-1.32-.72,0-.17-.07-.34-.1-.51s-.31,0-.41,0c-.31-.14-.27-.77-.69-.37.34.1.39.27.54.6a3.66,3.66,0,0,1-2.11-.22l.61.57c-.27.1-.34-.25-.58-.27-.09,0-.15.25-.26.21l-.49-.19a5.63,5.63,0,0,0-1.65-.09,1.74,1.74,0,0,1-.75-.2c-.3-.27.1-.42-.45-.37-.24,0-.38.26-.68.08a2.34,2.34,0,0,1-1-.92l1.57.14c-.52-.56-1-.48-1.72-.55-.08,0-.15-.79-.18-.9s.28-.77.37-1l0-.08q-1,1.44-2,2.92c.22.24.49.48.64.66l-.91.61c.3.12.54.32.82.12s.53,0,.82.19l-.43.3c.29.25.45.26.35.65s-.16.48.19.7a1.5,1.5,0,0,0,.36-.82c0-.14.13-.72.39-.56s.72.31.76.51.29.72-.13.86c0-.08,0-.17,0-.25-.85.47,1,2.17,1.12,1.25,0-.26,0-.41.17-.58s.37-.25.37-.39c0-.69,0-.65.59-.91-.23-.36-.45-.54-.36-1s.32-.32.7-.26.93,0,1.11.22a1.28,1.28,0,0,0,.9.54c-.2.36.12.59-.09.84s-.58.1-.78.12a2.81,2.81,0,0,0,.58,1c.31.29.45.52.11.94a4.11,4.11,0,0,1-1,.64c-.29.18-.49-.2-.72-.42l.35.8-.55-.29c0,.07,0,.15.07.22l-.56-.13c-.12,0,0-.35-.15-.35-.28,0-.67-.11-.82.22l.52.31a2.23,2.23,0,0,1-.63.79c-.42.23-.57,0-1-.19a4.27,4.27,0,0,0-2-.35l1.53.77a4.92,4.92,0,0,0,1.4.18c-.16.28-.44,1-.71,1.16s-.37.24-.55.23-.42-.1-.61,0c-.57.4-.61.43-1.25.23-.4-.12-.81-.22-1.22-.33l.81.37c-.06.05-.1.13-.16.18a.9.9,0,0,1,.89.12c.2.12.52.42.18.57a1.57,1.57,0,0,1-.93.15c-.13,0-.34.45-.41.56a5.66,5.66,0,0,0-1,1.68c-.15.7-.29,1.4-.44,2.1.28.07.9.07,1.11.26s.37,1,.49,1.34c.2.57.33.36.88.24.29-.06.61.14.88.23a7.9,7.9,0,0,1,2.13,1.09c.23.16.67.64.94.66l1.22.13c.14,0,.92,0,.92.17,0,.57,0,1.13-.07,1.69,0,.79.75,1.38,1.21,2s1.39-.47,1.32-1l-.25-1.51c0-.27-.4-.62-.54-.85.49-.32,1.45-.68,1.8-1.17a2.08,2.08,0,0,0,0-2,6,6,0,0,1-.76-.81c-.31-.44-.41-.4,0-.76s.47-.33.31-.91c-.09-.31-.28-.68-.18-1a1.53,1.53,0,0,0,0-1.25c-.11-.36.12-.48.48-.53.67-.08,1.29.5,1.95.19.42-.19.53,0,.91.3.18.13.71.36.77.61s.3.65.71.59a1.4,1.4,0,0,1,.86.26c-.18.3-.28.38-.22.72a1.61,1.61,0,0,1,0,.93c.09,0,.18,0,.27,0-.16.2-.62.53-.37.76.43-1.28,2,1.51,2.29-.21.07.08.2.09.27.16.17-.37.45-.72.38-1.14s.37-.86.66-.79q-.06.23-.1.46c.67,0,1.11,1.4,1.43,1.95.18.31.71.92.74,1.27,0,.19-.32.46-.29.64s.35.28.41.33a2.46,2.46,0,0,1,.55.44c.12.2-.08.42.19.44a1.82,1.82,0,0,1,1.16.33c.29.2.87.48.24.57a7,7,0,0,0-1.06.31c.21.08.49-.08.72-.15-.16.28-.66.31-.94.4s-.18.63,0,.44a.72.72,0,0,1,.41-.26c.17-.06.1-.16.2-.21a2,2,0,0,1,.82-.23.42.42,0,0,1-.3-.16c.2,0,.6,0,.69.26s-.24.29,0,.53c.23-.43.51-.2.87-.08s.06.65,0,.81c-.12.32.25.43,0,.8a2.21,2.21,0,0,1-.79.49c-.28.07-.55,0-.87.11a1.54,1.54,0,0,0-.68.56,1.58,1.58,0,0,1-1.59.53,12.46,12.46,0,0,0-2.1,0c-.63,0-1.29-.18-1.46.67,0,.22-.66.29-.83.41a5.47,5.47,0,0,0-.75.8,9.29,9.29,0,0,1-1.15,1.36c.85-.41,1.31-1.31,2.16-1.73.58-.28,2.17-1.17,2.58-.13-.07,0-.15,0-.22-.08.43.29-.15.51-.37.69s-.5-.18-.82,0c.13,0,.44.38.46.37a1,1,0,0,1,.58,0,1,1,0,0,1-.38.59c.1,0,.22,0,.32,0-.16.45.31.81.65.89l-.11.09c.49.24,1,.44,1.4.13l0,.23a.67.67,0,0,0,.29-.09c-.29-.38.3-.92.5-1.24.39.14.17.48.08.78.28-.22.68.21.44.32a1.69,1.69,0,0,1-1,.27c.08.06.12.18.19.25l-1.21.49a1.46,1.46,0,0,0-.45.22c-.17.15-.22-.2-.37-.08s-.52.65-.81.93-.39-.08-.51-.12c-.42-.61.6-1.13.94-1.38s.13,0,.24.13.37-.08.58-.26c-.27,0-.61-.11-.84.06a1,1,0,0,1,.22-.43c-.32-.08-.71.33-1,.5s-.17-.14-.36.09-.33,0-.47,0c.2.65-.9.42-1.05.71l-.13-.14c-.17.35-.33.39-.66.51s-.23.24-.32.48-.76,1.5.1,1.41l-.07-.16a1,1,0,0,1,.18.21c-.26.18-.56,0-.83,0s-.09.37-.29.38a2.45,2.45,0,0,0-1.46.45c.39,0,.7-.24,1.08-.3l-.12.1c.11,0,.22,0,.32,0a1.69,1.69,0,0,1-.74.29c-.24,0-.66-.07-.81.19.59.07-.26,1.19-.48,1.37.14-.25-.28-.41-.38-.69,0,.35.45.81.3,1.13a7,7,0,0,0-.53,1l-.06,0a1.79,1.79,0,0,1,.2-.65c-.15-.1-.08-.41-.39-.32a2.93,2.93,0,0,1,.15-.69s.22-.48,0-.33c-.5.36-.35.6-.22,1.22a1.31,1.31,0,0,0-.48-.25c.13.19.43.24.53.43s-.11.55-.07.69.42.12.32.53-.28.3-.57.39c.25,0,.68-.08.62.29,0,.15-.54.16-.68.19.08,0,.14.12.21.16-.12,0-.17.11-.31.11.12.3.3,0,.51.15l-.42.23c-.11.06-.27-.12-.35-.07s-.34.5-.46.67-.39.07-.55.27a2,2,0,0,1-.47.53,2.32,2.32,0,0,0-1.16,1.32,1.83,1.83,0,0,0,.1,1.32,12.27,12.27,0,0,1,.67,1.82c.1.34.19,1.22-.06,1.46s-.34.44-.56.13c-.07-.1-.47-.45-.47-.48a4.3,4.3,0,0,0-.3-.73c-.12-.26-.25-.42-.17-.73l-.14.12c-.12-.4.25-1-.15-1.26s-.55-.73-1-.59c-.22.07-.46.24-.67.1a2.93,2.93,0,0,0-.64-.42c-.37-.1-1,.39-1.09-.23-.07.54-1.27.15-1.63.43.25,0,1.17.14.48.47.07,0,.45.17.46.23a.2.2,0,0,1-.25.25c.1-.25-.27-.34-.45-.46,0,.18,0,.24,0,.37-.17-.35-.32,0-.54-.16s-.41-.42-.75-.3-.45-.11-.63-.18c-.34-.13-.88.26-1.2.4-.53.22-1.81,1.17-1.82,1.94,0,.24.31.48.33.71a2.22,2.22,0,0,1-.16.58,4.88,4.88,0,0,0-.3,1.29,4.65,4.65,0,0,0,.76,2.83c.36.54.5.92,1.09,1.09.12,0,.31.34.42.31l.73-.27a2.19,2.19,0,0,1,.65-.15c.17,0,.31.21.4.17a1.37,1.37,0,0,0,.31-.15c.06,0-.09-.2,0-.27a1,1,0,0,0,.39-.54c.14-.47.1-1,.59-1.22a3.76,3.76,0,0,1,1.1-.22c.28,0,1.08-.13.83.47-.1.24-.43.95-.6,1,.09,0,0,.14.24.13-.08.06-.13.15-.21.21l0,.05.11-.08a4.64,4.64,0,0,0-.24.87.56.56,0,0,1-.14-.51,1.7,1.7,0,0,0-.2.33c.38,0-.05.74.07,1s-.29.69-.45.84a9,9,0,0,0,1.63.13c.23,0,.39-.17.62-.13a3.21,3.21,0,0,1,.82.12,1,1,0,0,1,.73,1.14c-.06.37-.12.74-.17,1.11,0,.22-.21.4-.24.61-.12,1,1.09,2.63,2,2.26.56-.23.85-.46,1.44-.28a2.5,2.5,0,0,1,1.22.95c0-.71.85-1.67,1.19-2.25.1-.18.76-.28.94-.35l1.44-.52c.44-.16,1.23.22,1.66.32l3.4.79a3.29,3.29,0,0,1,1.71.6l2.65,2.55c.56.53,1.78.55,2.49.72s1.19,1.27,1.61,1.82l1.28,1.67c.1.14.33.58.49.64l2.73,1,2.73,1a11.48,11.48,0,0,1,2.21,1.59c.12,0,1,0,1,.12.09.41.19.81.28,1.22.2.88.22.86-.26,1.56L119,179.53a2.51,2.51,0,0,0-.65,1.22c-.09,1.26-.18,2.52-.27,3.78-.06.84-.93,1.69-1.36,2.36-.19.28-.35.77-.68.78s-1.08-.09-1.36.1l-2.49,1.71c-.16.12-.16,1.36-.19,1.58s0,.72-.15.93l-2.07,2.66-1.9,2.44c-.15.18-2.13-.67-2.44-.77-.18.68,1,.75,1.07,1.34a4.1,4.1,0,0,1,.23,1.13c-.05.26-.43.63-.57.85-.42.61-1,.6-1.65.78a2.92,2.92,0,0,1-1.62,0c.13.42.23.59.08,1s0,.65-.12.75c-.66.46-1,.26-1.73-.08a5.37,5.37,0,0,0,0,1.14c.05.24.46.65.35.89l-.63,1.36c-.2.45-.28.4-.74.51a.59.59,0,0,0-.16.08A74.1,74.1,0,0,0,214,174.62c-.56-.53-1.08-1.08-1.59-1.64a3.86,3.86,0,0,1-.75-1,6.39,6.39,0,0,0-.7-1.53c-.13-.14-.33-.06-.38-.27l-.24-.91c-.14-.51-.78-.4-.8-1s-.6-.61-.87-.85-.82-1-.68-1.19,1,.21,1.14.23c.58.07.49.29.8.73a8.54,8.54,0,0,0,1,.88c.34.32.75.44,1,.82.15.2.31.18.55.22.39.07.13.13.35.3s.36,0,.36.36c0,.19.41.16.46.46s-.2.29-.16.56.38.23.52.29.14.52.17.66.35.25,0,.56a.5.5,0,0,1,.67-.12l.08-.24s-.06-.09-.09-.09a.35.35,0,0,1-.32-.08c.14-.18.22-.48.42-.18,0-.06,0-.12,0-.19a.22.22,0,0,1,.19.07,73.7,73.7,0,0,0,3.74-17.39l-.62.23C218,154.51,218,154.51,218.08,154.82ZM166,143.41c.1-.2.62-.09.75-.08s.55-.22.77-.32c-.2.18-.51.32-.34.64C167,143.7,165.65,144.09,166,143.41Zm-5.68-.42a1.17,1.17,0,0,0,1,.26c.22,0,.72.06.71.31a5.11,5.11,0,0,1-1.84-.23A1,1,0,0,1,160.31,143Zm-10.16-5.57a2.44,2.44,0,0,0,.43-.36c.11-.15-.06-.31.14-.35a2.61,2.61,0,0,1-.15,1.33C150.35,138,149.91,137.62,150.15,137.42Zm-.26,1.12.2.08c.19-.13,1-.54.89.15,0,.34-.09.68-.13,1s-.31.16-.33.34-.23.29-.43.1,0-.27.06-.58c0-.05-.17-.15-.16-.2s.2-.3.18-.4C150.13,138.8,149.77,138.91,149.89,138.53Zm-3.05,1.14-.36.3-.41-.32C146.44,139.44,146.59,139.21,146.84,139.67Zm4.62-14.37c-.17,0-.45-.34-.48-.51.2-.11.41-.18.46.07A.23.23,0,0,1,151.46,125.31Zm8.59-3.66c-.32.2-.73.29-.93.64a.52.52,0,0,0-.17-.61A1.47,1.47,0,0,1,160.05,121.65ZM158,119.8h-.11c0,.07,0,.15,0,.22C157.34,119.68,157.92,119.35,158,119.8Zm-.76,2.48c-.15.21-.35.35-.13.59a1.32,1.32,0,0,0-.56.45C156.48,122.79,156.55,122.11,157.21,122.27Zm-5.33,2.39a.28.28,0,0,0,.16-.35.61.61,0,0,1,.23,0c-.1.19,0,.28.16.3-.44-.87,1.05,0,.14.15.08.05.13.16.21.22-.37,0-.33.37-.38.69-.06-.28,0-.52-.28-.5S151.83,124.85,151.88,124.67Zm25-15.05c-.44-.44-.3-.71.19-.91a1.53,1.53,0,0,1,.84.43C177.77,109.25,177.12,109.83,176.9,109.61Zm7.8-1.22c-.3.26-1.14-.44-1.25-.71l.38-.23C184,107.55,185,108.12,184.7,108.39Zm6.72-5.12a.66.66,0,0,1,.76.48l-1.12.2C191.1,103.51,191,103.32,191.42,103.27Zm-4.25-11.63c.13-.07.13-.39.25-.48s.49,0,.64,0c0,.44.15.61-.25.71l-1.32.3a2,2,0,0,1-.28-.28C186.47,91.34,186.82,91.84,187.17,91.65Zm-1.26.53c-.24.27-.92.76-1.19.42s-.29-.13-.53-.13-.24-.24-.33-.47a6.37,6.37,0,0,1,1.39-.51C185.56,91.4,186.19,91.86,185.91,92.18Zm-2.42.84c-.42.08-1.58.44-1.75,0s1.56-.54,1.72-.55l.49.26-.63.1C183.39,92.85,183.42,93,183.48,93Zm.91.23-.37.2a3.08,3.08,0,0,1-.31-.25C183.95,93.14,184.25,92.94,184.4,93.25Zm-1.7-2.9c.49-.35.73-.22,1.32-.12l-1.07.26.52.46-.87.35-1.09-.15C181.91,90.9,182.3,90.63,182.7,90.35Zm-.93,1.11a4,4,0,0,1,1.34.3,2.69,2.69,0,0,1-1.38.51l-1.3-.35C180.88,91.4,181.11,91.49,181.77,91.46Zm-1.1,1.24-.49.4-.9-.12C179.91,92.48,179.93,92.44,180.67,92.71Zm-1.18,12.09c.21-.4-.19-.43.24-.73.12-.08.79-.46.76-.6-.08-.37-.22-.54,0-.81l.92-1a17,17,0,0,1,1.41-1.33,6.59,6.59,0,0,1,1.78-.74,4.61,4.61,0,0,1,1.87-.33,5.49,5.49,0,0,0,2.16-.86c.29-.24,1.91-.6,1.84.25s-1.64,1-2,1.12c-.78.27-1.58.5-2.37.74a7,7,0,0,0-1.64,1,4.36,4.36,0,0,0-1.06.68c-.25.33-.49.67-.76,1-.44.52-1.2,1.19-1.18,2,0,1,.61,1.43,1.33,1.92-.45.38-1.53,0-2,0a2.29,2.29,0,0,1-1.49-.79c-.36-.39-.42-.4-.38-1C178.89,105,179.34,105.09,179.49,104.79Zm-2.74-12.85a2.4,2.4,0,0,0,1.17-.18c.42-.11.64.09,1,.32l-1.88.44.15.53a4.23,4.23,0,0,1-1.57-.25l1-.64-1.2.31-.87-.23A3.82,3.82,0,0,1,176.75,91.94Zm-22.42,19.3a1.22,1.22,0,0,0,.14-.24c-.12-.05-.09-.09-.18-.16.24,0,.42-.1.42-.42C154.76,110.86,154.6,111,154.33,111.24Zm.47-.61a1,1,0,0,1,0-.35,1,1,0,0,1,.24,0c.08-.21.22-.36.43-.34Zm4.83-3.51c.27.08.23-.05.45-.17,0,.21-.17.29-.32.44s-.59.13-.67-.29A1.09,1.09,0,0,1,159.63,107.12Zm-.6.4a2.34,2.34,0,0,0,.77-.08c.23-.12.24-.38.54-.38a2.13,2.13,0,0,1-1.5.8C159,107.82,159.15,107.71,159,107.52Zm-.69.23c0,.25-.06.34-.24.21l-.07-.2A.78.78,0,0,1,158.34,107.75Zm-.26.38-.58.27-.41.13C157.29,108.28,157.79,107.95,158.08,108.13Zm-.49-.11a.33.33,0,0,1-.33.23,1.58,1.58,0,0,1-.23-.1C157.12,107.88,157.38,107.9,157.59,108Zm-.63.14c.33.12.14.22,0,.43l-.46,0A3.94,3.94,0,0,0,157,108.17Zm-.89.47c.22-.07.36-.16.5.11-.16.13-.86.83-.83.31C155.75,108.71,155.75,108.74,156.06,108.64Zm-.2.76.53-.45-.76.82C155.55,109.54,155.63,109.4,155.86,109.4Zm-.34.46a.36.36,0,0,0-.45.18c-.18.23-.27.14-.54.1.16-.17.12-.1.15-.32h.18c-.07-.23,0-.4.25-.41,0,.17-.06.33-.09.5.24-.12.15-.34.29-.43S155.57,109.68,155.51,109.86Zm-.26-.86-.07.16-.39.31C154.71,109.12,155,109.1,155.26,109Zm-.77.31c.23.2.29.39,0,.57l-.43-.09Zm.08.69-.55.36C154,109.93,154.27,110,154.56,110Zm-1,.3c.13-.12.25-.14.36,0a.31.31,0,0,1-.38.21C153.53,110.42,153.53,110.36,153.54,110.3Zm-11.07,10.76-.11.07c.12,0,.19,0,.3,0-.15.08-.17.11-.33.07s0,.09,0,.13l-.1-.14C142.2,121.12,142.24,120.88,142.47,121.06Zm-1.91,1.59.18,0c-.06-.11-.07-.26-.13-.36a.47.47,0,0,1,.47,0c-.09-.07-.16-.19-.25-.27l.06-.17.2,0c-.11-.25.15-.5.21-.2.21-.1.06-.08.2,0a1.49,1.49,0,0,1,1-.18c-.08.44-.63.52-.69.81h-.22a1.93,1.93,0,0,1,.32.1c-.1.07-.15.21-.24.29l.06.05c.14-.28,1.35-.42,1.53-.15.28.43-.78,1-.55,1.47a.46.46,0,0,0-.48.2c.74.1,1.09.17,1.34,1,.2.64.85.71,1,1.49a.35.35,0,0,0-.47-.15c.3,0,.91.51.5.8.1.11,1.14-.3,1.07.31s-.37.76-.81,1.1c.18,0,1.07.21.49.45a6.94,6.94,0,0,1-1.18.28c-.25.06-.31-.19-.53-.2s-.49.25-.65.33c-.53.26-.64-.34-.93.39-.51-.38-.91.38-1.28.12.2-.23.67-.46.74-.75.14-.54.58-.35,1-.3a1,1,0,0,1,.3-.48l-.66.23s-.36-.17-.48-.17l.11-.09c-.3-.17-.56.28-.75-.06,0,0,0-.09,0-.17.17-.07.62-.16.73-.31s0-.37.07-.67l-.45.09c.23-.16.36-.36.1-.57a.26.26,0,0,1,.37.17c.2-.16.4-.07.62,0l0-.16c.12.07.09,0,.19.12l.07,0a.74.74,0,0,1-.06-.88c-.38.29-.71-.67-.09-.82-.36-.05-.68.28-.93.11.1.29-.16.08-.33,0,0,.07,0,.15,0,.22-.35-.27-.05-.31,0-.61s.06-.22,0-.47-.08-.25.11-.27a1.08,1.08,0,0,0-.08-.24c-.21.46-.48.2-.16-.06-.28.1-.27.36-.3.59s0,.61-.19.42,0-.17,0-.29,0-.26,0-.45.12-.6.39-.75l-.07-.1c-.18.17-.3.39-.53.24.39.23-.07.42-.24.25.28-.06.27-.18,0-.24.09-.12.3-.2.32-.28a.87.87,0,0,1,.24-.46l-.15-.05.11-.05C140.61,122.79,140.53,122.81,140.56,122.64Zm.33,1.93c.16,0,.21.15.12.3A.44.44,0,0,1,140.89,124.58Zm.39,1.68a.43.43,0,0,1,.26-.36.27.27,0,0,1-.13.36Zm-.81-1.77c-.11-.23,0-.34.17-.3A2.35,2.35,0,0,1,140.47,124.48Zm-.33,0a.67.67,0,0,1,.23-.16c.09.18.07.31-.1.37S140.31,124.54,140.14,124.51Zm0-1.28.09-.05c0,.07,0,.09,0,.14Zm.52-.26c-.2.41-.58-.05-.75-.26l.08-.14.17.13c0-.06,0-.12,0-.18s.12.06.17.15S140.46,123,140.68,123Zm-.45-1.3c.13-.06.16.33-.12.36l.1.13c-.19,0-.26.14-.43.29l-.07-.14.13-.06C139.44,122,140,121.78,140.23,121.67Zm-.5.91a.77.77,0,0,0-.11.57c-.21-.16-.07-.4-.09-.49s-.09,0-.07-.11A.84.84,0,0,1,139.73,122.58Zm-2.21,5.54a.64.64,0,0,0,.44-.29c.11-.16.48-.16.66-.19a1.48,1.48,0,0,0-.8.08,4.4,4.4,0,0,1,.63-.67,2,2,0,0,1-.77-.24c.09-.09.32-.25.28-.39-.09-.3-.16-.33.1-.47s.36,0,.51.08.33-.1.52-.24l-.45-.16c.23-.38.69-.91,1.16-.63l-.1.17c.14,0,.52-.21.62-.09s.22.58.43.51c0,.53-.17.54-.59.83a1,1,0,0,1,.26.87l-.21.67c-.08.25-.22.07-.42.12-.59.16-1.42,1.12-2,.6.08,0,.13-.15.2-.19l-.45-.11a3,3,0,0,0,.34-.17C137.74,128.2,137.64,128.14,137.53,128.12Zm-44.86-24c-.26.06-1,.37-1.21.24a1.7,1.7,0,0,1-.46-.27c-.17-.24.08-.33-.23-.49a.45.45,0,0,1,.11-.85l.77.28c.22.08.51-.08.71,0a3.45,3.45,0,0,1,1.38,1.11A4.44,4.44,0,0,0,92.67,104.11Zm2,6.53a.5.5,0,0,1,.87.28C95.47,110.91,94.44,110.91,94.69,110.63Zm-.27-.2c-.16.42,0,.61-.21,1s-.9,0-1.13-.18C92.49,110.75,93.89,109.69,94.42,110.43Zm-5.78,7.22c-.09,0-.13-.25-.16-.33-.08-.24,0-.22.17-.38a1.45,1.45,0,0,1,.84-.3h.42A1.24,1.24,0,0,1,88.65,117.65Zm1.77-1.53c-.38-.12-1.45-.24-1.36-.87-.39.15-.35.47-.74.61-.23.08-.45.46-.71.65s-.24-.69-.34-.75a8,8,0,0,0-1,.18c.12-.18.61-.54.67-.69s-.09-.35-.07-.49.07-.4.12-.6c.13-.48.11-.85.54-1s.57.49.08.57a.86.86,0,0,0,.14.28c.25-.34.32-.24.55,0s.44.1.62.23,1.46.77,1,1.24a1,1,0,0,1,1.06.28Zm.82,2.18c-.19-.21-.32-.25-.29-.56s.26-.5.5-.42C92,117.52,91.43,118.12,91.24,118.3Zm11.15,15.63c-.41-.19-1-.29-.64-.89l.18.43,1.25.1C102.9,133.88,102.79,134.11,102.38,133.93Zm-.9-3.54a2.38,2.38,0,0,1,1.89.71C102.85,131.52,101.9,130.72,101.49,130.39ZM93,157.23a2.35,2.35,0,0,1-.76-.4c.28-.42.88-.08,1.22,0a1.87,1.87,0,0,1,.16.25C93.37,157,93.18,157.27,93,157.23Zm1.16-1.63c-.52,0-1,.08-1.54,0,.07-.07.41-.33.41-.42,0-.28-.4-.18-.51-.23-.41-.19-.42-.63-.8-.68s-.75-.32-1.13-.34-.25-.17-.46-.11a.48.48,0,0,1-.5-.18.45.45,0,0,0,.35-.07c-.68-.69-1.47.86-2.15.5.35-.22.46-.63.89-.74a4.14,4.14,0,0,1,1.5-.2,5.88,5.88,0,0,1,2.57,1.1l0-.1a1.36,1.36,0,0,0,1.1.53c.09,0,.19.29.39.32a1.41,1.41,0,0,1,.64.38Zm4.23,1.11c-.4,0-.65.12-1,.13-.07,0-.12-.2-.32-.06s-.11.52-.24.56c-.28.1-.24-.38-.34-.43s-.39,0-.54,0c-.52-.08-.69.14-1.11-.16-.15-.44,1.09.06,1.38-.16-.31-.45-.25-.61-.74-.84.47-.22.61-.07,1.1-.06a1.58,1.58,0,0,0,.44-.12c.16-.09.43.09.59.14s.23-.09.36.15.18.33.52.4c.14,0,.45.21.36.36C98.65,157,98.71,156.72,98.41,156.72Zm1.3.26c-.22-.56.57-.3.88-.28l.11.11C100.54,157.05,99.87,157.36,99.72,157Zm9.52-23.83c-.19.28-.24.27-.55.15s-.32-.15-.24-.58c-.58,0-.7.42-1.25.54a.42.42,0,0,1,.33-.46,3.08,3.08,0,0,0-1.87-.25c-.19,0-.67.09-.81-.13a1.34,1.34,0,0,1,.08-.85,5,5,0,0,0,1.24-1.83c.2-.49.8-1.24,1.35-1l-.27.58c-.3.28-.43.32-.43.75,0,.13.24.17.34.22s.09.37.11.51c.23-.06,1-.35,1.2-.14s.29.29.24.66c0,.13.37.22.42.44S109.45,132.83,109.24,133.14Zm15.33-22.81-1.61.43c-.35.09-.45.29-.7.6a6.32,6.32,0,0,1-1,1.2,5.15,5.15,0,0,1-1.2.4l-1.71.56c-.43.14-.41.15-.59.62-.32.87-.63,1.73-.91,2.62l-1.06,3.31c0,.09-.81.08-1,0l-1.71-.63c-.28-.1-.78-.15-1-.43l-1.07-1.68a14.42,14.42,0,0,1-1.66-2.89l-.71-2a4.68,4.68,0,0,1,.16-1.73c0-.08,0-.54.09-.57l1-.41c.09,0,.53-.14.54-.26l.13-1.05-1.4.41c-.64.19-.61.2-1.09-.33s-.15-.73,0-1.29-.33-.8-.7-1.2-.08-.69.09-1.2.11-.59-.13-1.11A12.7,12.7,0,0,0,106,101c-.15-.19-.63-1.06-.86-1.1l-1.41-.24a8.7,8.7,0,0,0-2.65-.22l-1.54.2c-.26,0-.9-.52-1.13-.65l-1.36-.8c-.33-.2-.62-.82-.86-1.14-.08-.11-.44-.46-.4-.6s0-.66.22-.71L98.36,95a7.57,7.57,0,0,1,1.72-.33c.42,0,.48.06.65-.36l.44-1.12c-.68-.08-1.27,0-1.76-.53l4-2.06,1.62-.83a5,5,0,0,1,1.45-.2l2.85-.38a5.24,5.24,0,0,1,1.45-.19,25.88,25.88,0,0,1,3.93,1.15,5.54,5.54,0,0,0-2-1.62L115,87.51c.53-.24,1.21,0,1.77.15l1.39.24c.36.06.4-.57.68-.73a2.31,2.31,0,0,1,.78-.07l1.74-.15a20.89,20.89,0,0,1,4.77.39,15.13,15.13,0,0,1,4,1.42l-2.1.76c.43.35.92.25,1.44.26s-.24,1.33-.3,1.45c.43-.18,1.31-.8,1.76-.72l1.17.19c.32.06.47-.32.67-.58s1.29-.3,1.76-.22a11.32,11.32,0,0,1,1.95.76l-1.69,1a4.92,4.92,0,0,1-1.51.38l.42.36a6.14,6.14,0,0,1-1.26,1.12,3.79,3.79,0,0,0-1.26,1c-.26.43-.91,1.08-.7,1.59.28.66.64.82,1.21,1.2l-1.62,1.58,1.11.75c.3.2.26.77.32,1.12,0,.16.28,1.09.18,1.2l-1.1,1.22a6.93,6.93,0,0,0-1,2.4c-.11.31.21,1,.29,1.35.15.64.12.62-.3,1.12l-2.62,1.6A9,9,0,0,1,124.57,110.33Zm7.81,5.69a1.3,1.3,0,0,1-1,.06,2,2,0,0,1-.56-.12c-.09-.06-.19-.36-.3-.34l-1.24.16c-.16-.43.47-.31.6-.69l-.16,0,0-.17c-.21,0-.3-.11-.15-.28-.29,0-1.14.19-1.22-.2.47,0,1-.21,1.52-.19v-.15a.54.54,0,0,1-.51,0l.54-.26c-.22-.05-.65-.26-.86-.18-.44.17-.56.26-1,.08.15-.08.11-.14.3-.11,0-.07,0-.14,0-.21s.34.19.42,0-.38-.14-.13-.45.87.47.8-.18c-.22,0-.4,0-.46-.24.5,0,.48.07.86.4.07.06.37.12.38.26a.23.23,0,0,1-.28.24,7,7,0,0,0,.39.64,5.5,5.5,0,0,1,.26-.61c.14-.24.43,0,.21-.5.28-.06.45.27.64.47-.09-.25,0-.55.28-.54s.39.25.59.53c0-.19-.05-.38-.08-.57.51.23.64,0,1.17,0-.31-.79,1.45-.08,1.09.53.3-.11.5.08.74.22s-.06.42.18.59c-.21.2-.37.5-.67.34,0,.41-.21.7-.58.6s-.74.4-1,.54l-.57.08C132.5,115.8,132.54,115.94,132.38,116Zm45.49,66.15-.34-.34a5,5,0,0,1-.26,2.27l-1.19,4-.33,1.1s-.87.3-1,.36-1-.22-1-.4a11.39,11.39,0,0,0-.26-1.43,2.17,2.17,0,0,1-.08-1.41c.14-.43.65-.88.7-1.33a5.59,5.59,0,0,0-.33-1.49c-.05-.23.16-1.11.35-1.14a4.5,4.5,0,0,0,1.34-.49c.43-.22.58-.58.91-1s.59-.47.62-1.13c0-.83.59,0,.77.27l0,0A3.34,3.34,0,0,1,177.87,182.17Zm40.58-26.32c-.24,0-.29.31-.33.54s-.34.25-.51.33.06.18-.12.17a.65.65,0,0,1-.37-.11c-.34-.2-.27-.28-.27-.71.42-.27.72-.83,1.33-.49l0-.16C218.43,155.44,218.5,155.62,218.45,155.85Z" fill="#68e1fd"></path><path d="M180.54,138c-.12-.11-.12-.45-.24-.53-.55-.34-.64.53-.64.84a1.14,1.14,0,0,1-.12-1.33c-.23-.1-.74-.21-.9-.41a3.19,3.19,0,0,1-.16-1s-.77-.32-.43-.4.42.31.75.07c-.22-.21-.44-.25-.25-.53a.62.62,0,0,1,.53-.22,6.14,6.14,0,0,1,1.33.2.76.76,0,0,0-.46.71c.24-.34.33-.56.75-.61-.21-.65-.35-.22-.9-.39.09-.28.27-.61.13-.88-.06-.12-.3-.69-.5-.46s-.53,0-.8-.12-.55.26-.76.3c-.54.1-.5-.19-.66.48,0,.19-.65.33-.81.4-.37.16-.35.17-.44.61,0,.2-.35.42-.49.57a.72.72,0,0,1,.7.68,2.54,2.54,0,0,0,.3,1.33c.15.32.51.43.68.73a1.64,1.64,0,0,0,.86.88c-.4.12-.47.08-.58.51a5.79,5.79,0,0,1-.27.78,1.66,1.66,0,0,0-.05.87c0,.38.14.31.48.39s.31.29.55.37l.87.27a4.16,4.16,0,0,0,1.41-.17,4.55,4.55,0,0,1-.06-1.39c.14-.71-.18-.38-.46-.89a2.27,2.27,0,0,0,.27,0,1.34,1.34,0,0,0-.14-.43c-.07-.08-.32,0-.39-.06-.19-.24-.07-.47,0-.7a3.63,3.63,0,0,0,1.28.07C181,138.34,180.74,138.22,180.54,138Z" fill="#68e1fd"></path><path d="M81.39,109.49l.26-.44A.49.49,0,0,0,81.39,109.49Z" fill="#075b5d"></path><path d="M84.82,104.25l.65-.88A2,2,0,0,0,84.82,104.25Z" fill="#075b5d"></path><path d="M154.29,110.84c.1.07.06.1.18.16a1.22,1.22,0,0,1-.14.24c.27-.28.43-.38.37-.82C154.71,110.74,154.53,110.81,154.29,110.84Z" fill="#075b5d"></path><path d="M140.47,124.48a2.35,2.35,0,0,0,.17-.3C140.5,124.14,140.36,124.26,140.47,124.48Z" fill="#075b5d"></path><path d="M141.54,125.9a.43.43,0,0,0-.26.36h.13A.27.27,0,0,0,141.54,125.9Z" fill="#075b5d"></path><path d="M138,128.5c-.07,0-.13.14-.2.19.61.52,1.44-.44,2-.6.2-.06.35.13.42-.12l.21-.67a1,1,0,0,0-.26-.87c.41-.29.54-.3.59-.83-.21.07-.27-.32-.43-.51s-.48.05-.62.09l.1-.17c-.47-.28-.93.25-1.16.63l.45.16c-.19.15-.29.3-.52.24s-.37-.16-.51-.08-.18.17-.1.47c0,.14-.19.3-.28.39a2,2,0,0,0,.77.24,4.4,4.4,0,0,0-.63.67,1.48,1.48,0,0,1,.8-.08c-.18,0-.55,0-.66.19a.64.64,0,0,1-.44.29c.11,0,.21.08.33.1a3,3,0,0,1-.34.17Z" fill="#075b5d"></path><path d="M140.74,122.84l-.11.05.15.05a.87.87,0,0,0-.24.46c0,.09-.24.16-.32.28.29.06.29.18,0,.24.17.17.63,0,.24-.25.24.15.35-.08.53-.24l.07.1c-.27.14-.32.45-.39.75s.07.2,0,.45-.15.19,0,.29.17-.26.19-.42,0-.48.3-.59c-.32.26-.05.53.16.06a1.08,1.08,0,0,1,.08.24c-.19,0-.15.08-.11.27s.1.16,0,.47-.39.34,0,.61c0-.07,0-.15,0-.22.16.06.42.27.33,0,.25.17.57-.16.93-.11-.62.15-.29,1.1.09.82a.74.74,0,0,0,.06.88l-.07,0c-.1-.15-.07-.06-.19-.12l0,.16c-.23,0-.42-.14-.62,0a.26.26,0,0,0-.37-.17c.26.21.13.41-.1.57l.45-.09c0,.3.13.38-.07.67s-.56.23-.73.31c0,.07,0,.2,0,.17.2.34.46-.1.75.06l-.11.09c.12,0,.43.19.48.17l.66-.23a1,1,0,0,0-.3.48c-.42-.06-.85-.24-1,.3-.07.29-.54.52-.74.75.37.26.77-.5,1.28-.12.29-.73.4-.14.93-.39.16-.08.48-.33.65-.33s.28.26.53.2a6.94,6.94,0,0,0,1.18-.28c.58-.24-.31-.43-.49-.45.44-.33.74-.5.81-1.1s-1-.2-1.07-.31c.4-.29-.2-.8-.5-.8a.35.35,0,0,1,.47.15c-.13-.79-.78-.85-1-1.49-.25-.82-.6-.89-1.34-1a.46.46,0,0,1,.48-.2c-.22-.47.83-1,.55-1.47-.18-.27-1.4-.13-1.53.15l-.06-.05c.09-.08.14-.22.24-.29a1.93,1.93,0,0,0-.32-.1h.22c.06-.29.61-.36.69-.81a1.49,1.49,0,0,0-1,.18c-.14-.07,0-.1-.2,0-.06-.3-.31-.05-.21.2l-.2,0-.06.17c.09.08.16.2.25.27a.47.47,0,0,0-.47,0c.06.11.07.26.13.36l-.18,0C140.53,122.81,140.61,122.79,140.74,122.84Z" fill="#075b5d"></path><path d="M95.6,94.11l-.14-.44c.3.08.69.29,1,.15a2.7,2.7,0,0,0,.92-.72l-.9,0,1.44-.29A5.28,5.28,0,0,0,99.17,92c.49-.31,2.11-.73,2.15-1.32l-3.68.74,2.24-.67-1.3-.22,2.88-.22a7.16,7.16,0,0,0,2.18-1.1,15.27,15.27,0,0,0-2.5-.66,3.05,3.05,0,0,0-1.1,0,74.5,74.5,0,0,0-6.81,5.91C94,94.35,94.81,94.27,95.6,94.11Z" fill="#075b5d"></path><path d="M140.25,123.17l-.09.05.08.08S140.3,123.25,140.25,123.17Z" fill="#075b5d"></path><path d="M139.71,122.31l.07.14c.16-.15.23-.24.43-.29l-.1-.13c.28,0,.25-.42.12-.36s-.79.28-.39.58Z" fill="#075b5d"></path><path d="M139.53,122.66c0,.09-.12.33.09.49a.77.77,0,0,1,.11-.57.84.84,0,0,0-.27,0C139.44,122.64,139.49,122.62,139.53,122.66Z" fill="#075b5d"></path><path d="M140.2,122.52c0,.06,0,.12,0,.18l-.17-.13-.08.14c.17.21.55.67.75.26-.23,0-.37-.07-.32-.3S140.3,122.52,140.2,122.52Z" fill="#075b5d"></path><path d="M140.26,124.72c.17-.06.2-.19.1-.37a.67.67,0,0,0-.23.16C140.31,124.54,140.2,124.63,140.26,124.72Z" fill="#075b5d"></path><path d="M155,109.89c0-.17.06-.33.09-.5-.22,0-.32.18-.25.41h-.18c0,.22,0,.15-.15.32.27,0,.37.14.54-.1a.36.36,0,0,1,.45-.18c.05-.18,0-.54-.21-.4S155.25,109.77,155,109.89Z" fill="#075b5d"></path><path d="M156.56,108.75c-.13-.28-.28-.18-.5-.11s-.31.07-.33.42C155.69,109.59,156.4,108.88,156.56,108.75Z" fill="#075b5d"></path><path d="M156.39,109l-.53.45c-.23,0-.31.14-.23.37Z" fill="#075b5d"></path><path d="M157,108.17a3.94,3.94,0,0,1-.44.41l.46,0C157.09,108.39,157.28,108.29,157,108.17Z" fill="#075b5d"></path><path d="M155.19,109.16l.07-.16c-.23.1-.55.12-.45.47Z" fill="#075b5d"></path><path d="M142.32,121.22c.16,0,.19,0,.33-.07-.11,0-.18-.06-.3,0l.11-.07c-.23-.18-.27.07-.28.16l.1.14S142.31,121.27,142.32,121.22Z" fill="#075b5d"></path><path d="M153.9,110.27c-.11-.12-.23-.1-.36,0s0,.12,0,.18A.31.31,0,0,0,153.9,110.27Z" fill="#075b5d"></path><path d="M154,110.36l.55-.36C154.27,110,154,109.93,154,110.36Z" fill="#075b5d"></path><path d="M154.48,109.31l-.43.48.43.09C154.77,109.7,154.72,109.51,154.48,109.31Z" fill="#075b5d"></path><path d="M99.72,157c.16.39.83.08,1-.16l-.11-.11C100.29,156.67,99.49,156.42,99.72,157Z" fill="#075b5d"></path><path d="M157.59,108c-.2-.13-.47-.15-.55.13a1.58,1.58,0,0,0,.23.1A.33.33,0,0,0,157.59,108Z" fill="#075b5d"></path><path d="M129.9,106.89c-.08-.31-.4-1-.29-1.35a6.93,6.93,0,0,1,1-2.4l1.1-1.22c.1-.11-.16-1-.18-1.2-.06-.35,0-.92-.32-1.12l-1.11-.75,1.62-1.58c-.57-.38-.93-.54-1.21-1.2-.21-.5.44-1.16.7-1.59a3.79,3.79,0,0,1,1.26-1,6.14,6.14,0,0,0,1.26-1.12L133.3,92a4.92,4.92,0,0,0,1.51-.38l1.69-1a11.32,11.32,0,0,0-1.95-.76c-.47-.08-1.44-.19-1.76.22s-.35.63-.67.58L131,90.5c-.44-.07-1.33.54-1.76.72.07-.13.89-1.44.3-1.45s-1,.08-1.44-.26l2.1-.76a15.13,15.13,0,0,0-4-1.42,20.89,20.89,0,0,0-4.77-.39l-1.74.15a2.31,2.31,0,0,0-.78.07c-.28.16-.32.8-.68.73l-1.39-.24c-.56-.1-1.24-.39-1.77-.15l-2.35,1.08a5.54,5.54,0,0,1,2,1.62A25.88,25.88,0,0,0,110.75,89a5.24,5.24,0,0,0-1.45.19l-2.85.38a5,5,0,0,0-1.45.2l-1.62.83-4,2.06c.49.54,1.08.45,1.76.53l-.44,1.12c-.16.42-.22.34-.65.36a7.57,7.57,0,0,0-1.72.33L96,95.72c-.18.05-.18.52-.22.71s.33.5.4.6c.23.32.53.95.86,1.14l1.36.8c.23.14.87.69,1.13.65l1.54-.2a8.7,8.7,0,0,1,2.65.22l1.41.24c.23,0,.71.9.86,1.1a12.7,12.7,0,0,1,1.41,2.75c.23.52.31.57.13,1.11s-.45.81-.09,1.2.84.62.7,1.2-.37.88,0,1.29.44.52,1.09.33l1.4-.41-.13,1.05c0,.12-.45.23-.54.26l-1,.41c-.07,0-.08.49-.09.57a4.68,4.68,0,0,0-.16,1.73l.71,2a14.42,14.42,0,0,0,1.66,2.89l1.07,1.68c.18.28.68.33,1,.43l1.71.63c.14.05.93.07,1,0l1.06-3.31c.28-.89.59-1.75.91-2.62.17-.47.15-.48.59-.62l1.71-.56a5.15,5.15,0,0,0,1.2-.4,6.32,6.32,0,0,0,1-1.2c.25-.31.35-.51.7-.6l1.61-.43a9,9,0,0,0,2.41-.72l2.62-1.6C130,107.51,130,107.53,129.9,106.89Z" fill="#075b5d"></path><path d="M108.71,131.31c.05-.37,0-.38-.24-.66s-1,.07-1.2.14c0-.15,0-.46-.11-.51s-.33-.09-.34-.22c0-.44.12-.47.43-.75l.27-.58c-.55-.23-1.15.53-1.35,1a5,5,0,0,1-1.24,1.83,1.34,1.34,0,0,0-.08.85c.14.22.62.15.81.13a3.08,3.08,0,0,1,1.87.25.42.42,0,0,0-.33.46c.56-.11.67-.5,1.25-.54-.08.43-.14.43.24.58s.36.13.55-.15,0-1-.11-1.38S108.69,131.44,108.71,131.31Z" fill="#075b5d"></path><path d="M98.5,156.27c-.33-.07-.35-.07-.52-.4s-.14-.08-.36-.15-.43-.23-.59-.14a1.58,1.58,0,0,1-.44.12c-.49,0-.63-.16-1.1.06.49.23.43.39.74.84-.3.22-1.53-.28-1.38.16.42.3.59.08,1.11.16.15,0,.4-.07.54,0s.06.53.34.43c.13,0,.13-.48.24-.56s.25.06.32.06c.36,0,.61-.13,1-.13s.24.26.45-.08C98.94,156.49,98.64,156.3,98.5,156.27Z" fill="#075b5d"></path><path d="M177.75,180c-.17-.24-.73-1.11-.77-.27,0,.66-.21.67-.62,1.13s-.48.74-.91,1a4.5,4.5,0,0,1-1.34.49c-.19,0-.4.9-.35,1.14a5.59,5.59,0,0,1,.33,1.49c0,.45-.56.9-.7,1.33a2.17,2.17,0,0,0,.08,1.41,11.39,11.39,0,0,1,.26,1.43c0,.18.84.48,1,.4s1-.31,1-.36l.33-1.1,1.19-4a5,5,0,0,0,.26-2.27l.34.34a3.34,3.34,0,0,0-.1-2.09Z" fill="#075b5d"></path><path d="M218.19,155.56c-.61-.34-.91.22-1.33.49,0,.43-.07.52.27.71a.65.65,0,0,0,.37.11c.18,0,0-.12.12-.17s.47-.08.51-.33.09-.56.33-.54c0-.23,0-.4-.23-.44Z" fill="#075b5d"></path><path d="M202.87,101l0,0c-.51.3-.46.31-.48,1,0,.34.12.69-.21.73l-1.51.15-2.67.27c.05.3.11,1.48.37,1.53s.77,0,.92.16a3.08,3.08,0,0,1,.32.86c-.24,0-.55.17-.76,0a4.28,4.28,0,0,0-.69-.43,2.38,2.38,0,0,0-1.92-.24c-.26.08-1.41.58-.75.89a18.24,18.24,0,0,0,1.74.72c-.42,0-2,0-2.27-.43-.32-.58-.36-.57-.05-1.16.13-.25-.31-.86-.53-.8.08.18.34.9,0,1s-.79.24-1,.63.37.84.55,1.11-.16.79-.32,1.13.13.78.21,1.06c0,.1,1.07-.13,1.19-.15a1,1,0,0,1,1,.24c.33.24.28.63.34,1l-.81-.94c-.16-.19-.73.13-.94.19-1.06.32.23,1.09-.27,1.6a6,6,0,0,1-1.74,1.5,2.06,2.06,0,0,1-2-.62c.23,0,.84.24,1,.11l1.33-.82c.26-.16.4-.83.52-1.11.21-.52-.25-.57-.65-.84s.35-2.12.14-2.55c-.11-.24-.54-.82-.45-1.07l.53-1.45c-.46,0-2.42-.51-2.58-.07s-.24,1.16-.52,1.38l-1.24,1c.19.12.84.37.74.61s-.56.87-.29,1.08l1.26.94c.17.12,0,.84-.07,1.06a6.46,6.46,0,0,0-1.18-.9l-1.71-.68a4,4,0,0,0-2.85-.1c.36.47.59.51.23,1s-.36.49-1,.32l.25-.42a1.34,1.34,0,0,0-1.16.1,1.81,1.81,0,0,1-1.18.08c-.31,0-.5.65-.87.56-.56-.14-.56-.14-.74-.74l-1.91.87L177,111c-.15.07-.55.16-.65.3-.24.31.08.64-.36.7s-.71.25-1-.06-.59-.52-.39-.86.8-.15,1-.17c-.21-.28-.44-.81-.79-.86l-1.39-.18c.08.1.49.48.46.6-.08.35-.17.7-.25,1.05,0-.08.4.52.42.59s-.1.61-.15.83l-1.15-.34c-.23-.07-.58.3-.77.42l-1.08.73a7.5,7.5,0,0,0,.37,1.09l-1.44-.5c-.59-.2-.62-.31-1.1.13.21.27.32.54.64.54s.46.49.16.61c-.52.22-1.19-.39-1.72-.62s-.38-1.23-.38-1.75-1-1.15-1.3-1.49a14.47,14.47,0,0,0,3.42,1.16,2.23,2.23,0,0,0,1.56-.1c.3-.1.35-.27.54-.56.3-.46.32-.45.15-1a1.84,1.84,0,0,0-1.25-1,8.81,8.81,0,0,1-1.7-.8,3,3,0,0,0-1.62-.55c-.33,0-1.54.26-1.44-.44.24.06.56.27.65-.06-.16-.08-.61-.42-.72-.26-.24.32-.59.17-1,.13-.15,0-.58.12-.62,0-.14-.34-.47-.23-.63-.53a3.92,3.92,0,0,0,1,.1c.14,0,.8-.37.44-.51l-1.28-.5c-.41-.16-.12.76-.61.38l.35-.58c-.13,0-.61-.12-.7,0l-.56.75q-.06-.31-.12-.63c-.27.33-.63,1-1,1.11a2.68,2.68,0,0,1,.82-1.39,2,2,0,0,0-1.15.2c-.33.2-.52.79-.89.9a22.19,22.19,0,0,0-2.79,1,6.56,6.56,0,0,0-2,1.83,15.9,15.9,0,0,0-1.81,2.14,10.69,10.69,0,0,1-1.55,2.36c-.34.32-.64.64-.95,1a3.33,3.33,0,0,1-1.17.74,5,5,0,0,0-1,.61c-.57.48-.62.49-.66,1.27s.31,1.81.34,2.73c0,.75,1.25.9,1.73.61.31-.19.56-.52.86-.74s.54-.37.68-.92c.07.2.1.55.3.6s0,.41.1.62a3.4,3.4,0,0,0,.31.64c.07.16,0,.41.11.54.24.31.82.8.67,1.21a1.74,1.74,0,0,0,.06.72c.06.39.09.3.44.28s.37.06.44-.18,0-.44.24-.48c.5-.11.93-.11,1.18-.68a7,7,0,0,0,.23-1.56c.08-.57.41-.71.82-1.07.24-.21.8-.49.65-.82s-.88-.45-1.11-.85c-.54-.94.31-2,.81-2.59.17-.22,2.18-1.25,1.94-1.68s-.1-.76.23-1.13c.52-.58.58-.55,1.32-.52a1.07,1.07,0,0,1,1.09.81c.13.43-.21.22-.42.32s-.49.61-.66.82c-.33.42-.8.67-1.15,1.06-.14.16-.57.49-.62.7a3.29,3.29,0,0,0,.25,1,1.64,1.64,0,0,1,0,.82c-.07.49-.12.46.31.63a1,1,0,0,1,.62.55c.07.12.52,0,.63-.07,1.09-.21,2.18-.47,3.25-.68-.06.07-.06.21-.11.29.3.13,1,.25,1.12.61-.18,0-.56-.18-.72-.07s-.53.07-.73.19.13.39-.39.33l-1.15-.14a3.23,3.23,0,0,0-1.55.43c-.07,0,.06.59.14.67a3.36,3.36,0,0,0,.3.32c.05,0,.19-.14.27-.08s-.09.66-.06.81-.16.63-.43.61c-.49,0-.65-1.13-1.32-.64-.26.19-.13.5-.29.69a.94.94,0,0,0-.23.7c0,.34.47,1.71-.28,1.35a1.17,1.17,0,0,0,.29-.42c-.11.18-.31.25-.46.39s-.18,0-.23.06-.09.32-.18.42c-.23.27-.83.21-.84-.24.08,0,.25.1.29.12a1.4,1.4,0,0,0-1.71.32c-.2.27-1.22.29-1.51.47l.39,0a.78.78,0,0,1,0,.26c-.23-.13-.47-.19-.56-.46a.86.86,0,0,0-.59-.39c-.41,0-.81.72-1.28.44l.19-.42c-.48.23-1-.21-1.05-.73-.11-.71.51-.88.85-1.41-.57-.14-.43-1-.17-1.34-.37.19-.7.61-1.09.62s-.61.57-.59,1.06c0,.3,0,.41.18.59s.08.39.18.71.35.28.06.51.18.44.31.49c-.24,0-.52-.06-.46.28a2.07,2.07,0,0,0-.56-.06l-.35.05c-.11,0,0,.22-.11.24-.42.14-.78-.12-1.14.32-.11.13-.39.09-.43.26a1.71,1.71,0,0,1-.34.81c-.06.08,0,.23-.06.29s-.34.06-.34.09.34.18.46.22a1.41,1.41,0,0,0-.85.11c-.18.08-.8.23-.89.37-.2.32.22.58-.18.78a1.94,1.94,0,0,0-.84.5c.09,0,.17.08.26.08a1.46,1.46,0,0,1-.92.12c-.19,0-.17,0-.24-.25s-.31-.11-.44-.12a3,3,0,0,1,.27.81c0,.18-.62.29-.74.31-.34.09,0-.57-.56-.21a1.6,1.6,0,0,1-.86.15.43.43,0,0,0,.28.41c-.07,0-.14.06-.22.07a.37.37,0,0,0,.43.21c.26,0,.33.09.55.26,0,0,.35,0,.47.11s0,.21.27.15c-.06.15,0,.66.26.75.49.15.39.32.4.84s.09,1.88-.59,2a2.21,2.21,0,0,1-1-.1c-.35-.13-.68.07-1.07-.06a1.71,1.71,0,0,0-1.2,0c-.36.09-.56-.42-1,0a.92.92,0,0,1,.07.14c-.16,0-.6,0-.69.24s.06.59.3.4a2.12,2.12,0,0,0,0,1.23c.18.42-.14,1.09-.25,1.52s-.3.54,0,.94c.06.09.2-.1.21.05s0,.29,0,.43a2.81,2.81,0,0,1-.1.76c.31-.23.56.06.9-.13s.59.33.93.17c-.34.25.15.86.43.77s.54-.58.93-.56a9.5,9.5,0,0,0,1.32,0c.14,0,.3-.41.38-.53s.44-.15.59-.19c-.13-.26.29-.6.45-.82s-.28-.54-.15-.74c.41-.71.62-1.26,1.31-1.62.23-.12.81-.27,1-.49s-.09-.88,0-1,.5-.61.72-.54l1.27.42a6.13,6.13,0,0,0,1.57-1c.18-.22.48-.13.73,0,.47.25.47.28.6.84s.74.82,1.19,1.25c.25.25.45.59.79.55.19,0,.68.34.64.56a.26.26,0,0,1,.4.26c0,.21.29.22.42.23s.49,1,.34,1.1,0,.27-.25.41a3,3,0,0,1-2,.06c-.63.7,1,.65,1.13,1.13.08.27.75.16.59-.17a.69.69,0,0,1,.24-.93c0,.54.65,0,.61-.37s.8-.34.31-.72c-.17-.13-.33-.12-.28-.36a.76.76,0,0,1,.3-.52c.2-.19.69.48.86.57.43-.58-1.27-1.28-1.6-1.56.37-.3,0-.29-.28-.3s-.51-.22-.8-.47-.21-.61-.39-.87a3.88,3.88,0,0,0-.81-.61c-.29-.22,0-.6-.06-.77-.26-.46,0-.5.39-.62s.34-.2.41.17.28.65.46.12a1.39,1.39,0,0,1,.59.95c.06.18.43.67.6.69a4.17,4.17,0,0,1,1.75,1.07c.39.31.57.31.52.84s-.2.82.21,1.17c.24.19.37.65.55.92.32.48.32.54.85.54-.57.46-.42.53-.2,1.26.21-.17.33-.24.44,0s.33.24.61.29c-.1-.3-.22-.41,0-.6s.2-.39-.12-.45c.26-.33.43-.09.68.1.09-.61-.37-.71-.78-1,.32-.33.31-.28.08-.68s-.43-.53-.17-.81c.23.17.43.37.7.14.07-.06-.12-.31,0-.36s.34-.18.49-.14a6.1,6.1,0,0,1,.85.13c.22.09.44.09.63.17-.25.15-.45.22-.41.58l1-.92c.22-.21.84.22.95-.12,0-.12-.64-.43-.77-.68s-.3-.88.12-1.15.4-.67.51-1.2c0-.17.41-.15.51-.29a2.56,2.56,0,0,0,.11-.71c0-.3.6-.73.79-.94s.91.14,1.2,0c-.14.3-.48.16-.75.14.13.09.34.33.49.32a1.84,1.84,0,0,1,.65,0c.66.22-.31.57-.56.71.51.24.79.17.57.78.36.29,1-.29,1.34-.47s.65.22.94-.3c-.41,0-.8.15-1.05-.15s-.43-.86.07-.8l-.09.19a1.83,1.83,0,0,1,1-.55v.15a1.66,1.66,0,0,1,1.21-.49c.12,0,.54-.15.45.14s-.6,0-.47.35l-.52,0c.11.23.37.38.56.54-.41,0-.77.16-.61.72l-.52-.1-.15.21c.18.14.36.29.55.41a4.59,4.59,0,0,0,.47.28c.47.06.75.48,1.1.81s.7.38,1,.72.41.84.06,1.05a1.76,1.76,0,0,1-1.23.38c-.43-.05-.69.2-1.11,0-.25-.1-1-.22-1.13-.37-.29-.4-.18,0-.46-.17s-.35-.24-.25-.4a2.79,2.79,0,0,1-1.19,0,1.86,1.86,0,0,0-1,.42c-.41.27-.44.42-.95.34-.28,0-.89-.16-1,.13l.5.26a2.63,2.63,0,0,1-1.47.33c-.32,0-1.08.17-1,.76l.53-.06c-.53.59.32,2,.81,2.31.27.16.81.61,1.14.55s.34,0,.45-.39.32-.14.58-.09.58.53,1,.52a2.28,2.28,0,0,0,.69,0c.18-.09.34-.49.53-.53s.33.26.47.15.31-.33.44-.18-.39.87-.16,1.22c.37.54-.58,2.2-.76,2.74a1.45,1.45,0,0,1-2,.63c-.57-.28-.62-.19-1.2.09a1.13,1.13,0,0,1-1.14.09l-1.49-.44c-.11,0-.35.25-.42.12s-.14-.37-.39-.42l-.93-.19c-.19,0-.06-.35-.21-.39a2.6,2.6,0,0,0-1.67.11c-.14,0-.3.47-.37.6s.2.44.11.62c-.39.76-.71.66-1.31.23-.43-.3-.86-.23-1.32-.42s-.38-.82-.91-1l-2.07-.55c-.4-.11-.79-.63-1.11-.92.2-.22.8-.65.64-.93-.33-.62-.27-.65,0-1.3-.4-.17-.76-.48-1.14-.24a2.11,2.11,0,0,1-1.4.16,2.87,2.87,0,0,0-.57,0c-.2,0-.4.28-.61.29a2,2,0,0,1-.61-.2,2.41,2.41,0,0,0-.77.08,9.24,9.24,0,0,0-2.5.78,13.61,13.61,0,0,0-1.19.71c-.09.05-.46-.22-.55-.28s-.59.09-.76.13c-.4.09-.76-.59-.89-.55-.5.14-.59.83-.79,1.33-.28.71-1.74.85-1.85,1.58l-.28,1.86c-.08.5-.26.5-.66.76a4.15,4.15,0,0,0-1.78,1.56l-1.94,3.51a3.05,3.05,0,0,0-.43.78,5.52,5.52,0,0,0,.32,1.43c.13.56.25,1.11.38,1.68.07.34-.28.91-.39,1.22s-.42.83-.32,1l.65,1.13,2,3.51a3.92,3.92,0,0,0,1.41,1.43l1.58,1.14c.21.15.51.51.77.42l1.65-.58a1.76,1.76,0,0,1,1.17.1c.43.11.61.22,1,0l1.51-.77a7.21,7.21,0,0,1,2.54-.29l1,1.28c.25.3.93.08,1.27.07.59,0,.57,0,.95.53s.3.49.23,1.06-.16,1.33-.23,2c0,.33-.18.67,0,.93l1.09,1.46c.19.25.62.64.7,1l.75,3.21c.23,1,.56,1.75,0,2.7a9,9,0,0,0-.75,3.22c0,.24-.19.67-.08.9l.77,1.57a8.18,8.18,0,0,1,1,2.41l.31,2c0,.24,0,1.05.21,1.23s.69.52.83.87l.71,1.76c.11.27.45.81.41,1.11-.08.79-.1.78.45,1.27.16.15.61.74.84.7l1.39-.29,3-.64c.28-.06.7-.59.91-.78a14.33,14.33,0,0,0,1.16-1,24.21,24.21,0,0,0,1.74-2.46,4.44,4.44,0,0,0,.15-1.42c.06-.59,0-.81.43-1,.29-.14,1.14-.35,1.32-.63a5.23,5.23,0,0,0,.18-1.61c0-.33-.43-1-.55-1.33s.17-.62.47-1l1-1.19c.26-.3,1-.47,1.3-.63a2.35,2.35,0,0,0,1.21-2c0-1,.16-2.33-.45-3.15a1.37,1.37,0,0,1-.39-1.27,1.72,1.72,0,0,0-.37-1.48c-.23-.35,1.22-2.34,1.45-2.73a25.79,25.79,0,0,1,4-4.51,8.74,8.74,0,0,0,1.18-1.95,11,11,0,0,0,1.28-2.54c.05-.23.45-1.31.34-1.5s-.77,0-1,0l-3.38.91c-.33.08-.78-.76-1.19-.89.61-.59-.18-1.09-.57-1.54l-.7-.82c-.15-.18-.76-.14-.84-.36a11.19,11.19,0,0,0-.75-2,4.84,4.84,0,0,0-.77-.75c-.19-.18-.17-.67-.21-.92-.07-.44-.14-.87-.2-1.31,0-.25-.44-.53-.6-.7-.37-.4-.28-1-.54-1.5l-1.26-2.58c-.21-.42-.85-1.19-.49-1.66a6.27,6.27,0,0,0,1.12,1.7l.45-1.36c-.05.38-.11.76-.15,1.14.4-.11.53.42.71.73l1,1.85c.16.29.47.42.6.68a5.32,5.32,0,0,1,.62,1.38c.06.33.05,1.26.36,1.38.53.2.58.3.89.81a7.44,7.44,0,0,1,1.2,2.55l.36,1.95c.12.64.17.5.79.5.4,0,.47-.42.84-.51s1-.29,1.48-.39c.24,0,.42,0,.56-.24s.14-.26.31-.32l1.73-.62c.32-.12.27-.59.62-.74l.76-.33c.17-.07.43.14.59.06s.19-.68.4-.78l1-.5c.34-.16.49-.12.49-.53a2.26,2.26,0,0,1,.29-1.09c0,.11.1.21.11.32.22-.26.93-.84.94-1.18s.16-.58-.17-.63-.34-.51-.44-.68-.39-.15-.6-.25a4.89,4.89,0,0,1-.71-.48c-.38-.26-.27-1-.31-1.49a8.11,8.11,0,0,1-1.35,1.53,4.74,4.74,0,0,1-2,.25,3.54,3.54,0,0,0-.27-1.76c-.06.37-.12.74-.18,1.11-.43-.82-.83-1.66-1.31-2.45-.14-.22-.77-1-.59-1.2.53-.62.52-.65,1.28-.54.44.07.52.61.71,1a1.43,1.43,0,0,0,.94,1c.33.15.56.6.92.65a2.46,2.46,0,0,0,1.47,0c.66-.24.58-.05.91.61.19.37.61.33,1,.41a7.73,7.73,0,0,0,2.53.42c.38,0,2.66-.55,2.81-.23s.32,1,.59,1.16a6.22,6.22,0,0,0,1.32.76,2,2,0,0,0,.54,0c-.05.42-.68.38-1,.44.3.32.78,1.13,1.2,1.14s.41.06.63-.26l.68-.93q.05,1.61.1,3.22a6.51,6.51,0,0,0,0,1.13,8.25,8.25,0,0,0,.62,1.42c.74,1.68,1.47,3.35,2.32,5l.92-.6c.29-.19.22-.56.26-.91.34.36.52.43.5.94a10.34,10.34,0,0,0,0,1.51c.11,1.17,1.57.41,1.2-.45a4.59,4.59,0,0,0-.68-1.28,2.57,2.57,0,0,1-.61-1.3c-.1-.38.2-1,.3-1.33a5.65,5.65,0,0,0,0-1.41c0-.48-.16-.78.25-1a4.12,4.12,0,0,0,1.09-.54l2.27-2.33.8-.82c.1-.1-.06-.47,0-.58s.4-.06.47-.06l1.63-.23c.31,0,.68-.44.94-.62a4.27,4.27,0,0,0,1,1.75,4.15,4.15,0,0,1,1.07,1.83c.09.2-.1.78-.13,1-.07.51-.11.47.36.58s.42.11.72-.25l.7-.86a13.58,13.58,0,0,1,.8,3.29,12.18,12.18,0,0,1,.12,1.85c0,.32-.31,1.47-.11,1.68l1.31,1.4a5.82,5.82,0,0,1,.56,1.7c.2.61.23.82.7,1.19a3.37,3.37,0,0,0,1.49.89,10.1,10.1,0,0,1-.49-1.24c-.1-.44.07-1-.09-1.44a3,3,0,0,0-.79-.89c-.27-.21-1-.53-1.06-.88s-.29-1.37-.47-1.36c-.35,0-.35.08-.38-.3a1.43,1.43,0,0,1,0-.6,5.15,5.15,0,0,0,.43-1.35c.06-.79-.07-.89.65-.92l-.07.54a2.32,2.32,0,0,1,1.72,1l.92,1c.23.24-.21.73.1,1.05a33.84,33.84,0,0,0,2.72-2.31c.31-.29.08-1.29.06-1.71,0-.69-.26-.87-.68-1.41s-.69-.85-1-1.31l-.61-1c-.07-.12.2-.71.24-.84.14-.45,1-.86,1.3-1.13a1.22,1.22,0,0,1,1.41.17c-.12,0-.22.12-.34.15,0,.12.15.59.25.64.36.19.35-.23.31-.43s-.12-.31.14-.41l.62-.23c.21-2.25.32-4.53.32-6.83A73.77,73.77,0,0,0,202.87,101Zm-23.21,37.57c-.11.23-.22.46,0,.7.07.08.32,0,.39.06a1.34,1.34,0,0,1,.14.43,2.27,2.27,0,0,1-.27,0c.28.51.6.18.46.89a4.55,4.55,0,0,0,.06,1.39,4.16,4.16,0,0,1-1.41.17l-.87-.27c-.24-.07-.25-.29-.55-.37s-.44,0-.48-.39a1.66,1.66,0,0,1,.05-.87,5.79,5.79,0,0,0,.27-.78c.11-.44.18-.39.58-.51a1.64,1.64,0,0,1-.86-.88c-.17-.3-.54-.41-.68-.73a2.54,2.54,0,0,1-.3-1.33.72.72,0,0,0-.7-.68c.13-.15.45-.36.49-.57.09-.44.06-.46.44-.61.16-.07.76-.21.81-.4.16-.67.12-.39.66-.48.21,0,.56-.38.76-.3s.59.37.8.12.44.34.5.46c.15.27,0,.59-.13.88.55.17.69-.26.9.39-.42.05-.51.27-.75.61a.76.76,0,0,1,.46-.71,6.14,6.14,0,0,0-1.33-.2.62.62,0,0,0-.53.22c-.19.28,0,.32.25.53-.34.25-.42-.15-.75-.07s.43.38.43.4a3.19,3.19,0,0,0,.16,1c.16.2.67.31.9.41a1.14,1.14,0,0,0,.12,1.33c0-.31.09-1.18.64-.84.13.08.12.42.24.53s.47.3.4.61A3.63,3.63,0,0,1,179.66,138.58Z" fill="#075b5d"></path><path d="M134.24,115.15c.37.1.6-.19.58-.6.3.16.46-.13.67-.34-.25-.17-.06-.51-.18-.59s-.45-.33-.74-.22c.36-.61-1.4-1.32-1.09-.53-.53-.05-.66.21-1.17,0,0,.19.05.38.08.57-.2-.29-.26-.52-.59-.53s-.37.29-.28.54c-.19-.2-.36-.53-.64-.47.22.53-.07.27-.21.5a5.5,5.5,0,0,0-.26.61,7,7,0,0,1-.39-.64.23.23,0,0,0,.28-.24c0-.14-.31-.2-.38-.26-.38-.33-.36-.41-.86-.4.07.25.24.2.46.24.07.65-.59-.07-.8.18s.2.3.13.45-.29,0-.42,0,0,.14,0,.21c-.19,0-.15,0-.3.11.43.19.55.1,1-.08.21-.08.64.12.86.18l-.54.26a.54.54,0,0,0,.51,0v.15c-.52,0-1,.2-1.52.19.08.39.93.2,1.22.2-.15.17-.06.31.15.28l0,.17.16,0c-.13.38-.76.26-.6.69l1.24-.16c.11,0,.21.29.3.34a2,2,0,0,0,.56.12,1.3,1.3,0,0,0,1-.06c.16-.08.12-.22.32-.25l.57-.08C133.5,115.56,134,115.08,134.24,115.15Z" fill="#075b5d"></path><path d="M94.36,155c-.19,0-.3-.33-.39-.32a1.36,1.36,0,0,1-1.1-.53l0,.1a5.88,5.88,0,0,0-2.57-1.1,4.14,4.14,0,0,0-1.5.2c-.43.11-.55.52-.89.74.69.36,1.47-1.19,2.15-.5a.45.45,0,0,1-.35.07.48.48,0,0,0,.5.18c.21-.07.23.1.46.11s.73.28,1.13.34.39.49.8.68c.11,0,.51-.06.51.23,0,.09-.34.35-.41.42.51.09,1,0,1.54,0l.81-.24A1.41,1.41,0,0,0,94.36,155Z" fill="#075b5d"></path><path d="M92.27,156.83a2.35,2.35,0,0,0,.76.4c.15,0,.34-.21.62-.12a1.87,1.87,0,0,0-.16-.25C93.15,156.75,92.54,156.41,92.27,156.83Z" fill="#075b5d"></path><path d="M88.66,116.95c-.19.16-.26.13-.17.38,0,.08.07.33.16.33a1.24,1.24,0,0,0,1.28-1H89.5A1.45,1.45,0,0,0,88.66,116.95Z" fill="#075b5d"></path><path d="M92.36,103c-.2-.11-.49.05-.71,0l-.77-.28a.45.45,0,0,0-.11.85c.31.15.06.25.23.49a1.7,1.7,0,0,0,.46.27c.23.14.95-.18,1.21-.24a4.44,4.44,0,0,1,1.07,0A3.45,3.45,0,0,0,92.36,103Z" fill="#075b5d"></path><path d="M95.56,110.91a.5.5,0,0,0-.87-.28C94.44,110.91,95.47,110.91,95.56,110.91Z" fill="#075b5d"></path><path d="M89.92,115.46c.47-.47-.76-1.08-1-1.24s-.47-.07-.62-.23-.3-.35-.55,0a.86.86,0,0,1-.14-.28c.49-.09.33-.76-.08-.57s-.41.56-.54,1c-.05.2-.08.4-.12.6s.12.37.07.49-.55.51-.67.69a8,8,0,0,1,1-.18c.1.06.16.87.34.75s.47-.57.71-.65c.39-.14.34-.46.74-.61-.09.63,1,.76,1.36.87l.57-.38A1,1,0,0,0,89.92,115.46Z" fill="#075b5d"></path><path d="M94.21,111.46c.26-.42.05-.61.21-1-.53-.74-1.94.32-1.34.86C93.31,111.49,94,111.87,94.21,111.46Z" fill="#075b5d"></path><path d="M91.45,117.33c-.24-.08-.48.21-.5.42s.1.35.29.56C91.43,118.12,92,117.52,91.45,117.33Z" fill="#075b5d"></path><path d="M103.37,131.1a2.38,2.38,0,0,0-1.89-.71C101.9,130.72,102.85,131.52,103.37,131.1Z" fill="#075b5d"></path><path d="M101.74,133c-.32.6.24.7.64.89s.51,0,.79-.36l-1.25-.1Z" fill="#075b5d"></path><path d="M140.89,124.58a.44.44,0,0,0,.12.3C141.1,124.72,141.05,124.61,140.89,124.58Z" fill="#075b5d"></path><path d="M214.19,172.41c.31-.31,0-.3,0-.56s0-.61-.17-.66-.5-.12-.52-.29.2-.36.16-.56-.46-.27-.46-.46c0-.35-.13-.19-.36-.36s0-.23-.35-.3c-.24,0-.4,0-.55-.22-.27-.38-.69-.5-1-.82a8.54,8.54,0,0,1-1-.88c-.31-.44-.22-.67-.8-.73-.18,0-1.05-.35-1.14-.23s.55,1.08.68,1.19.85.35.87.85.67.45.8,1l.24.91c.06.21.26.13.38.27a6.39,6.39,0,0,1,.7,1.53,3.86,3.86,0,0,0,.75,1c.51.56,1,1.1,1.59,1.64.31-.77.6-1.55.88-2.34A.5.5,0,0,0,214.19,172.41Z" fill="#075b5d"></path><path d="M162,143.56c0-.25-.48-.34-.71-.31a1.17,1.17,0,0,1-1-.26,1,1,0,0,0-.16.34A5.11,5.11,0,0,0,162,143.56Z" fill="#075b5d"></path><path d="M167.18,143.66c-.18-.32.14-.46.34-.64-.22.1-.54.34-.77.32s-.65-.12-.75.08C165.65,144.09,167,143.7,167.18,143.66Z" fill="#075b5d"></path><path d="M215,171.7c-.2-.3-.28,0-.42.18a.35.35,0,0,0,.32.08s.06,0,.09.09l.16-.47a.22.22,0,0,0-.19-.07C214.93,171.58,214.94,171.64,215,171.7Z" fill="#075b5d"></path><path d="M150.57,138a2.61,2.61,0,0,0,.15-1.33c-.19,0,0,.2-.14.35a2.44,2.44,0,0,1-.43.36C149.91,137.62,150.35,138,150.57,138Z" fill="#075b5d"></path><path d="M159.13,122.29c.2-.35.61-.44.93-.64a1.47,1.47,0,0,0-1.09,0A.52.52,0,0,1,159.13,122.29Z" fill="#075b5d"></path><path d="M151.45,124.87c-.06-.24-.26-.18-.46-.07,0,.17.31.55.48.51A.23.23,0,0,0,151.45,124.87Z" fill="#075b5d"></path><path d="M157.09,108.54l.41-.13.58-.27C157.79,107.95,157.29,108.28,157.09,108.54Z" fill="#075b5d"></path><path d="M146.84,139.67c-.25-.46-.4-.23-.76,0l.41.32Z" fill="#075b5d"></path><path d="M89.74,98.74c.28.3.43-.08.62.07s.16.33.07.69l1.19-.36c.12,0,.18-.26.29-.31s.16.17.3.12.42-.08.41-.21,0-.47-.12-.54-.27-.22-.48-.1-.25.23-.42,0,.58-.75.71-.86c.4-.35-.23-.53,0-.69s.69.23.92.15a1.42,1.42,0,0,0,.9-.67l-.68-.37,1.19-.15c0-.49-1-.53-1.33-.61h1.37c.1-.51-1-.42-1.44-.42q-2.16,2.11-4.14,4.39C89.32,99.07,89.72,99.17,89.74,98.74Z" fill="#075b5d"></path><path d="M86.87,101.61c.22.3.78.41.9,0,.11.45.74.16,1,.11,0-.17-.06-.34-.09-.51.43,0,.19.46.5.57a1.4,1.4,0,0,0,.74.15c.17,0,.93,0,1-.22.11-.39.24-.35.6-.47A1,1,0,0,0,91,101l.49-.37a2.4,2.4,0,0,0-2.26-.7c-.35.12-.65-.06-1,.07l-.09,0q-.77.92-1.5,1.87h.31C86.87,101.81,86.9,101.7,86.87,101.61Z" fill="#075b5d"></path><path d="M100.8,205.49l.63-1.36c.11-.23-.3-.65-.35-.89a5.37,5.37,0,0,1,0-1.14c.69.34,1.07.54,1.73.08.14-.1,0-.5.12-.75s.05-.57-.08-1a2.92,2.92,0,0,0,1.62,0c.67-.18,1.23-.17,1.65-.78.14-.21.52-.59.57-.85a4.1,4.1,0,0,0-.23-1.13c-.12-.59-1.25-.66-1.07-1.34.31.1,2.29,1,2.44.77l1.9-2.44,2.07-2.66c.17-.21.12-.67.15-.93s0-1.46.19-1.58l2.49-1.71c.28-.19,1-.07,1.36-.1s.5-.5.68-.78c.43-.66,1.3-1.52,1.36-2.36.09-1.26.18-2.52.27-3.78a2.51,2.51,0,0,1,.65-1.22l1.78-2.57c.48-.7.46-.68.26-1.56-.09-.41-.19-.81-.28-1.22,0-.09-.87-.1-1-.12a11.48,11.48,0,0,0-2.21-1.59l-2.73-1-2.73-1c-.16-.06-.39-.5-.49-.64l-1.28-1.67c-.42-.55-.94-1.66-1.61-1.82s-1.93-.19-2.49-.72l-2.65-2.55a3.29,3.29,0,0,0-1.71-.6l-3.4-.79c-.43-.1-1.22-.48-1.66-.32l-1.44.52c-.18.06-.83.17-.94.35-.34.57-1.22,1.54-1.19,2.25a2.5,2.5,0,0,0-1.22-.95c-.59-.18-.88.05-1.44.28-.91.37-2.12-1.26-2-2.26,0-.21.2-.39.24-.61.06-.37.11-.74.17-1.11a1,1,0,0,0-.73-1.14,3.21,3.21,0,0,0-.82-.12c-.22,0-.39.16-.62.13a9,9,0,0,1-1.63-.13c.16-.15.57-.6.45-.84s.3-1-.07-1a1.7,1.7,0,0,1,.2-.33.56.56,0,0,0,.14.51,4.64,4.64,0,0,1,.24-.87l-.11.08,0-.05c.08-.05.13-.14.21-.21-.2,0-.15-.08-.24-.13.17,0,.5-.73.6-1,.25-.61-.55-.44-.83-.47a3.76,3.76,0,0,0-1.1.22c-.5.2-.46.75-.59,1.22a1,1,0,0,1-.39.54c-.09.08.06.22,0,.27a1.37,1.37,0,0,1-.31.15c-.09,0-.23-.19-.4-.17a2.19,2.19,0,0,0-.65.15l-.73.27c-.11,0-.3-.27-.42-.31-.59-.17-.73-.55-1.09-1.09a4.65,4.65,0,0,1-.76-2.83,4.88,4.88,0,0,1,.3-1.29,2.22,2.22,0,0,0,.16-.58c0-.24-.33-.48-.33-.71,0-.77,1.29-1.72,1.82-1.94.33-.14.86-.53,1.2-.4.18.07.44.25.63.18s.46.09.75.3.38-.19.54.16c0-.13.08-.19,0-.37.18.11.55.21.45.46a.2.2,0,0,0,.25-.25c0-.07-.39-.2-.46-.23.69-.33-.23-.44-.48-.47.35-.28,1.56.11,1.63-.43.11.62.72.13,1.09.23a2.93,2.93,0,0,1,.64.42c.21.14.45,0,.67-.1.42-.13.61.35,1,.59s0,.85.15,1.26l.14-.12c-.08.31.05.47.17.73a4.3,4.3,0,0,1,.3.73s.41.39.47.48c.22.31.38.06.56-.13s.16-1.12.06-1.46a12.27,12.27,0,0,0-.67-1.82,1.83,1.83,0,0,1-.1-1.32,2.32,2.32,0,0,1,1.16-1.32,2,2,0,0,0,.47-.53c.16-.2.46-.15.55-.27s.29-.57.46-.67.24.13.35.07l.42-.23c-.2-.12-.39.15-.51-.15.14,0,.2-.07.31-.11-.08,0-.14-.12-.21-.16.14,0,.66,0,.68-.19.06-.37-.37-.29-.62-.29.29-.09.49-.06.57-.39s-.25-.28-.32-.53.14-.54.07-.69-.41-.24-.53-.43a1.31,1.31,0,0,1,.48.25c-.14-.62-.29-.86.22-1.22.21-.15,0,.3,0,.33a2.93,2.93,0,0,0-.15.69c.31-.09.23.23.39.32a1.79,1.79,0,0,0-.2.65l.06,0a7,7,0,0,1,.53-1c.16-.31-.28-.78-.3-1.13.09.29.52.45.38.69.22-.19,1.07-1.31.48-1.37.14-.26.57-.17.81-.19a1.69,1.69,0,0,0,.74-.29c-.11,0-.21,0-.32,0l.12-.1c-.38.06-.7.25-1.08.3a2.45,2.45,0,0,1,1.46-.45c.2,0,.15-.41.29-.38s.57.22.83,0a1,1,0,0,0-.18-.21l.07.16c-.86.09-.23-1.07-.1-1.41s.1-.4.32-.48.49-.16.66-.51l.13.14c.15-.29,1.25-.06,1.05-.71.14,0,.37.07.47,0s.19,0,.36-.09.66-.58,1-.5a1,1,0,0,0-.22.43c.23-.16.58-.07.84-.06-.21.19-.35.46-.58.26s0-.31-.24-.13-1.37.77-.94,1.38c.12,0,.32.31.51.12s.54-.71.81-.93.19.23.37.08a1.46,1.46,0,0,1,.45-.22l1.21-.49c-.08-.07-.11-.18-.19-.25a1.69,1.69,0,0,0,1-.27c.24-.1-.16-.54-.44-.32.09-.3.31-.64-.08-.78-.2.31-.79.86-.5,1.24a.67.67,0,0,1-.29.09l0-.23c-.43.31-.91.11-1.4-.13l.11-.09c-.34-.08-.81-.44-.65-.89-.1,0-.23,0-.32,0a1,1,0,0,0,.38-.59,1,1,0,0,0-.58,0s-.33-.34-.46-.37c.32-.22.54.2.82,0s.8-.4.37-.69c.07,0,.15,0,.22.08-.42-1-2-.15-2.58.13-.85.41-1.31,1.31-2.16,1.73a9.29,9.29,0,0,0,1.15-1.36,5.47,5.47,0,0,1,.75-.8c.17-.12.78-.18.83-.41.17-.85.82-.63,1.46-.67a12.46,12.46,0,0,1,2.1,0,1.58,1.58,0,0,0,1.59-.53,1.54,1.54,0,0,1,.68-.56c.32-.1.59,0,.87-.11a2.21,2.21,0,0,0,.79-.49c.24-.37-.12-.48,0-.8.06-.17.28-.71,0-.81s-.64-.34-.87.08c-.19-.24.16-.22,0-.53s-.48-.27-.69-.26a.42.42,0,0,0,.3.16,2,2,0,0,0-.82.23c-.1.05,0,.15-.2.21a.72.72,0,0,0-.41.26c-.15.19-.24-.35,0-.44s.79-.11.94-.4c-.23.07-.51.23-.72.15a7,7,0,0,1,1.06-.31c.63-.1.06-.37-.24-.57a1.82,1.82,0,0,0-1.16-.33c-.27,0-.07-.24-.19-.44a2.46,2.46,0,0,0-.55-.44c-.06-.05-.39-.25-.41-.33s.3-.45.29-.64c0-.35-.56-1-.74-1.27-.32-.55-.76-1.92-1.43-1.95q0-.23.1-.46c-.29-.07-.71.5-.66.79s-.2.77-.38,1.14c-.07-.08-.2-.09-.27-.16-.32,1.73-1.86-1.07-2.29.21-.25-.23.21-.56.37-.76-.09,0-.18,0-.27,0a1.61,1.61,0,0,0,0-.93c-.06-.34,0-.42.22-.72a1.4,1.4,0,0,0-.86-.26c-.41.06-.62-.22-.71-.59s-.58-.47-.77-.61c-.39-.28-.49-.49-.91-.3-.66.31-1.27-.27-1.95-.19-.37,0-.59.17-.48.53a1.53,1.53,0,0,1,0,1.25c-.1.32.1.69.18,1,.16.58.13.52-.31.91s-.29.32,0,.76a6,6,0,0,0,.76.81,2.08,2.08,0,0,1,0,2c-.34.49-1.3.85-1.8,1.17.15.23.5.58.54.85l.25,1.51c.08.48-.88,1.51-1.32,1s-1.24-1.17-1.21-2c0-.56,0-1.13.07-1.69,0-.17-.77-.16-.92-.17L87.56,125c-.28,0-.72-.5-.94-.66a7.9,7.9,0,0,0-2.13-1.09c-.27-.1-.59-.3-.88-.23-.54.12-.67.33-.88-.24-.12-.31-.25-1.13-.49-1.34s-.83-.2-1.11-.26c.15-.7.29-1.4.44-2.1a5.66,5.66,0,0,1,1-1.68c.07-.1.28-.57.41-.56a1.57,1.57,0,0,0,.93-.15c.34-.16,0-.46-.18-.57a.9.9,0,0,0-.89-.12c.06,0,.1-.12.16-.18l-.81-.37c.41.11.82.21,1.22.33.64.2.69.17,1.25-.23.18-.13.39-.05.61,0s.39-.15.55-.23.55-.89.71-1.16a4.92,4.92,0,0,1-1.4-.18l-1.53-.77a4.27,4.27,0,0,1,2,.35c.42.23.57.42,1,.19a2.23,2.23,0,0,0,.63-.79l-.52-.31c.14-.33.54-.21.82-.22.13,0,0,.32.15.35l.56.13c0-.08,0-.15-.07-.22l.55.29-.35-.8c.23.22.44.6.72.42a4.11,4.11,0,0,0,1-.64c.33-.42.19-.65-.11-.94a2.81,2.81,0,0,1-.58-1c.19,0,.64,0,.78-.12s-.11-.48.09-.84a1.28,1.28,0,0,1-.9-.54c-.17-.2-.86-.18-1.11-.22s-.62-.18-.7.26.13.6.36,1c-.58.26-.59.22-.59.91,0,.14-.29.31-.37.39s-.15.32-.17.58c-.08.92-2-.78-1.12-1.25,0,.08,0,.17,0,.25.42-.13.2-.52.13-.86s-.6-.41-.76-.51-.38.42-.39.56a1.5,1.5,0,0,1-.36.82c-.35-.22-.28-.32-.19-.7s-.06-.4-.35-.65l.43-.3c-.3-.15-.53-.39-.82-.19s-.52,0-.82-.12l.91-.61c-.15-.18-.43-.42-.64-.66q-.48.74-.94,1.49c.16,0,.29,0,.3.26a1.38,1.38,0,0,0-.54.13l-.26.44a1,1,0,0,0,0,.17l.58-.28c0,.22.15.44,0,.59s-.41.51-.72.56c-.75.12-.53.66-.33,1.27a6.21,6.21,0,0,1-.63-.38A73.74,73.74,0,0,0,71,147.36c0,.81,0,1.62,0,2.43l.27.35c.07.09.32.31.29.44s-.15.41,0,.51l1.32,1.23a3.89,3.89,0,0,1,.65.78c.18.28.83,1,.73,1.31-.16.54-.38.77,0,1.15l1.23,1.25a2.39,2.39,0,0,0,.73.3l1.89.76c.78.31,1.61.91,2.43.66.36-.11.79-.42,1.09-.13L83,159.76c.52.51,1.63.56,2.29.75.86.24,1.23.87,1.84,1.58.24.28.15.74.34,1s.86.66,1.19.9l.47.36c.09.07.19-.1.34-.08s.81.58.91.27c.24.57.22.5.73.28-.06-.1-.32-.42-.23-.5a2.81,2.81,0,0,1,.53-.43c.27-.15.27-.16.53,0s.39.15.28.59.73.69.65,1.06c0,.14.06.53,0,.56-.2.2,0,.35,0,.63.17,1.21-.4,1.71-1.07,2.57l-.9,1.16a4.21,4.21,0,0,0-.31,1.26c-.15.63-.7,1.75-.37,2.36l1.58,3,1.92,3.59a3.09,3.09,0,0,0,1,1.33l1.56,1.08c.27.19.86.44,1,.73a4.71,4.71,0,0,1,.17,1.37,10,10,0,0,1,.19,1.55,13.68,13.68,0,0,1-.34,1.8l-.77,4-1.26,6.65c-.17.89-.27,1.8-.36,2.72q2.37,2.18,4.94,4.15a.59.59,0,0,1,.16-.08C100.52,205.89,100.6,205.94,100.8,205.49ZM91.86,136.9a4.81,4.81,0,0,1-1.32.77c-.52.19-.78.49-1.39.43l.1-.14-.45-.12a5.18,5.18,0,0,1,.56-.86c.06.21.08.09.18.25a.51.51,0,0,0-.39.38c.29.14.43-.06.64-.25a.78.78,0,0,1,.77-.28c.27,0,1.2-.21,1.2-.5C91.89,136.68,91.87,136.75,91.86,136.9Zm-.25-.88c.38-.08.85-.3,1.22-.14.21.09.82-.37,1.11-.49l-.43.37c.51.21-.49,1.07-1,.62S90.81,137.08,91.62,136Zm-7.7-3.54.9-.4c.25-.11.1-.44.45-.5a1.94,1.94,0,0,1-.09.24c.21-.09.17-.34.38-.45a.67.67,0,0,1-.12.35c.21-.13.43-.28.18-.48a1.45,1.45,0,0,1,.68.22c.18.08.4-.23.58,0,.33.52.33.81,1,.69-.16.47.1.29.2.61,0,.11-.14.19-.05.31s.16.19.09.31.85.39,1,.43c.45.09,1,.11,1.41.2s.49.8.82,1.1c-.29-.17-.19.14-.22.15-.18,0-.48-.17-.64,0,0-.08,0-.07-.11-.12.08-.08.06-.1.1-.19-.29,0-.14-.41-.49-.23.49.23.15.61,0,.93-.05.15,0,.46-.06.57l-.46.52c0-.22-.05-.93-.33-.95-.12,0-.63.46-.68.25s.25-.42.3-.44c.22-.15.16-.51,0-.72a.37.37,0,0,1,.11,0c-.08-.38-.38-.27-.59-.5s-.81-.26-.5.15c-.36,0-.28.38-.47.57,0-.12,0-.26,0-.38-.19.41-.68.52-.55,1.18a2.19,2.19,0,0,1-.08,1.59c-.56,1.12-.84-.32-.87-.88a3.66,3.66,0,0,1,.24-1.08c.07-.26.32-.64.28-.89-.22.14-.35.66-.62.61a3.23,3.23,0,0,1,.69-1.17c0,.06,0,.12,0,.18s.17-.08.26-.15l-.11.16.06.05a.81.81,0,0,1,1.23-.22c.1-.28.34-.14.57-.1-.13-.13-.19-.37-.33-.44s-.46,0-.37-.31a9.31,9.31,0,0,1-1.21.31c-.22-.13-.37,0-.53-.24s-.38-.21-.61-.08a.85.85,0,0,1,.51-.55c-.5-.39-1.45,1-2.11.6l.07-.18c-.28.09-.55.27-.83.13Zm-4.83-4.16c-.14-.27-.8-.91-.26-1-.47-.12-.57,0-.4-.64.1-.38.55-.15.78,0-.31-.22-.31-.34-.1-.72l.15.13a.41.41,0,0,0-.28.31c.14,0,.16,0,.26-.12l.07,0c-.29.17.37,1.62.51,2a2.1,2.1,0,0,0,.37.75c.17.15,0,.44.08.69-.05,0-.12,0-.17-.06,0,.16-.16.5-.25.21a.72.72,0,0,1,.21-.81,1.1,1.1,0,0,0-.25.13c0-.11.22-.4.12-.44s-.26.06-.32.18c0-.21.09-.49-.13-.57a.23.23,0,0,1-.07.13c0-.07,0-.14,0-.21-.17.09-.14,0-.18.24Z" fill="#075b5d"></path><path d="M84.41,105.33c0,.12.1.89.18.9.72.07,1.2,0,1.72.55l-1.57-.14a2.34,2.34,0,0,0,1,.92c.3.17.44-.06.68-.08.55-.05.15.1.45.37a1.74,1.74,0,0,0,.75.2,5.63,5.63,0,0,1,1.65.09l.49.19c.1,0,.17-.22.26-.21.25,0,.31.37.58.27l-.61-.57a3.66,3.66,0,0,0,2.11.22c-.15-.33-.2-.5-.54-.6.43-.4.39.23.69.37.11.05.39-.12.41,0s.07.34.1.51c.37-.39,1,.47,1.32.72-.56.16-.67.07-.67.72l.77-.29c.34-.13.31-.16.5.18s.8.31,1.07.79l.52,1c.08.15-.1.23-.21.34l-1.24,1.25c.13.1.66.36.56.62s-.8.23-.92.26a4.12,4.12,0,0,1-1.55-.11c.06.34-.38.43-.54.71s.24.64.46.63.75.06,1-.18.58,0,.89,0c0-.1.06-.22,0-.32.21,0,.34.09.34.32.54-.35.53,0,.87.51.19.29.55.26.86.43l-.54.27a1.46,1.46,0,0,0,.85.32l-.11.18,1,.26c.15,0,.13.35.38.41l2,.52c0-.32.14-.45-.11-.62l-.75-.53c-.16-.11-.53-.08-.63-.25l-.41-.71.72.32c-.06-.1-.06-.24-.11-.35l1.23.77c.22.14.6.64.75.59l-.16-.42c.07,0,.17,0,.25.07.16-.37-.36-.46-.16-.82l.34.45a3.17,3.17,0,0,0-.11-.89c-.14-.23-.42-.13-.48-.44s0-.47-.36-.61-.46-.31-.55.12l-.26-.81c-.11-.32-.17-.19-.45-.08l-.18-.57.56.07c0-.37-.41-.34-.19-.68s.33-.2.57-.06.42.54.65.59.53-.19.7-.25c.12.41-.28.45-.54.57a3.21,3.21,0,0,0,1.3,1,2.84,2.84,0,0,0,0-1.16c.49.34.69.07,1.21-.2l-.52-.25c.15-.19.5,0,.72,0,.05-.48.23-.77-.22-1a3.31,3.31,0,0,0-1.1,0l.29-.45c-.44-.06-.65,0-1-.39a1.53,1.53,0,0,0-.73-.54c-.73-.28-1.45-.55-2.17-.88l.61-.07-.09-.57.85.17c-.17-.47-.13-.45-.57-.37a1.34,1.34,0,0,1-.69-.18,1.25,1.25,0,0,1,1-.26c0-.36-.38-.53-.62-.69-.06.36-.42.44-.68.57.09-.38-.19-.31-.44-.36.32-.1.86-.1,1-.5-.28-.14-1.69-1.07-1.86-.67s-.62.64-.77.24c-.06-.18.59-.46.75-.55-.18-.61-1-.52-1.38-.36-.25.09-.87-.89-1.13-1.13a2.14,2.14,0,0,0-1.39-.54c-.2,0-.65,0-.8.14s-.46.55-.58.47c-.43-.26-.4-.28-.76.08-.2.2-.49.2-.3-.14s.27-.42.07-.84-.26-.26-.43-.49-.09-.59-.37-.6a2.08,2.08,0,0,0-.75,0,7.79,7.79,0,0,1-1.53.52l.15-.58a3,3,0,0,0-1.89.23,2.18,2.18,0,0,0-.46.27l-.65.88,0,.08C84.69,104.56,84.38,105.08,84.41,105.33Z" fill="#075b5d"></path><path d="M157.9,120c0-.07,0-.15,0-.22H158C157.92,119.35,157.34,119.68,157.9,120Z" fill="#075b5d"></path><path d="M71.51,152.87c0-.21-.18-.44-.35-.59,0,.3,0,.6.06.89C71.34,153.19,71.48,153.09,71.51,152.87Z" fill="#075b5d"></path><path d="M89.93,134.33l-.09.09.06,0c.11-.14.17-.2.11-.35l-.08.1a.28.28,0,0,0-.43-.16c-.23.1-.31-.12-.55,0l.19,0C89.37,134.24,89.71,134.46,89.93,134.33Z" fill="#075b5d"></path><path d="M83.94,133.13l-.07.18c.66.35,1.61-1,2.11-.6a.85.85,0,0,0-.51.55c.23-.13.45-.14.61.08s.31.11.53.24a9.31,9.31,0,0,0,1.21-.31c-.09.3.19.22.37.31s.2.31.33.44c-.23,0-.47-.17-.57.1a.81.81,0,0,0-1.23.22l-.06-.05.11-.16c-.09.07-.17.07-.26.15s0-.12,0-.18a3.23,3.23,0,0,0-.69,1.17c.27.06.4-.46.62-.61,0,.25-.21.63-.28.89a3.66,3.66,0,0,0-.24,1.08c0,.56.32,2,.87.88a2.19,2.19,0,0,0,.08-1.59c-.12-.67.36-.77.55-1.18,0,.12,0,.26,0,.38.18-.2.11-.54.47-.57-.31-.41.32-.33.5-.15s.51.12.59.5a.37.37,0,0,0-.11,0c.12.21.18.57,0,.72,0,0-.33.33-.3.44s.56-.26.68-.25c.27,0,.28.73.33.95l.46-.52c.1-.11,0-.41.06-.57.11-.33.45-.7,0-.93.35-.18.19.27.49.23,0,.09,0,.12-.1.19.08.06.08,0,.11.12.16-.16.46.07.64,0,0,0-.07-.31.22-.15-.33-.29-.3-1-.82-1.1s-1-.11-1.41-.2c-.16,0-1.08-.3-1-.43s0-.21-.09-.31.09-.19.05-.31c-.1-.32-.36-.14-.2-.61-.67.12-.66-.17-1-.69-.18-.28-.4,0-.58,0a1.45,1.45,0,0,0-.68-.22c.24.21,0,.36-.18.48a.67.67,0,0,0,.12-.35c-.2.11-.17.36-.38.45a1.94,1.94,0,0,0,.09-.24c-.35.06-.2.39-.45.5l-.9.4-.81.78C83.39,133.41,83.66,133.23,83.94,133.13Zm5.57.92a.28.28,0,0,1,.43.16l.08-.1c.05.15,0,.21-.11.35l-.06,0,.09-.09c-.22.14-.55-.08-.77-.18l-.19,0C89.2,133.93,89.28,134.15,89.51,134.06Zm-.61,0s0,.06,0,.09a.77.77,0,0,1-.34-.08l.13-.12Zm-.31-.23-.06.14-.14-.15S88.45,133.7,88.59,133.8Z" fill="#075b5d"></path><path d="M88.59,133.8c-.14-.1-.16,0-.2,0l.14.15Z" fill="#075b5d"></path><path d="M88.91,134.12s0-.06,0-.09l-.2-.11-.13.12A.77.77,0,0,0,88.91,134.12Z" fill="#075b5d"></path><path d="M150.19,139.05c0,.1-.16.29-.18.4s.17.15.16.2c0,.31-.31.34-.06.58s.41.21.43-.1.29,0,.33-.34.09-.68.13-1c.08-.7-.71-.28-.89-.15l-.2-.08C149.77,138.91,150.13,138.8,150.19,139.05Z" fill="#075b5d"></path><path d="M176.56,92.16l-1,.64a4.23,4.23,0,0,0,1.57.25l-.15-.53,1.88-.44c-.34-.23-.57-.43-1-.32a2.4,2.4,0,0,1-1.17.18,3.82,3.82,0,0,0-2.26.31l.87.23Z" fill="#075b5d"></path><path d="M179.25,106.31a2.29,2.29,0,0,0,1.49.79c.51,0,1.59.36,2,0-.71-.49-1.3-.92-1.33-1.92,0-.79.74-1.46,1.18-2,.27-.32.51-.66.76-1a4.36,4.36,0,0,1,1.06-.68,7,7,0,0,1,1.64-1c.79-.24,1.59-.47,2.37-.74.39-.13,2-.41,2-1.12s-1.54-.49-1.84-.25a5.49,5.49,0,0,1-2.16.86,4.61,4.61,0,0,0-1.87.33,6.59,6.59,0,0,0-1.78.74,17,17,0,0,0-1.41,1.33l-.92,1c-.24.27-.1.44,0,.81,0,.14-.64.52-.76.6-.43.31,0,.33-.24.73s-.6.16-.62.56C178.83,105.91,178.89,105.92,179.25,106.31Z" fill="#075b5d"></path><path d="M180.67,92.71c-.74-.27-.76-.23-1.39.28l.9.12Z" fill="#075b5d"></path><path d="M183.11,91.77a4,4,0,0,0-1.34-.3c-.66,0-.89-.06-1.33.47l1.3.35A2.69,2.69,0,0,0,183.11,91.77Z" fill="#075b5d"></path><path d="M183.47,91l-.52-.46,1.07-.26c-.59-.11-.82-.23-1.32.12s-.78.55-1.19.8l1.09.15Z" fill="#075b5d"></path><path d="M155,110.32a1,1,0,0,0-.24,0,1,1,0,0,0,0,.35l.63-.65C155.22,110,155.09,110.1,155,110.32Z" fill="#075b5d"></path><path d="M158.34,107.75a.78.78,0,0,0-.31,0l.07.2C158.28,108.1,158.37,108,158.34,107.75Z" fill="#075b5d"></path><path d="M158.84,107.86a2.13,2.13,0,0,0,1.5-.8c-.3,0-.3.26-.54.38a2.34,2.34,0,0,1-.77.08C159.15,107.71,159,107.82,158.84,107.86Z" fill="#075b5d"></path><path d="M159.75,107.38c.15-.14.31-.22.32-.44-.22.12-.18.25-.45.17a1.09,1.09,0,0,0-.55,0C159.17,107.51,159.46,107.4,159.75,107.38Z" fill="#075b5d"></path><path d="M183.83,107.45l-.38.23c.11.27.95,1,1.25.71S184,107.55,183.83,107.45Z" fill="#075b5d"></path><path d="M191.42,103.27c-.42,0-.32.23-.36.68l1.12-.2A.66.66,0,0,0,191.42,103.27Z" fill="#075b5d"></path><path d="M176.9,109.61c.21.21.87-.36,1-.48a1.53,1.53,0,0,0-.84-.43C176.6,108.9,176.46,109.18,176.9,109.61Z" fill="#075b5d"></path><path d="M157.08,122.87c-.22-.25,0-.39.13-.59-.66-.16-.73.51-.69,1A1.32,1.32,0,0,1,157.08,122.87Z" fill="#075b5d"></path><path d="M152.11,125.17c.28,0,.23.22.28.5.05-.32,0-.66.38-.69-.08-.05-.13-.16-.21-.22.92-.19-.58-1-.14-.15-.19,0-.26-.11-.16-.3a.61.61,0,0,0-.23,0,.28.28,0,0,1-.16.35C151.83,124.85,151.88,125.19,152.11,125.17Z" fill="#075b5d"></path><path d="M184.4,93.25c-.14-.31-.45-.11-.69-.05a3.08,3.08,0,0,0,.31.25Z" fill="#075b5d"></path><path d="M183.45,92.43c-.17,0-1.89.07-1.72.55s1.34.11,1.75,0c-.07-.06-.1-.17-.16-.23l.63-.1Z" fill="#075b5d"></path><path d="M184.19,92.47c.24,0,.38-.07.53.13s.95-.15,1.19-.42-.34-.78-.65-.7a6.37,6.37,0,0,0-1.39.51C183.95,92.23,183.95,92.48,184.19,92.47Z" fill="#075b5d"></path><path d="M186.49,92.13l1.32-.3c.41-.09.28-.26.25-.71-.16,0-.51,0-.64,0s-.13.41-.25.48c-.34.19-.7-.31-1,.2A2,2,0,0,0,186.49,92.13Z" fill="#075b5d"></path><path d="M164.72,201.13c-29.81-5.77-50.66-31.29-58.28-59.62-5.93-22-3.32-46.11,11.19-63.06a74.06,74.06,0,1,0,79.46,121.3A71.26,71.26,0,0,1,164.72,201.13Z" fill="#075b5d" opacity="0.33"></path><path d="M334.95,175.47c-1.13-.25-40.62-13.21-43.41-12.65s-53.3,18.61-53.3,18.61V198.6l44.13,22.16c21.09-9.05,52.59-28.07,52.59-28.07S336.07,175.72,334.95,175.47Z" fill="#68e1fd"></path><path d="M334.95,192.69V175.47s-52.24,24.06-54.41,24.06-42.31-18.1-42.31-18.1L242.31,144h5.22l5.22,35.85" fill="#68e1fd"></path><polyline points="258.28 185.35 262.35 134.57 267.57 134.57 272.79 183.26" fill="#68e1fd"></polyline><polyline points="279.07 179.05 283.15 128.27 288.37 128.27 293.59 176.96" fill="#68e1fd"></polyline><polyline points="305.61 177.71 309.69 126.93 314.91 126.93 320.13 175.62" fill="#68e1fd"></polyline><polyline points="323.98 173.02 324.11 163.19 302.69 157.85 300.19 172.28" fill="#68e1fd"></polyline><path d="M316.15,133.16c-1.78-3.08.09-7.18-.09-10.53a10.35,10.35,0,0,0-3.84-7.81,15.23,15.23,0,0,0-8.39-2.81c-3.75-.27-8.69,1-11.73-1.84-3.66-3.43-3.48-10.51-4.17-15.08-.76-5-2.1-10.29-6.26-13.6-4.84-3.85-10.88-3.08-16.32-1.07-6,2.23-13.8,7.09-18.76.47-4.17-5.56-4.85-13-9.07-18.64a25.82,25.82,0,0,0-16.66-10.19,19.46,19.46,0,0,0-3-.2c-13.45-3.94-28.53,7.83-24.58,22.6,5.07,19,24.67,14.45,39.38,11.41.14.33.28.67.41,1,1.45,4.14,2.28,8.82,5.41,12.11,4,4.15,9.62,4.13,14.58,1.89,5.53-2.5,12-8.78,18.64-6.29,5.65,2.12,5.11,10.7,7.11,15.49,2.45,5.86,7.42,8.43,13.51,9.17,3.49.43,7.62.15,10.75,2a9.45,9.45,0,0,1,3.85,11,3.31,3.31,0,0,0,3.07,4.29l.08.16C312.36,140.6,318.41,137.07,316.15,133.16Z" fill="#dae0e0"></path><path d="M267.81,131.73A25.84,25.84,0,0,0,264.7,121c-1.8-3.27-5.41-7.4-9.24-4-3.17,2.81-1.75,7.68-.25,10.92a21.24,21.24,0,0,0,5.68,7.36c.21,2.6,3,3.44,5,2.52C268.38,137.39,270,133.78,267.81,131.73Z" fill="#aeb7b7"></path><path d="M290.86,126.06a9.27,9.27,0,0,0-7.21-8.51,3.57,3.57,0,0,0-4.43,3.37c-.29,2.4-.24,4.92,1.23,7a6.3,6.3,0,0,0,6.91,2.59,3.66,3.66,0,0,0,2.06-1.62A3.17,3.17,0,0,0,290.86,126.06Z" fill="#dae0e0"></path><path d="M239.26,119.58c-4.52-5-13.44-7.55-17.6-.55a7.78,7.78,0,0,0,.15,8c1.91,3,4.87,3.18,7.54,5,.44.3.67.34.78.28a7.24,7.24,0,0,0,.22,1.1c.17.66,0,1.5.09,2.2a7.52,7.52,0,0,0,1.55,3.35c2,2.52,5.89,3.17,7.53,5.87a3.2,3.2,0,0,0,3.64,1.6c2.09.87,5-.14,4.94-3.07C247.92,134.76,245.14,126,239.26,119.58Zm-1.71,15.14a3.64,3.64,0,0,1-.33-2,14.81,14.81,0,0,1,1.24,2.92A3.12,3.12,0,0,1,237.55,134.72Z" fill="#dae0e0"></path><path d="M259.78,209.42c.17-.61-1.5-7.94,5.76-5.64s5.77,11.43,5.77,11.43" fill="#54447f"></path><g opacity="0.75"><path d="M334.95,175.47c-1.13-.25-40.62-13.21-43.41-12.65s-53.3,18.61-53.3,18.61V198.6l44.13,22.16c21.09-9.05,52.59-28.07,52.59-28.07S336.07,175.72,334.95,175.47Z" fill="#075b5d"></path><path d="M282.36,220.76l-1.81-21.23,54.41-24.06h0s-52.24,24.06-54.41,24.06-42.31-18.1-42.31-18.1L242.31,144h5.22l5.22,35.85" fill="#075b5d"></path><polyline points="258.28 185.35 262.35 134.57 267.57 134.57 272.79 183.26" fill="#075b5d"></polyline><polyline points="279.07 179.05 283.15 128.27 288.37 128.27 293.59 176.96" fill="#075b5d"></polyline><polyline points="305.61 177.71 309.69 126.93 314.91 126.93 320.13 175.62" fill="#075b5d"></polyline><polyline points="323.98 173.02 324.11 163.19 302.69 157.85 300.19 172.28" fill="#075b5d"></polyline></g><path d="M247.52,144l6,38.36s-5.58,1.31-7.93.87V144Z" fill="#075b5d"></path><path d="M267.57,134.57s5.74,52.1,5.22,52-4.49,1.33-8.32.88l1.06-52.83Z" fill="#075b5d"></path><path d="M288.33,128.27s5.74,52.1,5.22,52-4.49,1.33-8.32.88l1.06-52.83Z" fill="#075b5d"></path><path d="M314.88,126.93s5.74,52.1,5.22,52-4.49,1.33-8.32.88l1.06-52.83Z" fill="#075b5d"></path></svg>