<svg xmlns="http://www.w3.org/2000/svg" viewBox="0 0 400 300" width="406" height="306" class="illustration styles_illustrationTablet__1DWOa"><g id="_234_global_warming_flatline" data-name="#234_global_warming_flatline"><rect x="49.18" y="45.27" width="301.65" height="209.46" fill="#fff"></rect><path d="M350.82,45.27V254.73H49.18V45.27H350.82m0-1H49.18a1,1,0,0,0-1,1V254.73a1,1,0,0,0,1,1H350.82a1,1,0,0,0,1-1V45.27a1,1,0,0,0-1-1Z" fill="#231f20"></path><rect x="49.18" y="123.93" width="301.65" height="130.81" fill="#68e1fd"></rect><path d="M83.1,181.36h0a.36.36,0,0,1,0-.11c-.1-.78-7.32-2.2-7.32-2.2l-2.89-13.47-.3-.73-.23-.56.82.31,8.7,3.18.81,5.78,1.6,11.27C83.68,183.23,83.22,181.88,83.1,181.36Z" fill="#fff"></path><path d="M84.26,185.32a.5.5,0,0,1-.47-.33c-.67-1.85-1.07-3-1.18-3.51v0a0,0,0,0,1,0,0c-.58-.44-4-1.31-6.94-1.88a.52.52,0,0,1-.4-.39l-2.89-13.48-.5-1.2a.48.48,0,0,1,.1-.53.49.49,0,0,1,.53-.13L82,167.3a.51.51,0,0,1,.32.4l2.41,17.05a.51.51,0,0,1-.37.56Zm-8.09-6.7c4.61.92,6.33,1.56,7,2l-1.77-12.48-8.16-3,.09.23Z" fill="#231f20"></path><path d="M170.46,143.29s37.22,6.66,41.14,9.52,32.63,21.77,32.63,21.77L223.43,183l-19,2.22-10.83,11.42-14-4.12s-30.38,5.71-35.34,4.12S107,183.9,107,183.9l-19.37-4.3L81.3,168.67l-9-4.39s43.51-18.45,53.53-18.77S170.46,143.29,170.46,143.29Z" fill="#fff"></path><path d="M147.17,197.36a11.14,11.14,0,0,1-3-.29c-4.9-1.57-37-12.59-37.31-12.7l-19.32-4.28a.51.51,0,0,1-.32-.24L81,169.05l-8.84-4.32a.5.5,0,0,1-.28-.46.52.52,0,0,1,.31-.45c1.78-.75,43.71-18.49,53.7-18.81s44.25-2.2,44.59-2.22h.12c1.52.27,37.38,6.71,41.35,9.6s32.32,21.58,32.61,21.77a.5.5,0,0,1,.22.46.51.51,0,0,1-.31.42l-20.8,8.36a.31.31,0,0,1-.13,0l-18.8,2.2L194,196.94a.53.53,0,0,1-.51.13L179.64,193C177.57,193.37,156,197.36,147.17,197.36ZM88,179.16l19.16,4.25c.38.13,32.45,11.14,37.34,12.71s34.8-4.09,35.1-4.14a.36.36,0,0,1,.23,0l13.67,4,10.61-11.19a.55.55,0,0,1,.31-.16l18.92-2.21,19.85-8c-4.67-3.08-28.34-18.71-31.85-21.27-3-2.2-28-7.12-40.88-9.42-1.62.09-34.84,1.91-44.55,2.22-9,.28-45.74,15.54-52.34,18.31l8,3.9a.47.47,0,0,1,.22.2Z" fill="#231f20"></path><polygon points="244.23 174.59 238.68 191.35 222.34 201.75 223.43 182.94 244.23 174.59" fill="#fff"></polygon><path d="M222.34,202.25a.43.43,0,0,1-.25-.07.49.49,0,0,1-.25-.46l1.09-18.8a.49.49,0,0,1,.31-.44l20.8-8.36a.51.51,0,0,1,.53.1.48.48,0,0,1,.13.52l-5.55,16.77a.54.54,0,0,1-.2.27l-16.34,10.39A.53.53,0,0,1,222.34,202.25Zm1.57-19-1,17.51L238.26,191l5.16-15.58Z" fill="#231f20"></path><polygon points="223.43 182.94 222.34 201.75 203.81 206.43 201.63 206.98 204.45 185.17 223.43 182.94" fill="#d1d3d4"></polygon><path d="M201.63,207.48a.46.46,0,0,1-.33-.13.49.49,0,0,1-.16-.43L204,185.1a.51.51,0,0,1,.44-.43l19-2.22a.48.48,0,0,1,.4.13.49.49,0,0,1,.16.39l-1.09,18.81a.49.49,0,0,1-.38.45l-20.7,5.24Zm3.26-21.86-2.67,20.7,19.64-5,1-17.84Z" fill="#231f20"></path><polygon points="204.45 185.17 203.81 206.43 201.63 206.98 194.02 218.17 193.99 218.17 193.62 196.59 204.45 185.17" fill="#fff"></polygon><path d="M194,218.67a.53.53,0,0,1-.53-.49l-.37-21.58a.5.5,0,0,1,.14-.35l10.82-11.43a.51.51,0,0,1,.56-.11.5.5,0,0,1,.31.47l-.65,21.27a.5.5,0,0,1-.37.47l-2,.5-7.51,11A.49.49,0,0,1,194,218.67Zm.1-21.88.35,19.83,6.75-9.92a.5.5,0,0,1,.29-.2l1.81-.46.59-19.58Z" fill="#231f20"></path><polygon points="193.99 218.17 184.26 216.98 179.67 192.47 193.62 196.59 193.99 218.17" fill="#d1d3d4"></polygon><path d="M194,218.67h-.06l-9.73-1.19a.51.51,0,0,1-.43-.41l-4.59-24.51a.47.47,0,0,1,.15-.46.5.5,0,0,1,.48-.11l13.95,4.12a.51.51,0,0,1,.36.47l.37,21.58a.51.51,0,0,1-.16.38A.48.48,0,0,1,194,218.67Zm-9.3-2.14,8.79,1.07L193.13,197l-12.82-3.79Z" fill="#231f20"></path><polygon points="184.26 216.98 144.36 218.17 144.32 218.17 144.32 196.59 179.6 192.48 179.67 192.47 184.26 216.98" fill="#fff"></polygon><path d="M144.36,218.67a.53.53,0,0,1-.37-.14.49.49,0,0,1-.17-.36V196.59a.5.5,0,0,1,.44-.49L179.54,192a.57.57,0,0,1,.62.4l4.6,24.51a.52.52,0,0,1-.48.59l-39.91,1.19Zm.46-21.63v20.62l38.85-1.16L179.26,193Z" fill="#231f20"></path><path d="M144.36,218.17h0l-35.11-16.62L107,183.9l1.75.6.82.28.94.32.52.18,32.73,11.14.29.09.25.08S144.53,206.63,144.36,218.17Z" fill="#d1d3d4"></path><path d="M144.36,218.67h0a.5.5,0,0,1-.21,0L109,202a.52.52,0,0,1-.28-.39L106.53,184a.51.51,0,0,1,.18-.45.49.49,0,0,1,.48-.08l4,1.37,33.27,11.32a.49.49,0,0,1,.34.46c0,.1.21,10.18,0,21.6A.51.51,0,0,1,144.36,218.67Zm0-.5h0Zm-34.68-16.95,34.19,16.18c.13-9.89,0-18.61,0-20.44l-.2-.07-36-12.26Z" fill="#231f20"></path><polygon points="109.21 201.56 89.21 196.87 89.2 196.87 87.65 179.6 107.03 183.9 109.21 201.56" fill="#fff"></polygon><path d="M109.21,202.05h-.11l-20-4.68a.5.5,0,0,1-.41-.45l-1.55-17.27a.5.5,0,0,1,.61-.53l19.37,4.3a.5.5,0,0,1,.39.43l2.19,17.65a.49.49,0,0,1-.5.56Zm-19.54-5.59,19,4.44-2.06-16.59-18.36-4.07Z" fill="#231f20"></path><path d="M89.2,196.87s-3.76-8.74-4.94-12.05c-.58-1.59-1-2.94-1.16-3.46h0l-1-6.8-.83-5.88,6.34,10.93Z" fill="#d1d3d4"></path><path d="M89.2,197.37a.51.51,0,0,1-.46-.3c0-.09-3.78-8.8-4.95-12.08-.67-1.85-1.07-3-1.18-3.51a.49.49,0,0,1,0-.12l-1.79-12.62a.51.51,0,0,1,.33-.54.5.5,0,0,1,.6.22l6.34,10.93a.48.48,0,0,1,.07.21l1.55,17.27a.5.5,0,0,1-.38.52Zm-7-26.23,1.43,10.14c.07.28.32,1.11,1.14,3.37.73,2,2.48,6.26,3.69,9.11l-1.26-14Z" fill="#231f20"></path><path d="M107.59,146.23a52.68,52.68,0,0,0,1.61,14c1.31,4.52,3.83,8.84,7.7,11.52,1.35.94,3.09,1.67,4.6,1,2.33-1,2.39-4.21,2.06-6.71-1.1-8.3-2.24-16.91-6.15-24.44-1.2-2.32-4.06-8.3-7.35-6.67C107,136.48,107.56,143.63,107.59,146.23Z" fill="#231f20"></path><path d="M120.28,173.53a6.78,6.78,0,0,1-3.66-1.37,21.42,21.42,0,0,1-7.9-11.79,53.19,53.19,0,0,1-1.63-14.14h0c0-.25,0-.54,0-.86-.09-3.27-.25-9.35,2.77-10.84,3.56-1.77,6.44,3.83,7.83,6.52l.19.36c4,7.64,5.09,16.26,6.19,24.6.51,3.88-.3,6.38-2.35,7.24A3.59,3.59,0,0,1,120.28,173.53Zm-12.19-27.31a52.56,52.56,0,0,0,1.59,13.87,20.42,20.42,0,0,0,7.51,11.25c1.11.77,2.73,1.57,4.12,1,2-.84,2.06-3.83,1.75-6.19-1.09-8.25-2.21-16.79-6.09-24.27l-.19-.37c-1.24-2.4-3.81-7.41-6.5-6.08-2.45,1.22-2.29,7.09-2.21,9.92,0,.33,0,.63,0,.88Z" fill="#231f20"></path><path d="M226.2,83.84s8.29-4.64,7.34-.73-4,7-4.31,7.41" fill="#231f20"></path><path d="M229.23,91a.49.49,0,0,1-.28-.09.5.5,0,0,1-.14-.69l.34-.41A17.36,17.36,0,0,0,233.06,83c.07-.29.11-.68-.08-.82-.72-.55-4,.67-6.54,2.11a.5.5,0,1,1-.49-.87c1-.56,6-3.26,7.64-2a1.65,1.65,0,0,1,.44,1.86,18.36,18.36,0,0,1-4.12,7.25,3.64,3.64,0,0,0-.26.32A.52.52,0,0,1,229.23,91Z" fill="#231f20"></path><path d="M151.14,172.31c6.22-1.7,10.63-3.63,17.27-1.79,6,1.66,11.57,5.57,17.72,4.91-2.49-4.2-5-8.4-7.07-12.8-2.71-5.7-4.73-11.73-7.7-17.29a6.58,6.58,0,0,0-4.69-3.38c-3.8-.83-7.62,1.35-10.55,3.91a36.23,36.23,0,0,0-10.27,15,14.22,14.22,0,0,0-1,6.19,6.55,6.55,0,0,0,3.15,5.19" fill="#231f20"></path><path d="M184.74,176c-3.7,0-7.22-1.45-10.64-2.86a54.22,54.22,0,0,0-5.82-2.14c-5.53-1.53-9.42-.4-14.36,1-.85.24-1.73.5-2.65.75a.5.5,0,0,1-.26-1l2.63-.75c4.89-1.43,9.11-2.65,14.91-1a54.63,54.63,0,0,1,5.93,2.17c3.66,1.51,7.11,2.94,10.81,2.78-2.32-3.92-4.7-8-6.68-12.15-1.13-2.38-2.16-4.86-3.15-7.25-1.39-3.34-2.82-6.79-4.54-10a6.08,6.08,0,0,0-4.35-3.12c-3.82-.83-7.61,1.6-10.12,3.79a35.81,35.81,0,0,0-10.13,14.84,14.06,14.06,0,0,0-1,6,6.09,6.09,0,0,0,2.89,4.8.49.49,0,0,1,.21.67.5.5,0,0,1-.68.21,7,7,0,0,1-3.41-5.58,14.77,14.77,0,0,1,1.08-6.41,36.81,36.81,0,0,1,10.41-15.25c2.68-2.34,6.77-4.94,11-4a7.14,7.14,0,0,1,5,3.63c1.75,3.27,3.19,6.75,4.58,10.11,1,2.38,2,4.84,3.13,7.21,2.08,4.39,4.61,8.64,7.05,12.75a.48.48,0,0,1,0,.48.5.5,0,0,1-.39.27A11.85,11.85,0,0,1,184.74,176Z" fill="#231f20"></path><path d="M198.91,108.85s-5.93,44.74-4.32,48.79,12.4,12.12,8.9,15.09-16.71-1.89-16.71-1.89-17.52-22.91-15.64-37.73,17.52-32.62,20-31.81S198.91,108.85,198.91,108.85Z" fill="#231f20"></path><path d="M199.71,174.17c-5.24,0-12.69-2.71-13.1-2.86a.53.53,0,0,1-.23-.16c-.72-1-17.62-23.25-15.73-38.11,1.68-13.22,14.06-28.72,18.83-31.72a2.19,2.19,0,0,1,1.77-.49c2.49.83,7.49,7,8.05,7.71a.5.5,0,0,1,.1.38c-1.64,12.4-5.63,45.31-4.34,48.53.55,1.39,2.31,3.35,4.18,5.42,2.75,3.07,5.6,6.24,5.44,8.55a2.38,2.38,0,0,1-.87,1.69A6.43,6.43,0,0,1,199.71,174.17Zm-12.62-3.75c3.7,1.35,13.42,4.18,16.08,1.93a1.38,1.38,0,0,0,.51-1c.13-1.89-2.69-5-5.19-7.81-1.92-2.14-3.74-4.17-4.36-5.72-1.61-4,3.76-45.08,4.25-48.82-1.58-2-5.63-6.62-7.45-7.22h0s-.29-.06-1.2.57c-4.75,3.31-16.51,18.37-18.09,30.82C169.87,147.09,185.76,168.65,187.09,170.42Z" fill="#231f20"></path><path d="M115.83,166.87a46.33,46.33,0,0,1-6.12-18.48c-1.1-9-3-17.42.87-26.06,2.34-5.25,7.73-9.76,12.69-12.52,5.22-2.9,11.14-2.13,16.45-5.79,3.82-2.63,6.93-6.14,10-9.61L158.06,85a28.89,28.89,0,0,1,6.13-5.72c5.55-3.47,12.64-3.09,18.89-2.57,11.28.93,20.87-1.81,32.08,1.3,8.48,2.35,17.91,7,19.6,16.58a20.76,20.76,0,0,1,0,7.82s4.85,7.28,3.5,11.59c-.84,2.7-7.83,2.36-9.92,1.77-3.64-1-6.8-4-10.56-4.44-4.42-.51-8.27.17-12.42-1.83a36.94,36.94,0,0,1-5.16,5.15c-2.5,1.95-5.54,2.42-8,3.9-1.35.81-7.58,15.13-7.58,22.67s3.78,25.07,3.78,25.07,12.39,6.2,11.59,9.43-18.33,2.43-20.76,0-2.7-8.35-6.2-11.59-9.7-10.78-9.7-10.78,3,11.32-5.66,18.87c0,0,14.28,1.57,14,5.64S165,179.74,162,180c-5.76.52-42.06,1.57-40.51-6.14A34,34,0,0,1,115.83,166.87Z" fill="#fff"></path><path d="M150.4,180.85c-10.75,0-25.3-.8-28.68-4.56a2.83,2.83,0,0,1-.78-2.24,34.36,34.36,0,0,1-5.54-6.92,47,47,0,0,1-6.18-18.68c-.15-1.15-.3-2.3-.46-3.44-1.05-7.83-2.06-15.23,1.36-22.88,2.08-4.65,6.9-9.42,12.9-12.76a27.23,27.23,0,0,1,7.59-2.49c3-.66,6-1.34,8.83-3.27,3.79-2.62,6.89-6.13,9.9-9.53l8.34-9.44a29.53,29.53,0,0,1,6.24-5.82c5.52-3.44,12.51-3.19,19.2-2.64a94.37,94.37,0,0,0,12.48,0c6.56-.3,12.75-.59,19.7,1.34,11.82,3.28,18.54,9,19.95,17a21.45,21.45,0,0,1,0,7.8c.76,1.19,4.75,7.69,3.45,11.84-1,3.21-8.42,2.7-10.54,2.11a23.22,23.22,0,0,1-4.68-2.13,16.34,16.34,0,0,0-5.8-2.3c-1.32-.16-2.62-.2-3.86-.25-2.84-.1-5.52-.19-8.37-1.47a35.26,35.26,0,0,1-5,4.94,18.64,18.64,0,0,1-4.78,2.44,21.78,21.78,0,0,0-3.27,1.49c-1,.69-7.34,14.58-7.34,22.24,0,6.94,3.27,22.63,3.71,24.73,2.55,1.29,12.48,6.55,11.64,9.89-.2.81-1,1.41-2.58,1.84-4.81,1.33-16.8.61-19-1.6-1.17-1.17-1.85-3-2.57-5-.87-2.39-1.78-4.87-3.62-6.57a125.06,125.06,0,0,1-8.56-9.4c.42,3.46.5,11-5.33,16.76,3.54.47,13.64,2.17,13.38,6a2.82,2.82,0,0,1-1,2.08c-1.4,1.19-4,.93-6.3.71a18.11,18.11,0,0,0-2.88-.15C160.64,180.63,156,180.85,150.4,180.85Zm26.07-104c-4.38,0-8.48.62-12,2.83a28.71,28.71,0,0,0-6,5.63l-8.34,9.44c-3.05,3.45-6.19,7-10.08,9.69-3,2-6.13,2.75-9.18,3.42a26.1,26.1,0,0,0-7.32,2.4c-5.82,3.23-10.48,7.83-12.48,12.29-3.3,7.39-2.31,14.65-1.27,22.34.15,1.14.31,2.29.45,3.45a45.92,45.92,0,0,0,6.05,18.28,32.73,32.73,0,0,0,5.56,6.89.51.51,0,0,1,.14.47,1.82,1.82,0,0,0,.51,1.65c4.58,5.11,33.59,4.42,39.47,3.89a17.81,17.81,0,0,1,3.07.14c2.1.21,4.48.44,5.56-.47a1.89,1.89,0,0,0,.61-1.39c.18-2.61-8.23-4.52-13.57-5.1a.5.5,0,0,1-.27-.88c8.28-7.24,5.53-18.25,5.5-18.36a.5.5,0,0,1,.26-.57.48.48,0,0,1,.61.13c.07.07,6.22,7.55,9.66,10.73,2,1.86,3,4.57,3.88,7,.68,1.87,1.32,3.63,2.33,4.64,1.67,1.67,12.92,2.76,18,1.34,1.09-.3,1.77-.7,1.87-1.11.49-2-6.33-6.36-11.33-8.86a.52.52,0,0,1-.26-.34c-.16-.72-3.79-17.66-3.79-25.18s6.23-22.14,7.82-23.1a23.36,23.36,0,0,1,3.42-1.56,17.34,17.34,0,0,0,4.54-2.3,36.46,36.46,0,0,0,5.08-5.09.5.5,0,0,1,.6-.12c2.79,1.34,5.47,1.43,8.31,1.53,1.27,0,2.58.1,4,.25a17.47,17.47,0,0,1,6.16,2.42,22.2,22.2,0,0,0,4.48,2c2,.57,8.61.79,9.3-1.44,1.26-4-3.39-11.09-3.44-11.16a.51.51,0,0,1-.07-.4,20.24,20.24,0,0,0,0-7.61c-1.33-7.58-7.8-13-19.23-16.19-6.79-1.88-12.9-1.6-19.38-1.3a96.33,96.33,0,0,1-12.61,0C180.81,77,178.61,76.84,176.47,76.84Z" fill="#231f20"></path><path d="M163.33,153.32a28.78,28.78,0,0,1-.27-14.28s-13.48-12.94-9.7-26.15" fill="#fff"></path><path d="M163.33,153.82a.5.5,0,0,1-.48-.34,29.16,29.16,0,0,1-.34-14.29c-1.77-1.76-13.23-13.84-9.63-26.44a.49.49,0,0,1,.61-.34.51.51,0,0,1,.35.62c-3.65,12.76,9.43,25.52,9.57,25.65a.49.49,0,0,1,.13.48,28.72,28.72,0,0,0,.26,14,.5.5,0,0,1-.32.63Z" fill="#231f20"></path><path d="M216.56,90.52s-.4-6.74-5.66-5.39-2.83,8.63-.94,11.72a5.8,5.8,0,0,0-1.21,4.43" fill="#fff"></path><path d="M208.74,101.78a.5.5,0,0,1-.49-.43,6.23,6.23,0,0,1,1.11-4.53c-1.38-2.41-2.88-6.71-1.72-9.55a4.32,4.32,0,0,1,3.14-2.62,4.38,4.38,0,0,1,3.84.56c2.2,1.6,2.43,5.13,2.44,5.28a.5.5,0,0,1-.47.53.5.5,0,0,1-.53-.47s-.22-3.22-2-4.53a3.45,3.45,0,0,0-3-.41,3.36,3.36,0,0,0-2.46,2c-1.06,2.61.55,6.88,1.81,9a.48.48,0,0,1,0,.59,5.41,5.41,0,0,0-1.09,4,.51.51,0,0,1-.42.57Z" fill="#231f20"></path><path d="M237.38,112.05a1.66,1.66,0,0,1,1.46.57,1.49,1.49,0,0,1-.22,1.52,4.57,4.57,0,0,1-2.33,1.8,3.57,3.57,0,0,1-3.51-.58C229.27,112.2,235.75,112,237.38,112.05Z" fill="#231f20"></path><path d="M178.83,103.15a.53.53,0,0,1-.27-.08c-.09,0-8.84-5.75-3.53-14.56a.5.5,0,0,1,.69-.17.51.51,0,0,1,.17.69c-4.81,8,2.88,13,3.21,13.2a.5.5,0,0,1,.15.69A.51.51,0,0,1,178.83,103.15Z" fill="#d1d3d4"></path><path d="M127.27,138.19s14.4-4.52,23.56,0,12.5,15.13,12.5,15.13" fill="#fff"></path><path d="M163.33,153.82a.5.5,0,0,1-.48-.35c0-.1-3.38-10.46-12.24-14.83s-23,0-23.19,0a.5.5,0,0,1-.3-.95c.6-.19,14.7-4.53,23.93,0s12.62,15,12.75,15.42a.49.49,0,0,1-.32.63A.39.39,0,0,1,163.33,153.82Z" fill="#231f20"></path><path d="M201.61,108.59a.53.53,0,0,1-.27-.08c-.21-.13-5.06-3.34-7.63-6.94a.5.5,0,1,1,.82-.58c2.45,3.44,7.31,6.65,7.36,6.68a.51.51,0,0,1,.14.7A.52.52,0,0,1,201.61,108.59Z" fill="#d1d3d4"></path><path d="M214.92,91.9a.37.37,0,0,1,0,.23.39.39,0,0,1-.15.16l-2,1.34a2.83,2.83,0,0,1-1.74.66,16.91,16.91,0,0,1-.62-2.62c-.18-1.21-.3-3.82,1.53-3.64C213.48,88.19,214.55,90.65,214.92,91.9Z" fill="#231f20"></path><path d="M211.16,94.79H211a.5.5,0,0,1-.43-.34,15.7,15.7,0,0,1-.64-2.69c-.15-1-.27-2.81.59-3.71a1.73,1.73,0,0,1,1.48-.5c2.19.21,3.3,3.81,3.42,4.22h0a.85.85,0,0,1,0,.55.76.76,0,0,1-.34.38l-2,1.35A3.52,3.52,0,0,1,211.16,94.79Zm.6-6.27a.66.66,0,0,0-.53.21c-.48.5-.49,1.81-.33,2.87a16.17,16.17,0,0,0,.48,2.17,3.37,3.37,0,0,0,1.1-.56l1.92-1.28c-.41-1.34-1.39-3.29-2.52-3.4ZM214.44,92a.1.1,0,0,0,0,0l.47-.18Z" fill="#231f20"></path><path d="M227.64,99.64a2.34,2.34,0,0,1-4.61.81Z" fill="#231f20"></path><path d="M234.84,100.62a2.34,2.34,0,0,1-4.56-1Z" fill="#231f20"></path><polygon points="320.91 171.4 305.84 182.51 274.75 176.96 284.58 166.48 304.41 161.73 320.91 171.4" fill="#fff"></polygon><path d="M305.84,183h-.09l-31.09-5.55a.5.5,0,0,1-.28-.84l9.84-10.47a.48.48,0,0,1,.25-.14l19.83-4.75a.49.49,0,0,1,.37.05l16.5,9.67a.52.52,0,0,1,.24.41.49.49,0,0,1-.2.42l-15.07,11.11A.54.54,0,0,1,305.84,183Zm-30.1-6.39,30,5.36L320,171.45l-15.67-9.18-19.49,4.67Z" fill="#231f20"></path><polygon points="274.75 176.96 281.41 187.43 305.84 193.61 305.84 182.51 274.75 176.96" fill="#fff"></polygon><path d="M305.84,194.11h-.12l-24.43-6.19a.48.48,0,0,1-.3-.22l-6.66-10.47a.48.48,0,0,1,0-.54.5.5,0,0,1,.5-.22l31.1,5.56a.49.49,0,0,1,.41.49v11.1a.51.51,0,0,1-.19.4A.5.5,0,0,1,305.84,194.11ZM281.73,187l23.61,6v-10l-29.56-5.28Z" fill="#231f20"></path><polygon points="305.84 193.61 316.95 184.57 320.91 171.4 305.84 182.51 305.84 193.61" fill="#d1d3d4"></polygon><path d="M305.84,194.11a.38.38,0,0,1-.21-.05.48.48,0,0,1-.29-.45v-11.1a.54.54,0,0,1,.2-.41L320.62,171a.5.5,0,0,1,.58,0,.51.51,0,0,1,.19.56l-4,13.16a.45.45,0,0,1-.16.25l-11.1,9A.54.54,0,0,1,305.84,194.11Zm.5-11.35v9.8l10.17-8.28L320,172.7Z" fill="#231f20"></path><path d="M207.36,245.52a.5.5,0,0,1-.05-1,55.09,55.09,0,0,0,19.78-6.14.5.5,0,0,1,.58.08A18.94,18.94,0,0,0,249.85,241a.51.51,0,0,1,.45,0,29.69,29.69,0,0,0,22,0,.5.5,0,1,1,.37.92,30.7,30.7,0,0,1-22.53.11,20,20,0,0,1-22.9-2.53,56.3,56.3,0,0,1-19.83,6.08Z" fill="#fff"></path><path d="M248.33,122a.48.48,0,0,1-.29-.09.5.5,0,0,1-.12-.7l10.55-14.87a13.36,13.36,0,0,1,2.57-3,7.56,7.56,0,0,1,2.42-1.1c.31-.09.62-.19.93-.31,4.28-1.62,7.78-7.22,11.16-12.64a88.5,88.5,0,0,1,5.19-7.71c1-1.23,2.05-2.36,3.34-2.21a4.72,4.72,0,0,1,2.65,1.93,115.49,115.49,0,0,1,10.95,15.2L304,83.43a.51.51,0,0,1,.43-.29.58.58,0,0,1,.46.27c8.42,15.68,18.82,27.77,30.09,35a.5.5,0,0,1-.54.85c-11.2-7.16-21.55-19.08-30-34.49l-6.32,13.08a.49.49,0,0,1-.42.28.49.49,0,0,1-.46-.24A114.8,114.8,0,0,0,286,82c-.69-.8-1.36-1.52-2-1.59-.82-.1-1.69.88-2.44,1.83a87.17,87.17,0,0,0-5.13,7.62c-3.47,5.56-7.06,11.31-11.66,13.05-.32.12-.65.22-1,.33a6.55,6.55,0,0,0-2.13.94,12.67,12.67,0,0,0-2.34,2.74l-10.56,14.87A.48.48,0,0,1,248.33,122Z" fill="#d1d3d4"></path><path d="M313.38,94.46a.47.47,0,0,1-.28-.09.5.5,0,0,1-.14-.69l9.69-14.41a50.37,50.37,0,0,0,4-6.75c.28-.6.55-1.23.82-1.86a21.17,21.17,0,0,1,2.37-4.56,1.58,1.58,0,0,1,1-.71c.69-.09,1.15.56,1.3.77a13.73,13.73,0,0,1,1.5,3.27,11.41,11.41,0,0,0,1.47,3.16,2.91,2.91,0,0,0,2.57,1.21,3.39,3.39,0,0,0,2.64-1.92.52.52,0,0,1,.39-.26.5.5,0,0,1,.43.16,81,81,0,0,0,6.54,6.56.5.5,0,1,1-.67.74A84.86,84.86,0,0,1,340.83,73a4.26,4.26,0,0,1-3.08,1.84,3.85,3.85,0,0,1-3.44-1.59,12.6,12.6,0,0,1-1.62-3.43,13.17,13.17,0,0,0-1.38-3c-.23-.33-.35-.36-.35-.36a1.19,1.19,0,0,0-.3.32,20.7,20.7,0,0,0-2.24,4.35c-.27.64-.55,1.28-.84,1.9a51.43,51.43,0,0,1-4.1,6.88l-9.69,14.41A.49.49,0,0,1,313.38,94.46Z" fill="#d1d3d4"></path><path d="M95.27,117.19a.49.49,0,0,1-.41-.22l-9.69-14.41a52.56,52.56,0,0,1-4.11-6.88c-.29-.64-.54-1.28-.78-1.89-1.07-2.76-1.75-4.17-4.34-3.57-1.18.27-2.09,1.67-3,3-1.09,1.67-2.22,3.41-4.07,3.52a2.79,2.79,0,0,1-1.62-.57c-3.74-2.48-6.27-6.3-8.71-10-2.32-3.49-4.71-7.11-8.11-9.49a.5.5,0,0,1-.12-.7.49.49,0,0,1,.69-.12c3.55,2.49,6,6.19,8.37,9.76s4.86,7.33,8.44,9.7a1.85,1.85,0,0,0,1,.41c1.35-.08,2.29-1.53,3.29-3.07s2-3.09,3.59-3.45c3.55-.81,4.54,1.73,5.49,4.18.24.61.48,1.23.76,1.83A50.37,50.37,0,0,0,86,102l9.69,14.41a.5.5,0,0,1-.14.69A.47.47,0,0,1,95.27,117.19Z" fill="#d1d3d4"></path><path d="M264.84,212.23a.51.51,0,0,1-.47-.32.5.5,0,0,1,.29-.64,46.51,46.51,0,0,0,16.15-10.46.49.49,0,0,1,.69,0c2.66,2.5,5.81,5.26,9.6,6.23,3.39.87,7.94-.06,9.7-3.5a.49.49,0,0,1,.81-.11,19.11,19.11,0,0,0,23.24,3.23.49.49,0,0,1,.68.17.5.5,0,0,1-.16.69,20.19,20.19,0,0,1-24-2.93c-2.18,3.42-6.93,4.34-10.49,3.42-3.85-1-7-3.64-9.68-6.14A47.4,47.4,0,0,1,265,212.2.57.57,0,0,1,264.84,212.23Z" fill="#fff"></path><path d="M67.14,236a.5.5,0,0,1-.33-.88L81,222.41a2.77,2.77,0,0,1,1.19-.73c1.27-.29,2.19.87,2.75,1.57a15.94,15.94,0,0,0,22,1.94,2.62,2.62,0,0,1,1.67-.85h0a2.51,2.51,0,0,1,1.26.46,20.06,20.06,0,0,0,19.84.21.5.5,0,0,1,.5.86,21.06,21.06,0,0,1-20.83-.19,1.76,1.76,0,0,0-.78-.34c-.32,0-.67.29-1,.58a16.93,16.93,0,0,1-23.42-2c-.53-.66-1.15-1.35-1.75-1.21a1.92,1.92,0,0,0-.74.49L67.47,235.89A.51.51,0,0,1,67.14,236Z" fill="#fff"></path><path d="M266.63,149.55a10.9,10.9,0,0,1-4.08-.87c-2-.83-6.1-2.77-7-5.33a8.84,8.84,0,0,1-9.62,3.07c-2.71-.95-4.73-3.2-6.37-5.16a21,21,0,0,1-17.27,7.81.5.5,0,1,1,0-1,20.05,20.05,0,0,0,16.82-7.92.5.5,0,0,1,.39-.2.43.43,0,0,1,.39.18c1.63,2,3.65,4.4,6.32,5.33a7.72,7.72,0,0,0,9.36-4.24.5.5,0,0,1,.65-.28.51.51,0,0,1,.28.65h0c-1.16,2.91,5.1,5.63,6.37,6.14,5,2,8.75.24,11.94-5.59a.49.49,0,0,1,.42-.26.44.44,0,0,1,.43.23,10.36,10.36,0,0,0,12.39,3.72.5.5,0,0,1,.66.26.51.51,0,0,1-.26.66,11.45,11.45,0,0,1-13.16-3.44C272.91,147.49,270,149.55,266.63,149.55Z" fill="#fff"></path><path d="M57.93,139.45a.51.51,0,0,1-.5-.42.5.5,0,0,1,.41-.57,23.34,23.34,0,0,0,12.31-6.33.52.52,0,0,1,.48-.13.51.51,0,0,1,.35.35,6.44,6.44,0,0,0,6.8,4.5,13.05,13.05,0,0,0,4.73-2,24.81,24.81,0,0,1,2.65-1.41.49.49,0,0,1,.66.26.49.49,0,0,1-.26.65A24.14,24.14,0,0,0,83,135.73a13.8,13.8,0,0,1-5.1,2.11,7.5,7.5,0,0,1-7.63-4.46A24.23,24.23,0,0,1,58,139.44Z" fill="#fff"></path><path d="M142.61,243.69a16.38,16.38,0,0,1-4.53-.62.49.49,0,0,1-.34-.61.48.48,0,0,1,.61-.35c7.18,2,14.79-1.71,20.63-5.2a2,2,0,0,1,1.34-.38,2.1,2.1,0,0,1,1.25,1l.06.09a6.79,6.79,0,0,0,5.51,2.54h.08a13.31,13.31,0,0,0,6.25-1.91c1-.56,3.72-2,5.25-.34a.51.51,0,0,1,0,.71.5.5,0,0,1-.71,0c-.68-.76-2-.58-4,.55a14.25,14.25,0,0,1-6.72,2,7.74,7.74,0,0,1-6.41-3l-.07-.1c-.19-.27-.39-.55-.6-.58a1.19,1.19,0,0,0-.66.25C154.68,240.65,148.68,243.69,142.61,243.69Z" fill="#fff"></path><path d="M218.51,219.62a19.17,19.17,0,0,1-4-.41.49.49,0,0,1-.38-.59.51.51,0,0,1,.59-.39,19.5,19.5,0,0,0,18.94-6.81.57.57,0,0,1,.43-.19.51.51,0,0,1,.39.24,8.57,8.57,0,0,0,11.09,2.95.49.49,0,0,1,.68.19.5.5,0,0,1-.19.68,9.63,9.63,0,0,1-12-2.72A20.65,20.65,0,0,1,218.51,219.62Z" fill="#fff"></path><path d="M310.77,152.84h-.3a.5.5,0,0,1,0-1h0a15.74,15.74,0,0,0,11.27-4.54.51.51,0,0,1,.42-.14.49.49,0,0,1,.37.25,9.07,9.07,0,0,0,13.06,2.27.49.49,0,0,1,.7.06.49.49,0,0,1-.06.7,9.51,9.51,0,0,1-7.84,1.93,9.67,9.67,0,0,1-6.39-3.93A16.87,16.87,0,0,1,310.77,152.84Z" fill="#fff"></path><path d="M318.65,242.75a9.88,9.88,0,0,1-8.6-4.51.49.49,0,0,1,.18-.68.51.51,0,0,1,.69.18c1.51,2.63,4.91,4.23,8.44,4,2.91-.2,6-1.53,9.16-3.95a.49.49,0,0,1,.39-.09.47.47,0,0,1,.33.22,5,5,0,0,0,4.86,1.82,15.73,15.73,0,0,0,5.38-2.21.5.5,0,1,1,.5.87,16.57,16.57,0,0,1-5.74,2.33,6.07,6.07,0,0,1-5.52-1.84,18,18,0,0,1-9.29,3.85Z" fill="#fff"></path><path d="M79.72,206.79a16.16,16.16,0,0,1-4.8-.7,13.3,13.3,0,0,1-8.2-7A15.57,15.57,0,0,1,55,203.91a.5.5,0,0,1-.48-.52.46.46,0,0,1,.52-.48,14.54,14.54,0,0,0,11.46-5.1.47.47,0,0,1,.47-.17.5.5,0,0,1,.38.32,12.12,12.12,0,0,0,7.86,7.18,17.61,17.61,0,0,0,11-.51.5.5,0,0,1,.33.94A20.37,20.37,0,0,1,79.72,206.79Z" fill="#fff"></path><path d="M70.69,112.54a.49.49,0,0,1-.48-.37,163.92,163.92,0,0,1-3.14-16.33.51.51,0,0,1,.42-.57.51.51,0,0,1,.57.43,163.39,163.39,0,0,0,3.11,16.21.49.49,0,0,1-.35.61A.3.3,0,0,1,70.69,112.54Z" fill="#d1d3d4"></path><path d="M266.33,114.6a.51.51,0,0,1-.5-.47c-.24-4.36,3.08-15,3.22-15.49a.49.49,0,0,1,.62-.33.5.5,0,0,1,.33.63c0,.1-3.4,11-3.17,15.13a.5.5,0,0,1-.47.53Z" fill="#d1d3d4"></path><path d="M339.71,96.21a.5.5,0,0,1-.49-.38c-1.25-5.1-4.92-17.21-5-17.33a.5.5,0,0,1,1-.29c0,.12,3.71,12.25,5,17.38a.49.49,0,0,1-.36.6Z" fill="#d1d3d4"></path><path d="M291.83,134.87a.5.5,0,0,1-.08-1,22.05,22.05,0,0,0,9.16-3.77,3,3,0,0,1,1.58-.7,2.79,2.79,0,0,1,1.26.34l.87.41a17.27,17.27,0,0,0,3.91,1.51,5.06,5.06,0,0,0,4.51-1,.48.48,0,0,1,.7,0,.5.5,0,0,1,0,.71,6,6,0,0,1-5.4,1.24,18.94,18.94,0,0,1-4.14-1.58l-.87-.41a1.94,1.94,0,0,0-.8-.25,2.09,2.09,0,0,0-1,.5,23.33,23.33,0,0,1-9.61,4Z" fill="#fff"></path></g></svg>