<svg xmlns="http://www.w3.org/2000/svg" viewBox="0 0 400 300" width="406" height="306" class="illustration styles_illustrationTablet__1DWOa"><g id="_234_global_warming_outline" data-name="#234_global_warming_outline"><path d="M268.28,157.29a68.28,68.28,0,1,1-133.12-21.44h0c.31-.94.64-1.88,1-2.8.25-.67.52-1.34.8-2,1.32-1.66,4.26-3.22,8.5-4.6,11.21-3.66,31.45-6.1,54.54-6.1l3.44,0c6.4.07,12.55.32,18.31.74,21.49,1.55,37.61,5.33,41.29,9.93.27.66.54,1.33.8,2h0a68.16,68.16,0,0,1,3.7,14.22,67.06,67.06,0,0,1,.73,8.91C268.28,156.55,268.28,156.92,268.28,157.29Z" fill="#68e1fd"></path><path d="M200,226.57a69.31,69.31,0,0,1-65.81-91,.19.19,0,0,1,0-.07c.35-1.06.68-2,1-2.85.25-.67.52-1.36.81-2a.79.79,0,0,1,.14-.23c1.43-1.8,4.44-3.46,9-4.93,11.79-3.85,32.3-6.15,54.85-6.15l3.32,0h.13c6.39.07,12.57.32,18.37.74,22.43,1.62,38.13,5.47,42,10.31a.72.72,0,0,1,.14.24c.28.67.55,1.35.81,2l0,.09a69.79,69.79,0,0,1,3.73,14.35,68.33,68.33,0,0,1,.74,9c0,.37,0,.75,0,1.13A69.29,69.29,0,0,1,200,226.57Zm-63.87-90.48,0,.08a67.28,67.28,0,1,0,131.17,21.12c0-.36,0-.72,0-1.08a66,66,0,0,0-.72-8.79,67.16,67.16,0,0,0-3.65-14,.31.31,0,0,1,0-.08c-.23-.6-.47-1.2-.71-1.78-3.6-4.23-19.44-7.93-40.49-9.45-5.76-.42-11.9-.67-18.25-.74h-.13l-3.3,0c-22.36,0-42.63,2.26-54.23,6-5,1.63-7.08,3.15-8,4.17-.25.61-.5,1.22-.73,1.83C136.77,134.21,136.46,135.09,136.13,136.09Z" fill="#093f68"></path><path d="M215.13,171.27c-2.84-1.61-6.26,1-8,3.83s-3.24,6.2-6.38,7.12c-2,.59-5,.68-5.05,2.76a2.89,2.89,0,0,0,.18.92C198,192.14,207,194,212.27,190s6.44-11.8,4.09-17.94" fill="#70cc40"></path><path d="M205.68,193.11a13,13,0,0,1-3.89-.59,10.06,10.06,0,0,1-6.84-6.31,3.56,3.56,0,0,1-.23-1.24c0-2.43,2.58-3,4.45-3.39.46-.1.91-.2,1.32-.32,2.25-.66,3.64-3,5-5.3.27-.47.55-.94.83-1.39,2.15-3.47,6-6,9.33-4.17a1,1,0,0,1,.49.69,1,1,0,0,1,1.17.61c2.32,6.05,1.54,14.55-4.41,19.09A11.89,11.89,0,0,1,205.68,193.11Zm7.58-21.33c-2.07,0-4.21,2.16-5.26,3.84-.27.44-.54.9-.81,1.35-1.46,2.5-3.12,5.32-6.14,6.21-.45.13-1,.24-1.46.35-2,.43-2.86.75-2.87,1.47a1.85,1.85,0,0,0,.13.58,8.09,8.09,0,0,0,5.53,5,10.44,10.44,0,0,0,9.29-1.41c5.17-3.94,5.8-11.43,3.76-16.78a.61.61,0,0,1-.05-.18,1,1,0,0,1-.74-.1A2.76,2.76,0,0,0,213.26,171.78Z" fill="#093f68"></path><path d="M195,196.46A11.7,11.7,0,0,0,185,198.59a13,13,0,0,0,8.62,3.72c1.71.07,3.66-.36,4.55-1.82s-.33-3.93-2-3.49" fill="#70cc40"></path><path d="M193.89,203.32h-.36a14,14,0,0,1-9.29-4,1,1,0,0,1-.29-.77,1,1,0,0,1,.38-.73,12.73,12.73,0,0,1,10.95-2.3,1,1,0,0,1,.65.52,2.61,2.61,0,0,1,2.75,1.09,3.57,3.57,0,0,1,.3,3.9C198.07,202.49,196.23,203.32,193.89,203.32Zm-7.34-4.64a12,12,0,0,0,7,2.64c.84,0,2.87,0,3.67-1.35a1.63,1.63,0,0,0-.19-1.66.69.69,0,0,0-.69-.34,1,1,0,0,1-1.16-.53,1,1,0,0,1-.45,0A10.76,10.76,0,0,0,186.55,198.68Z" fill="#093f68"></path><path d="M268.28,157.29a68,68,0,0,1-17.76,45.93,32,32,0,0,1-1-4.87c-1.27-11.31,5.2-21.52,10.9-30.76a98.26,98.26,0,0,1,7.81-11.41C268.28,156.55,268.28,156.92,268.28,157.29Z" fill="#70cc40"></path><path d="M250.52,204.22l-.23,0a1,1,0,0,1-.73-.7,32.69,32.69,0,0,1-1-5c-1.28-11.42,5.08-21.74,10.7-30.84l.34-.55a99.71,99.71,0,0,1,7.89-11.53,1,1,0,0,1,1.77.62c0,.37,0,.75,0,1.13a69.06,69.06,0,0,1-18,46.61A1,1,0,0,1,250.52,204.22Zm16.74-45.13c-2.16,2.89-4.08,6-5.95,9l-.34.55c-5.45,8.83-11.62,18.83-10.41,29.57a28,28,0,0,0,.48,2.89A67,67,0,0,0,267.26,159.09Z" fill="#093f68"></path><path d="M267.54,147.27a22.29,22.29,0,0,1-7.1,2.1,23.6,23.6,0,0,1-19-6.66,21.23,21.23,0,0,1-3.51-4.49c-.94-1.61-1.72-3.39-3.17-4.56-2.91-2.37-7.49-1.54-10.46-3.83-2.59-2-2.91-5.3-2.56-8.73,21.49,1.55,37.61,5.33,41.29,9.93.27.66.54,1.33.8,2h0A68.16,68.16,0,0,1,267.54,147.27Z" fill="#70cc40"></path><path d="M258,150.51a25,25,0,0,1-17.23-7.09,22.13,22.13,0,0,1-3.68-4.7c-.19-.32-.37-.66-.56-1a10.57,10.57,0,0,0-2.37-3.28,10.91,10.91,0,0,0-4.85-1.76,12.7,12.7,0,0,1-5.59-2.06c-3.26-2.53-3.24-6.7-2.95-9.62a1,1,0,0,1,1.07-.9c22.43,1.62,38.13,5.47,42,10.31a.72.72,0,0,1,.14.24c.28.67.55,1.35.81,2l0,.09a69.79,69.79,0,0,1,3.73,14.35,1,1,0,0,1-.56,1,22.91,22.91,0,0,1-7.42,2.19A22,22,0,0,1,258,150.51Zm-35.32-28.34c-.2,3.37.51,5.52,2.26,6.87a11.25,11.25,0,0,0,4.76,1.68,12.53,12.53,0,0,1,5.72,2.17,12.17,12.17,0,0,1,2.86,3.86l.54,1a20.15,20.15,0,0,0,3.35,4.28,22.74,22.74,0,0,0,18.17,6.38,21.43,21.43,0,0,0,6.12-1.7,67.82,67.82,0,0,0-3.54-13.27.31.31,0,0,1,0-.08c-.23-.6-.47-1.2-.71-1.78C258.63,127.39,243.23,123.73,222.66,122.17Z" fill="#093f68"></path><path d="M195.53,134.87c-1.58-.14-3.07-.81-4.64-1-5.67-.61-10,5.54-10.08,11.27,0,.21,0,.43,0,.64.23,5.9,3.49,11.17,5.93,16.55,1,2.14,1.83,4.51,1.26,6.78-1,4.05-5.87,5.69-10,6.09s-8.84.46-11.75,3.45c-3.81,3.91,3.1,27.41-9.65,19.14-1.89-1.22-3.59-3.5-5.78-3s-2.74,3.23-3.48,5.33l-.15.4a68.36,68.36,0,0,1-12-64.7h0c.51-.39,1-.77,1.55-1.13a36.74,36.74,0,0,1,5.1-2.92c1.34-.63,2.81-1.27,3.5-2.57a3.41,3.41,0,0,0,.15-2.78c11.21-3.66,31.45-6.1,54.54-6.1l3.44,0a13.36,13.36,0,0,1,.77,2.57C205.31,128.53,201.21,135.37,195.53,134.87Z" fill="#70cc40"></path><path d="M147.17,201.55a1,1,0,0,1-.78-.36,69.39,69.39,0,0,1-12.19-65.62,1,1,0,0,1,.35-.52c.52-.4,1.06-.79,1.59-1.16a37,37,0,0,1,5.24-3l.2-.09a5.91,5.91,0,0,0,2.84-2.05,2.34,2.34,0,0,0,.09-2,1,1,0,0,1,.05-.77,1,1,0,0,1,.59-.51c11.79-3.85,32.3-6.15,54.85-6.15l3.32,0h.13a1,1,0,0,1,.91.62,14.07,14.07,0,0,1,.83,2.76,12.28,12.28,0,0,1-2.88,10.2,8.21,8.21,0,0,1-6.87,2.93h0a15.65,15.65,0,0,1-2.54-.52,13.08,13.08,0,0,0-2.11-.45,6.73,6.73,0,0,0-5.21,1.81,12,12,0,0,0-3.77,8.48c0,.17,0,.38,0,.57.17,4.48,2.24,8.72,4.24,12.82.54,1.13,1.09,2.24,1.6,3.37,1.06,2.35,2,4.88,1.32,7.43-1.35,5.36-8.08,6.57-10.91,6.85l-1.41.12c-3.63.31-7.39.64-9.72,3-1.06,1.09-1.07,5-1.08,8.51,0,5.23,0,10.63-3,12.24-1.68.91-3.92.43-6.85-1.47a17.93,17.93,0,0,1-1.63-1.24c-1.42-1.17-2.36-1.86-3.38-1.62-1.32.29-1.89,2-2.45,3.75-.1.32-.2.63-.31.93l-.16.43a1,1,0,0,1-.77.63Zm4.26-7.8c1.66,0,3,1.12,4.24,2.12a16.07,16.07,0,0,0,1.45,1.11c2.19,1.42,3.85,1.9,4.8,1.39,1.92-1,1.93-6.28,1.94-10.49,0-4.41,0-8.23,1.65-9.9,2.85-2.92,7.17-3.29,11-3.62l1.39-.12c1.88-.18,8.09-1.1,9.16-5.34.49-2-.29-4.11-1.2-6.13-.51-1.1-1-2.21-1.58-3.31-2.09-4.29-4.25-8.72-4.44-13.61,0-.21,0-.45,0-.68a13.91,13.91,0,0,1,4.44-10,8.62,8.62,0,0,1,6.75-2.3,15.72,15.72,0,0,1,2.42.5,13.14,13.14,0,0,0,2.2.47h0a6.27,6.27,0,0,0,5.2-2.28,10.33,10.33,0,0,0,2.41-8.48,14.06,14.06,0,0,0-.48-1.77H200c-21.8,0-41.63,2.15-53.36,5.77a4.24,4.24,0,0,1-.45,2.58,7.41,7.41,0,0,1-3.77,2.92l-.19.09a36.18,36.18,0,0,0-5,2.84c-.42.29-.84.59-1.25.91a67.36,67.36,0,0,0,10.79,62.05c.65-1.93,1.52-4.15,3.77-4.65A3.58,3.58,0,0,1,151.43,193.75Z" fill="#093f68"></path><path d="M226.27,189.72c-1.17,1.42-1.9,3.18-3.17,4.5s-2.65,2-3.66,3.27-1.3,3.44,0,4.39a3.72,3.72,0,0,0,3,.26,15.45,15.45,0,0,0,10.2-8.09,6.43,6.43,0,0,0,.8-3.86C232.76,186.24,228.09,187.51,226.27,189.72Z" fill="#70cc40"></path><path d="M221.07,203.32a3.68,3.68,0,0,1-2.17-.63,3.1,3.1,0,0,1-1.28-2.18,5,5,0,0,1,1-3.64,12.68,12.68,0,0,1,2.2-2,13.28,13.28,0,0,0,1.53-1.31,14.07,14.07,0,0,0,1.66-2.31,20.28,20.28,0,0,1,1.46-2.14h0c1.31-1.59,4-2.89,6.19-2.31a3.77,3.77,0,0,1,2.75,3.25,7.27,7.27,0,0,1-.89,4.47,16.39,16.39,0,0,1-10.87,8.62A7,7,0,0,1,221.07,203.32Zm6-13a18.24,18.24,0,0,0-1.3,1.91,15.9,15.9,0,0,1-1.92,2.65,15.19,15.19,0,0,1-1.74,1.5,10.5,10.5,0,0,0-1.86,1.69,3,3,0,0,0-.63,2.12,1.18,1.18,0,0,0,.47.83,2.74,2.74,0,0,0,2.17.1,14.34,14.34,0,0,0,9.52-7.55,5.43,5.43,0,0,0,.72-3.25,1.8,1.8,0,0,0-1.29-1.65,4.7,4.7,0,0,0-4.14,1.65Z" fill="#093f68"></path><path d="M263.84,133h0c0,3.87-8.7,7.33-22.39,9.66a256.16,256.16,0,0,1-41.45,3c-6.69,0-13.14-.2-19.19-.58-23.3-1.47-40.85-5.52-44.1-10.46a3,3,0,0,1-.55-1.67,3.16,3.16,0,0,1,.8-2c1.32-1.66,4.26-3.22,8.5-4.6,11.21-3.66,31.45-6.1,54.54-6.1l3.44,0c6.4.07,12.55.32,18.31.74,21.49,1.55,37.61,5.33,41.29,9.93A3.2,3.2,0,0,1,263.84,133Z" fill="#ad7972"></path><path d="M200,146.75c-6.63,0-13.1-.19-19.25-.58-19-1.2-40.79-4.7-44.88-10.91a4,4,0,0,1-.71-2.22,4.12,4.12,0,0,1,1-2.63c1.43-1.79,4.44-3.45,9-4.92,11.79-3.85,32.3-6.15,54.85-6.15l3.32,0h.13c6.39.07,12.57.32,18.37.74,22.43,1.62,38.13,5.47,42,10.31a4.14,4.14,0,0,1,1,2.63h0c0,5.54-12.64,8.85-23.22,10.65A258.91,258.91,0,0,1,200,146.75Zm0-25.41c-22.36,0-42.63,2.26-54.23,6-5.17,1.68-7.22,3.25-8,4.27a2.22,2.22,0,0,0-.58,1.38,2,2,0,0,0,.38,1.12c3,4.54,20.4,8.57,43.33,10,6.11.39,12.55.58,19.13.58a257,257,0,0,0,41.28-3c15.89-2.71,21.55-6.26,21.56-8.68h0a2.22,2.22,0,0,0-.58-1.38c-3.42-4.28-19.35-8-40.58-9.56-5.76-.42-11.9-.67-18.25-.74h-.13Z" fill="#093f68"></path><path d="M152.14,133.05s5.07-2.55,5.35-12,0-13.06,0-13.06h19.43s-1.12,18.59,1.41,21.12a40.9,40.9,0,0,0,4.41,3.89Z" fill="#ffbc0e"></path><path d="M182.74,134.05h-30.6a1,1,0,0,1-.45-1.89c.21-.11,4.55-2.5,4.8-11.09.28-9.21,0-12.91,0-12.95a1,1,0,0,1,.26-.76,1,1,0,0,1,.73-.32h19.43a1,1,0,0,1,.73.32,1,1,0,0,1,.27.74c-.54,8.92-.27,19,1.12,20.35a37.94,37.94,0,0,0,4.29,3.78,1,1,0,0,1-.59,1.82Zm-27.89-2h25.09c-.67-.59-1.45-1.32-2.32-2.18-.46-.47-2.7-3.64-1.76-20.83H158.55c.06,1.69.14,5.46-.06,12.09C158.32,126.86,156.44,130.22,154.85,132.05Z" fill="#093f68"></path><ellipse cx="167.39" cy="108.04" rx="9.8" ry="3.59" fill="#e28362"></ellipse><path d="M167.39,112.63c-5.37,0-10.8-1.58-10.8-4.59s5.43-4.58,10.8-4.58,10.8,1.57,10.8,4.58S172.76,112.63,167.39,112.63Zm0-7.17c-5.69,0-8.8,1.7-8.8,2.58s3.11,2.59,8.8,2.59,8.8-1.71,8.8-2.59S173.08,105.46,167.39,105.46Z" fill="#093f68"></path><path d="M162.89,128.6c.14.56,2.68,6.61,6.05,8l5.21-.7s-1.69-1.83-1.26-6.06" fill="#ffbc0e"></path><path d="M168.94,137.62a1,1,0,0,1-.38-.08c-3.83-1.59-6.48-8.06-6.64-8.7a1,1,0,0,1,1.94-.49c.16.56,2.41,5.83,5.24,7.24l3.45-.47a10.83,10.83,0,0,1-.66-5.36,1,1,0,0,1,2,.2c-.36,3.65,1,5.22,1,5.29a1,1,0,0,1,.18,1,1,1,0,0,1-.79.65l-5.21.7Z" fill="#093f68"></path><path d="M187.83,129.47s3.25-2.81,3.4-9.7a44.72,44.72,0,0,0-1-11.72h19.34s1.9,15,4.44,17.53a39.54,39.54,0,0,0,4.41,3.89Z" fill="#ffbc0e"></path><path d="M218.43,130.47h-30.6a1,1,0,0,1-.66-1.75s2.92-2.69,3.07-9a44.5,44.5,0,0,0-1-11.43,1,1,0,0,1,1-1.27h19.33a1,1,0,0,1,1,.88c.72,5.67,2.48,15.28,4.15,16.95a40.41,40.41,0,0,0,4.29,3.78,1,1,0,0,1,.37,1.12A1,1,0,0,1,218.43,130.47Zm-28.53-2h25.73c-.67-.59-1.46-1.32-2.32-2.18-2.42-2.41-4.13-13.75-4.61-17.24H191.49a52.94,52.94,0,0,1,.75,10.75A16.8,16.8,0,0,1,189.9,128.47Z" fill="#093f68"></path><ellipse cx="200.05" cy="108.05" rx="9.8" ry="3.59" fill="#e28362"></ellipse><path d="M200,112.64c-5.36,0-10.79-1.57-10.79-4.59s5.43-4.58,10.79-4.58,10.81,1.57,10.81,4.58S205.41,112.64,200,112.64Zm0-7.17c-5.69,0-8.79,1.71-8.79,2.58s3.1,2.59,8.79,2.59,8.81-1.71,8.81-2.59S205.74,105.47,200,105.47Z" fill="#093f68"></path><path d="M198.58,125c.14.56,2.67,6.62,6,8l5.21-.71s-1.69-1.83-1.27-6" fill="#ffbc0e"></path><path d="M204.63,134.05a1,1,0,0,1-.38-.08c-3.83-1.6-6.48-8.06-6.64-8.71a1,1,0,0,1,1.94-.49c.16.56,2.41,5.84,5.23,7.25l3.46-.47a10.85,10.85,0,0,1-.66-5.36,1,1,0,0,1,1.09-.9,1,1,0,0,1,.9,1.1c-.37,3.65,1,5.22,1,5.28a1,1,0,0,1-.61,1.66l-5.2.71Z" fill="#093f68"></path><path d="M251.09,134.54S246,132,245.74,122.59s0-13,0-13H226.31s1.13,18.58-1.41,21.11a39.54,39.54,0,0,1-4.41,3.89Z" fill="#ffbc0e"></path><path d="M251.09,135.54h-30.6a1,1,0,0,1-.58-1.81A41.9,41.9,0,0,0,224.2,130c1.38-1.39,1.65-11.44,1.11-20.35a1,1,0,0,1,.27-.75,1,1,0,0,1,.73-.31h19.43a1,1,0,0,1,.73.32,1,1,0,0,1,.27.75s-.28,3.74,0,13c.26,8.61,4.62,11,4.8,11.09a1,1,0,0,1-.45,1.89Zm-27.8-2h25.1c-1.6-1.83-3.48-5.18-3.65-10.92-.2-6.62-.12-10.4-.05-12.08H227.37c.95,17.18-1.29,20.35-1.76,20.82C224.75,132.22,224,133,223.29,133.54Z" fill="#093f68"></path><ellipse cx="235.84" cy="109.54" rx="9.8" ry="3.59" fill="#e28362"></ellipse><path d="M235.84,114.12c-5.36,0-10.8-1.57-10.8-4.58s5.44-4.59,10.8-4.59,10.8,1.57,10.8,4.59S241.21,114.12,235.84,114.12Zm0-7.17c-5.69,0-8.8,1.71-8.8,2.59s3.11,2.58,8.8,2.58,8.8-1.71,8.8-2.58S241.54,107,235.84,107Z" fill="#093f68"></path><path d="M240.34,130.09c-.14.56-1.17,7.42-4.55,8.83l-5.32-.81a34.43,34.43,0,0,0-.12-6.75" fill="#ffbc0e"></path><path d="M235.79,139.92h-.15l-5.32-.81a1,1,0,0,1-.85-1.1,32.54,32.54,0,0,0-.12-6.54,1,1,0,0,1,.9-1.1,1,1,0,0,1,1.09.9,40.07,40.07,0,0,1,.19,6l4.11.63c1-.55,2.6-2.28,3.66-7.69,0-.17.06-.29.07-.35a1,1,0,0,1,1.94.48s0,.13-.05.25c-1,5.16-2.72,8.28-5.09,9.26A1,1,0,0,1,235.79,139.92Z" fill="#093f68"></path><path d="M198.58,141.61H194.9a1,1,0,1,1,0-2h3.68a1,1,0,1,1,0,2Z" fill="#093f68"></path><path d="M213.85,139.92a1,1,0,0,1-1-.78,1,1,0,0,1,.76-1.2l3.65-.8a1,1,0,1,1,.43,2l-3.65.81Z" fill="#093f68"></path><path d="M187.83,139.11h-5.09a1,1,0,0,1,0-2h5.09a1,1,0,1,1,0,2Z" fill="#093f68"></path><path d="M153.41,137.62l-.26,0-4.88-1.32a1,1,0,0,1-.7-1.22,1,1,0,0,1,1.22-.71l4.88,1.31a1,1,0,0,1-.26,2Z" fill="#093f68"></path><path d="M242,98.48a1,1,0,0,1-.67-.26,1,1,0,0,1-.07-1.41c1.29-1.44,2.45-2.86,2.46-4.36s-1.11-2.89-2.3-4.34c-.46-.55-.94-1.12-1.35-1.72a12,12,0,0,1,0-13.6,1,1,0,0,1,1.64,1.15,10,10,0,0,0,0,11.3c.37.53.79,1.05,1.25,1.6,1.37,1.66,2.79,3.38,2.76,5.64s-1.42,3.93-3,5.66A1,1,0,0,1,242,98.48Z" fill="#dfeaef"></path><path d="M195.78,98.38a1,1,0,0,1-.53-1.85,3.5,3.5,0,0,0,1-1.26c1.31-2.35,2.44-4.62,1.84-6.73a9.5,9.5,0,0,0-1.57-2.8l-.61-.87a18.84,18.84,0,0,1-3.13-8.81,1,1,0,0,1,2-.17,16.8,16.8,0,0,0,2.8,7.86l.58.83A11.3,11.3,0,0,1,200,88c.8,2.85-.56,5.64-2,8.25a4.92,4.92,0,0,1-1.67,2A1,1,0,0,1,195.78,98.38Z" fill="#dfeaef"></path><path d="M216.88,87.87a1,1,0,0,1-.54-.16,1,1,0,0,1-.31-1.38,10.08,10.08,0,0,0,1.39-7.28,21.56,21.56,0,0,0-2.12-5.32l-.34-.67a17.21,17.21,0,0,1-2.15-6.78,7.31,7.31,0,0,1,3.34-6.71,1,1,0,1,1,1,1.72,5.4,5.4,0,0,0-2.36,4.91,15.42,15.42,0,0,0,1.94,6l.33.66a22.86,22.86,0,0,1,2.3,5.83,12.1,12.1,0,0,1-1.66,8.74A1,1,0,0,1,216.88,87.87Z" fill="#dfeaef"></path><path d="M174.8,91.18a1,1,0,0,1-.63-.22c-1.53-1.22-.68-3.24-.22-4.33a9.19,9.19,0,0,0,0-7.06,21.17,21.17,0,0,0-1.87-3.25,15.79,15.79,0,0,1-2.54-5.17c-.54-2.49,0-5.26,1.76-8.46a1,1,0,0,1,1.76,1c-1.49,2.77-2,5.08-1.57,7.08a14,14,0,0,0,2.26,4.5,22.46,22.46,0,0,1,2.05,3.58,11.22,11.22,0,0,1,0,8.61c-.25.59-.72,1.71-.37,2a1,1,0,0,1-.62,1.78Z" fill="#dfeaef"></path><path d="M155,101.21a1,1,0,0,1-.77-.36,1,1,0,0,1,.14-1.41,7.56,7.56,0,0,0,2.41-3.61,2.73,2.73,0,0,0,.14-1.16,4.41,4.41,0,0,0-.85-1.67l-.25-.37a13.79,13.79,0,0,1-2.32-7.47,1,1,0,0,1,1-1,1,1,0,0,1,1,1,11.83,11.83,0,0,0,2,6.39l.23.35a5.92,5.92,0,0,1,1.18,2.5,4.87,4.87,0,0,1-.2,2,9.6,9.6,0,0,1-3.06,4.59A1,1,0,0,1,155,101.21Z" fill="#dfeaef"></path></g></svg>