<svg xmlns="http://www.w3.org/2000/svg" viewBox="0 0 400 300" width="406" height="306" class="illustration styles_illustrationTablet__1DWOa"><g id="_132_world_connection_outline" data-name="#132_world_connection_outline"><path d="M88,93.05H312a0,0,0,0,1,0,0v124.8a3.05,3.05,0,0,1-3.05,3.05H91.06A3.05,3.05,0,0,1,88,217.85V93.05A0,0,0,0,1,88,93.05Z" fill="#68e1fd"></path><path d="M308.94,221.91H91.06A4.06,4.06,0,0,1,87,217.85V93.05a1,1,0,0,1,1-1H312a1,1,0,0,1,1,1v124.8A4.06,4.06,0,0,1,308.94,221.91ZM89,94.05v123.8a2.06,2.06,0,0,0,2.06,2.06H308.94a2.06,2.06,0,0,0,2.06-2.06V94.05Z" fill="#093f68"></path><path d="M91.06,79.09H308.94A3.05,3.05,0,0,1,312,82.15v10.9a0,0,0,0,1,0,0H88a0,0,0,0,1,0,0V82.15A3.05,3.05,0,0,1,91.06,79.09Z" fill="#fff"></path><path d="M312,94.05H88a1,1,0,0,1-1-1V82.15a4.06,4.06,0,0,1,4.06-4.06H308.94A4.06,4.06,0,0,1,313,82.15v10.9A1,1,0,0,1,312,94.05Zm-223-2H311v-9.9a2.06,2.06,0,0,0-2.06-2.06H91.06A2.06,2.06,0,0,0,89,82.15Z" fill="#093f68"></path><path d="M162.32,169.78c1.47.1,3.29.58,3.53,2,.26,1.61-1.73,2.83-1.73,4.46a21.21,21.21,0,0,0,.51,2.2c.16,1.5-1.09,2.73-2.16,3.8a52.54,52.54,0,0,0-8.51,12,19.36,19.36,0,0,0-1.67,3.61,10.24,10.24,0,0,0,.28,6.82,6.58,6.58,0,0,1,.62,2,1.54,1.54,0,0,1-1,1.63,2.18,2.18,0,0,1-1.67-.57l-3.5-2.43a5.68,5.68,0,0,1-3.17-5.38l-1.45-15.49a4.69,4.69,0,0,0-.55-2.14,5.42,5.42,0,0,0-1.57-1.36,17,17,0,0,1-4.74-5,5.32,5.32,0,0,1-.94-2.51c-.07-1.3.66-2.5,1.13-3.72.8-2.07.86-4.36,1.56-6.47s2.39-4.19,4.61-4.21c2.59,0,4.48,2.68,7,3,.75.11,1.53,0,2.28.14,2.52.47,3.65,3.22,5.24,4.92A8.42,8.42,0,0,0,162.32,169.78Z" fill="#70cc40"></path><path d="M151.92,209.29a3.51,3.51,0,0,1-2-.78l-3.5-2.43a8.52,8.52,0,0,1-2.74-2.63,8.38,8.38,0,0,1-.85-3.47l-1.45-15.5a4,4,0,0,0-.4-1.69,4.14,4.14,0,0,0-1.09-.94l-.2-.13a17.93,17.93,0,0,1-5-5.27,6.28,6.28,0,0,1-1.09-3,7.27,7.27,0,0,1,.84-3.27c.13-.29.25-.57.36-.85a18.62,18.62,0,0,0,.81-3.29,24.63,24.63,0,0,1,.73-3.15c.75-2.24,2.65-4.87,5.55-4.89a7.64,7.64,0,0,1,4.3,1.68,7.74,7.74,0,0,0,2.89,1.36,8.7,8.7,0,0,0,.93,0,7.48,7.48,0,0,1,1.39.09c2.2.41,3.46,2.15,4.57,3.68a17.86,17.86,0,0,0,1.22,1.55,7.52,7.52,0,0,0,5.19,2.37h0c2.55.16,4.17,1.2,4.44,2.86a4.26,4.26,0,0,1-1,3,3.35,3.35,0,0,0-.72,1.57,2.89,2.89,0,0,0,.21.89,5.85,5.85,0,0,1,.3,1.2c.2,2-1.26,3.43-2.44,4.6a51.17,51.17,0,0,0-8.35,11.77,18.3,18.3,0,0,0-1.6,3.41,9.4,9.4,0,0,0,.25,6.15l.15.35a5.65,5.65,0,0,1,.55,1.93,2.52,2.52,0,0,1-1.76,2.66A2.22,2.22,0,0,1,151.92,209.29Zm-10-49.28h0c-1.73,0-3.09,1.78-3.67,3.52a21.25,21.25,0,0,0-.66,2.88,20.2,20.2,0,0,1-.91,3.64c-.12.32-.26.63-.4.94a5.83,5.83,0,0,0-.68,2.37,4.59,4.59,0,0,0,.8,2,15.92,15.92,0,0,0,4.46,4.68l.19.13a5.65,5.65,0,0,1,1.65,1.5,5.48,5.48,0,0,1,.71,2.59l1.45,15.5a4.73,4.73,0,0,0,2.74,4.65l3.5,2.43c.16.11.66.46.86.42a.68.68,0,0,0,.23-.6,4.07,4.07,0,0,0-.39-1.27l-.16-.38a11.2,11.2,0,0,1-.31-7.49,20.72,20.72,0,0,1,1.76-3.8,53.39,53.39,0,0,1,8.67-12.2c.94-.93,2-2,1.88-3a5.12,5.12,0,0,0-.21-.78,4.61,4.61,0,0,1-.31-1.52,4.89,4.89,0,0,1,1-2.67c.41-.63.77-1.16.69-1.62-.13-.77-1.48-1.13-2.6-1.2h0a9.43,9.43,0,0,1-6.52-3,17.64,17.64,0,0,1-1.37-1.73c-1-1.35-1.91-2.63-3.32-2.89a5.82,5.82,0,0,0-1.05-.06,10,10,0,0,1-1.19-.07,9.31,9.31,0,0,1-3.69-1.66A6.33,6.33,0,0,0,141.94,160Z" fill="#093f68"></path><path d="M136.42,155.88a3.91,3.91,0,0,0-2.4-3.08c-1.47-.47-3.28.24-4.49-.71-1-.76-1-2.18-.89-3.4a6.84,6.84,0,0,1,1-3.22,3,3,0,0,1,2.92-1.33c1.58.35,2.26,2.17,3.31,3.39a1.55,1.55,0,0,0,1,.64c1.17,0,1.18-1.74,1.75-2.76s2.2-1.41,3.05-2.4.82-2.25,1.45-3.26c1.44-2.31,5.18-2,6.86-4.14.8-1,1-2.51,2.09-3.25,1.51-1.05,3.92-.09,5.19-1.41a3.85,3.85,0,0,0,.81-2.25c.22-1.64.07-3.86-1.54-4.22-1.21-.28-2.62.79-3.63.07-.7-.49-.77-1.59-1.5-2-.89-.51-1.94.31-2.61,1.09a18.74,18.74,0,0,1-3,3.17,4.72,4.72,0,0,1-4.11.94,2.74,2.74,0,0,1-1.86-3.41,4.39,4.39,0,0,1,2-1.89l4.13-2.4a2.74,2.74,0,0,0,1.34-1.26c.36-1-.38-1.93-1.06-2.68a2.36,2.36,0,0,0-.86-.68c-.86-.32-1.71.41-2.44,1a10.56,10.56,0,0,1-7.31,1.65,48.13,48.13,0,0,1-7.46-1.68,57.92,57.92,0,0,0-8-1.5,15.25,15.25,0,0,0-5,0,15.11,15.11,0,0,0-5.48,2.77,45.82,45.82,0,0,0-5.51,4.71c-1.25,1.24-2.49,3.09-1.61,4.61a1.26,1.26,0,0,0,.79.64,1.77,1.77,0,0,0,1.23-.46c2.18-1.56,4.5-3.18,7.18-3.41s5.71,1.56,5.8,4.24-2.81,4.73-3.84,7.34c-1.41,3.59.94,7.45,3.18,10.58L122,153a6.58,6.58,0,0,0,1.77,1.87,8.07,8.07,0,0,0,2.21.72,15.86,15.86,0,0,1,5.59,2.59c.82.6,3,2.64,4.18,2.09S136.58,156.78,136.42,155.88Z" fill="#70cc40"></path><path d="M135.33,161.32c-1.34,0-2.82-1.18-3.86-2L131,159a15.07,15.07,0,0,0-5.23-2.43l-.36-.09a6.94,6.94,0,0,1-2.14-.75,7.4,7.4,0,0,1-2.06-2.13l-5.07-7.09c-2.5-3.49-4.85-7.59-3.3-11.52a13.53,13.53,0,0,1,1.93-3.11c1-1.28,1.88-2.49,1.84-3.83a3,3,0,0,0-1.06-2.09,5.1,5.1,0,0,0-3.66-1.19c-2.45.21-4.7,1.81-6.68,3.23a2.63,2.63,0,0,1-2,.62,2.2,2.2,0,0,1-1.49-1.12c-.94-1.63-.3-3.75,1.77-5.82a47.81,47.81,0,0,1,5.63-4.81,15.84,15.84,0,0,1,5.86-2.93,16.12,16.12,0,0,1,5.32-.06,61.22,61.22,0,0,1,8.19,1.53c.56.14,1.12.3,1.67.45a33.28,33.28,0,0,0,5.64,1.21,9.66,9.66,0,0,0,6.61-1.46l.18-.14c.76-.57,1.91-1.43,3.21-1a3.31,3.31,0,0,1,1.24.94c.52.56,1.89,2.06,1.27,3.71a3.72,3.72,0,0,1-1.78,1.78l-4.12,2.39a3.61,3.61,0,0,0-1.64,1.41,1.33,1.33,0,0,0,.08,1,2,2,0,0,0,1.16,1,3.71,3.71,0,0,0,3.21-.79,13.9,13.9,0,0,0,2.34-2.43l.49-.58c1.26-1.5,2.71-2,3.87-1.31a3.15,3.15,0,0,1,1.18,1.44,2.15,2.15,0,0,0,.39.63c.2.13.6.05,1.19-.09a4.52,4.52,0,0,1,2.09-.15c1.84.42,2.71,2.41,2.31,5.33a4.79,4.79,0,0,1-1.08,2.82,4.68,4.68,0,0,1-3.35,1.12,3.94,3.94,0,0,0-2,.41,3.63,3.63,0,0,0-1,1.49,8.26,8.26,0,0,1-.9,1.56A8,8,0,0,1,147,138.5a5.57,5.57,0,0,0-3,1.78,5.81,5.81,0,0,0-.5,1.25,5.77,5.77,0,0,1-1,2.13,6.07,6.07,0,0,1-1.68,1.25,3.23,3.23,0,0,0-1.26,1,4.83,4.83,0,0,0-.34.92c-.28.91-.74,2.41-2.32,2.36a2.51,2.51,0,0,1-1.76-1,12.28,12.28,0,0,1-.92-1.26c-.6-.88-1.12-1.64-1.85-1.81a2,2,0,0,0-1.88.93,6,6,0,0,0-.82,2.76c-.14,1.28,0,2.12.51,2.5a3.14,3.14,0,0,0,1.92.32,6.88,6.88,0,0,1,2.26.23,4.82,4.82,0,0,1,3.07,3.85h0c0,.18.81,4.47-1.19,5.43A1.94,1.94,0,0,1,135.33,161.32ZM112.26,122.7a7.12,7.12,0,0,1,4.61,1.72,4.93,4.93,0,0,1,1.74,3.51c.07,2-1.11,3.6-2.24,5.1a11.61,11.61,0,0,0-1.67,2.64c-1.2,3,.88,6.57,3.06,9.63l5.08,7.08A5.62,5.62,0,0,0,124.3,154a6,6,0,0,0,1.56.52l.38.09a17,17,0,0,1,5.94,2.75c.14.11.33.25.53.42,1.75,1.39,2.41,1.62,2.65,1.57a7.27,7.27,0,0,0,.07-3.26h0a2.94,2.94,0,0,0-1.71-2.31,5.53,5.53,0,0,0-1.63-.13,4.71,4.71,0,0,1-3.18-.75c-1.07-.84-1.48-2.24-1.26-4.28a7.91,7.91,0,0,1,1.17-3.69,3.93,3.93,0,0,1,4-1.74,5.29,5.29,0,0,1,3.06,2.64,11.22,11.22,0,0,0,.79,1.08c.22.26.33.29.33.29s.22-.63.32-.95a7.58,7.58,0,0,1,.5-1.3,4.8,4.8,0,0,1,2-1.75,4.46,4.46,0,0,0,1.16-.81,4.35,4.35,0,0,0,.64-1.44,7.42,7.42,0,0,1,.71-1.7c.93-1.49,2.56-2.08,4-2.6a6.21,6.21,0,0,0,2.92-1.63,6.52,6.52,0,0,0,.66-1.18,5.31,5.31,0,0,1,1.65-2.27,5.66,5.66,0,0,1,3-.77,3.12,3.12,0,0,0,2-.51,3.19,3.19,0,0,0,.54-1.7c.14-1.06.14-2.9-.77-3.11a3.21,3.21,0,0,0-1.19.15,3.25,3.25,0,0,1-2.8-.23,3.37,3.37,0,0,1-1-1.36,1.77,1.77,0,0,0-.4-.61c-.19-.11-.77.21-1.33.87l-.47.57a16.35,16.35,0,0,1-2.7,2.76,5.69,5.69,0,0,1-5,1.09,4.09,4.09,0,0,1-2.38-2.11,3.29,3.29,0,0,1-.11-2.64,5.42,5.42,0,0,1,2.48-2.38l4.12-2.39c.32-.19.81-.47.92-.76s-.17-.88-.87-1.64a1.76,1.76,0,0,0-.47-.42c-.27-.1-.87.35-1.31.67l-.19.15a11.65,11.65,0,0,1-8,1.84,35.68,35.68,0,0,1-6-1.27L128,117.3a57.53,57.53,0,0,0-7.92-1.48,14.26,14.26,0,0,0-4.67,0,14,14,0,0,0-5.1,2.6,44.72,44.72,0,0,0-5.4,4.61c-.5.5-2.11,2.25-1.45,3.4a.47.47,0,0,0,.14.16s.19-.11.44-.29c2.19-1.57,4.68-3.34,7.67-3.59A4.89,4.89,0,0,1,112.26,122.7Z" fill="#093f68"></path><path d="M144.12,154a6.18,6.18,0,0,0-4.09-2.15,1.39,1.39,0,0,0-.9.14.57.57,0,0,0-.2.79l2.75,1.92a2.15,2.15,0,0,0,.84.42,1.14,1.14,0,0,0,1.25-1.27" fill="#70cc40"></path><path d="M142.68,156.1a1.84,1.84,0,0,1-.33,0,3.05,3.05,0,0,1-1.24-.59l-2.75-1.92a1.21,1.21,0,0,1-.2-.19,1.41,1.41,0,0,1-.3-1.14,1.66,1.66,0,0,1,.74-1.13,2.38,2.38,0,0,1,1.52-.28,7.13,7.13,0,0,1,4.77,2.5,1,1,0,0,1-.12,1.4.94.94,0,0,1-.18.12,2.17,2.17,0,0,1-1.91,1.26Zm-1.5-3,1.08.75a2,2,0,0,0,.43.26.24.24,0,0,0,.08-.09A5.16,5.16,0,0,0,141.18,153.09Z" fill="#093f68"></path><path d="M178.71,115.73c-.77,1.51-1.37,3.4-3,4a12.27,12.27,0,0,1-2.65.2c-3.24.36-5.23,4.22-8.47,4.59A1.76,1.76,0,0,1,163,124a1.62,1.62,0,0,1-.29-1c-.09-2.12,1.67-4.42.47-6.17a6.58,6.58,0,0,0-2.33-1.63c-.82-.49-1.6-1.39-1.33-2.31s1.56-1.25,2.59-1.33l12.08-1c1.7-.14,4.37-.45,5.87.61C182.17,112.65,179.59,114,178.71,115.73Z" fill="#70cc40"></path><path d="M164.28,125.5a2.57,2.57,0,0,1-2.1-.92,2.67,2.67,0,0,1-.49-1.52,8.76,8.76,0,0,1,.5-2.85c.38-1.33.58-2.18.15-2.81a3.72,3.72,0,0,0-1.34-1l-.68-.38c-1.1-.66-2.23-2-1.77-3.46.54-1.79,2.74-2,3.46-2l12.39-1c1.9-.17,4.51-.39,6.21.81a2.65,2.65,0,0,1,1.24,1.8,3.87,3.87,0,0,1-1.33,2.83,7.85,7.85,0,0,0-.92,1.23h0l-.39.81c-.67,1.43-1.43,3-3.15,3.63a6.08,6.08,0,0,1-2,.22,6.47,6.47,0,0,0-.88,0,7.73,7.73,0,0,0-3.73,2.08c-1.39,1.12-2.83,2.29-4.73,2.51Zm12.47-14.11c-.76,0-1.54.07-2.18.12l-12.4,1c-1,.09-1.61.32-1.71.63s.31.82.88,1.16c.19.12.39.22.59.33a5.16,5.16,0,0,1,2.06,1.59c1,1.46.53,3.07.12,4.49a7.37,7.37,0,0,0-.42,2.21.82.82,0,0,0,.08.4,1,1,0,0,0,.74.11,7.81,7.81,0,0,0,3.7-2.08c1.41-1.13,2.86-2.3,4.77-2.51a10.29,10.29,0,0,1,1.11,0,4.22,4.22,0,0,0,1.33-.12c.91-.31,1.43-1.41,2-2.58q.21-.45.42-.87h0a8.54,8.54,0,0,1,1.18-1.62c.33-.39.89-1,.86-1.28,0,0-.1-.2-.4-.41A4.85,4.85,0,0,0,176.75,111.39Z" fill="#093f68"></path><path d="M180.12,148a5.93,5.93,0,0,0-1.33,2,7,7,0,0,0-.13,2.38c.1,2.61-.37,5.24,0,7.82s2,5.26,4.52,5.82a11.17,11.17,0,0,0,3.86-.19,25.14,25.14,0,0,1,5.13-.22,2.54,2.54,0,0,1,2.13.9c.53.86-.08,2,0,3,.08,1.32,1.23,2.27,2.13,3.23s1.64,2.48.83,3.52c-.27.36-.7.6-1,1a3,3,0,0,0-.26,2.23l.64,4.65a6.17,6.17,0,0,0,.5,1.94c.28.55.72,1,1,1.56a12.14,12.14,0,0,1,.61,3.14,5.55,5.55,0,0,0,9.68,2.45c1.94-2.31,1.73-5.79,3.28-8.38.88-1.48,2.35-2.68,2.71-4.37.29-1.38-.21-2.79-.25-4.19-.07-2.38,1.2-4.6,2.7-6.45a58,58,0,0,0,4.54-5.51,1.7,1.7,0,0,0,.32-.82c0-.94-1.22-1.24-2.11-1.52-2.55-.79-4-3.44-5-5.87a33.82,33.82,0,0,0-3.44-6.45,10.16,10.16,0,0,0-5.87-4.1c-2.8-.57-3.73,2.29-6.72.65-1.89-1-3.13-3.1-5.12-4C188.36,139.91,183.19,144.51,180.12,148Z" fill="#70cc40"></path><path d="M204.16,196.14a6.13,6.13,0,0,1-1.54-.19,6.68,6.68,0,0,1-4.81-5c-.08-.39-.12-.8-.17-1.21a3.47,3.47,0,0,0-.78-2.34,6.34,6.34,0,0,1-.57-.9,6.79,6.79,0,0,1-.6-2.26l-.64-4.64a3.92,3.92,0,0,1,.44-3,4.08,4.08,0,0,1,.65-.66,2.55,2.55,0,0,0,.33-.32c.39-.5-.1-1.52-.77-2.23l-.41-.42a4.41,4.41,0,0,1-1.85-4.82,2.11,2.11,0,0,0,0-1.14c-.14-.23-.59-.36-1.34-.41a23.93,23.93,0,0,0-4.93.21l-.55.08a10,10,0,0,1-3.66.1c-3.27-.72-4.9-4-5.3-6.65a24.5,24.5,0,0,1-.09-4.91c.05-1,.1-2,.06-3v-.31a7,7,0,0,1,.19-2.41,6.82,6.82,0,0,1,1.52-2.36h0c5.18-5.89,10.19-8,14.51-6.07a10.87,10.87,0,0,1,3,2.28,11,11,0,0,0,2.15,1.75,2.57,2.57,0,0,0,2.86-.11,5.25,5.25,0,0,1,3.58-.65A11.15,11.15,0,0,1,212,149a31.64,31.64,0,0,1,3.34,6.18l.21.46c1.07,2.39,2.35,4.68,4.43,5.32l.19.06c1,.3,2.66.81,2.63,2.43a2.6,2.6,0,0,1-.47,1.34,27.8,27.8,0,0,1-3,3.76c-.55.61-1.1,1.22-1.61,1.85-1.72,2.12-2.54,4-2.48,5.79a10.93,10.93,0,0,0,.16,1.44,6.44,6.44,0,0,1-1.77,6.29,11.84,11.84,0,0,0-1,1.38,13.55,13.55,0,0,0-1.27,3.55,11.75,11.75,0,0,1-2.11,4.95A6.67,6.67,0,0,1,204.16,196.14Zm-13.48-31.56c.52,0,1,0,1.57,0a3.56,3.56,0,0,1,2.93,1.38,3.44,3.44,0,0,1,.22,2.53,4,4,0,0,0-.1.92c0,.74.71,1.42,1.42,2.14l.44.45c1.26,1.34,2,3.35.89,4.83a3.9,3.9,0,0,1-.61.61,2,2,0,0,0-.33.32,2.34,2.34,0,0,0-.08,1.5l.64,4.65a5.49,5.49,0,0,0,.4,1.63,4.92,4.92,0,0,0,.42.63,6.75,6.75,0,0,1,.58.93,6.64,6.64,0,0,1,.56,2.37c0,.34.07.68.14,1a4.55,4.55,0,0,0,7.93,2,10.15,10.15,0,0,0,1.71-4.15,14.78,14.78,0,0,1,1.48-4.09A15.68,15.68,0,0,1,212,182.7a4.6,4.6,0,0,0,1.36-4.76,12.89,12.89,0,0,1-.18-1.68c-.07-2.27.89-4.6,2.92-7.1.54-.66,1.11-1.3,1.68-1.93a24.88,24.88,0,0,0,2.79-3.48,1.09,1.09,0,0,0,.17-.32,4.8,4.8,0,0,0-1.21-.48l-.2-.06c-2.83-.87-4.4-3.6-5.66-6.41l-.21-.46a30.76,30.76,0,0,0-3.12-5.8,9.16,9.16,0,0,0-5.28-3.72,3.36,3.36,0,0,0-2.31.49,4.5,4.5,0,0,1-4.68.06,12.39,12.39,0,0,1-2.57-2.05,9.49,9.49,0,0,0-2.48-1.91c-4.33-1.92-9,2-12.18,5.57h0a5.14,5.14,0,0,0-1.12,1.65,5,5,0,0,0-.1,1.71v.33c0,1.08,0,2.15-.06,3.19a22.62,22.62,0,0,0,.07,4.52c.33,2.15,1.61,4.53,3.74,5a8,8,0,0,0,2.94-.12l.56-.08A26.45,26.45,0,0,1,190.68,164.58Z" fill="#093f68"></path><path d="M217.88,180.26a2.46,2.46,0,0,1-.08.82,2,2,0,0,1-.55.66,4.34,4.34,0,0,0-.95,4.62,1,1,0,0,0,.21.36,1,1,0,0,0,.49.24,2.44,2.44,0,0,0,2.08-.65,6.52,6.52,0,0,0,1.33-1.82,13.18,13.18,0,0,0,1.32-3.12c.29-1.17.53-3.51-1-3.85S217.92,179,217.88,180.26Z" fill="#70cc40"></path><path d="M217.39,188a3.05,3.05,0,0,1-.6-.06,1.94,1.94,0,0,1-1-.53,2.17,2.17,0,0,1-.42-.67,5.38,5.38,0,0,1,1.18-5.72l.11-.1a1.33,1.33,0,0,0,.21-.22,1.63,1.63,0,0,0,0-.25v-.22h0a4.44,4.44,0,0,1,1.65-3.07,2.81,2.81,0,0,1,2.36-.61,2.35,2.35,0,0,1,1.54,1.08c.81,1.28.46,3.21.27,4a13.77,13.77,0,0,1-1.42,3.37,7.38,7.38,0,0,1-1.54,2.09A3.63,3.63,0,0,1,217.39,188Zm1.49-7.7v.15a2.48,2.48,0,0,1-.16,1,2.61,2.61,0,0,1-.68.91l-.09.08a3.38,3.38,0,0,0-.73,3.53,1.48,1.48,0,0,0,1.21-.42,5.76,5.76,0,0,0,1.1-1.55,12.18,12.18,0,0,0,1.23-2.87,3.86,3.86,0,0,0,0-2.45.38.38,0,0,0-.27-.19,1,1,0,0,0-.71.24A2.42,2.42,0,0,0,218.88,180.3Z" fill="#093f68"></path><path d="M206.88,119.22a5.11,5.11,0,0,1-2.08-.56,21.14,21.14,0,0,1-1.66-1.48c-2.1-1.6-5.11-.21-7.2,1.39a39.39,39.39,0,0,0-5.28,4.89l4.94,2.28a1.55,1.55,0,0,1,3.06-.43c.32,1.51-1.52,2.49-3,2.92l-6.37,1.85c-.37.11-1,0-.82-.38-.67-.56-1.46.68-1.23,1.53s.78,1.79.26,2.49-1.37.54-2,.88c-1.59.8-1.05,3.17-.27,4.77a7.8,7.8,0,0,1,8.74-.84,7.42,7.42,0,0,0,1.82.92,6.14,6.14,0,0,0,2.77-.31,12.07,12.07,0,0,1,8.79,1.4c-.61.36-.28,1.37.34,1.71s1.37.34,2,.66a4.31,4.31,0,0,1,1.49,1.62l5,7.83a9.13,9.13,0,0,0,2.65,3,4.49,4.49,0,0,0,6.8-4.4l-2.93-1.81c1.17-1.38,3.33-1.38,5-.77s3.21,1.69,4.94,2.18a2.89,2.89,0,0,1,1.25.55,2.6,2.6,0,0,1,.54,1.37,15.26,15.26,0,0,0,4.6,8.2,2.78,2.78,0,0,0,1.26.76c1.51.31,2.45-1.64,2.48-3.18s-.16-3.37,1.05-4.33c1.63-1.29,3.92.31,5.35,1.82l3.8,4c1.32,1.39,3.39,2.87,4.93,1.73,1.38-1,.91-3.15.36-4.78s-.85-3.85.65-4.68,4,.78,5.38-.42a2.61,2.61,0,0,0,.61-2.49c-.35-1.85-1.62-3.38-2.33-5.12s-.6-4.17,1.07-5a16.42,16.42,0,0,0,3.93,4.91L269.24,132a3.53,3.53,0,0,0,0-1.65c-.59-1.71-3.43-1.9-3.77-3.67a2.22,2.22,0,0,1,1.8-2.34,6.38,6.38,0,0,1,3.2.3,6.92,6.92,0,0,0,6.7,5.45,4.76,4.76,0,0,1,.79-6c.55-.49,1.25-.87,1.57-1.53.78-1.63-1.18-3.22-2.9-3.76-10.55-3.3-22.75,3.67-32.75-1-3-1.44-6.07-4.73-9.57-5-2.62-.16-3.79,1.56-5.8,2.84-3.25,2.08-6.09.48-9.48,1.5-1.9.57-3.27,1.89-5.33,2.24A23.86,23.86,0,0,1,206.88,119.22Z" fill="#70cc40"></path><path d="M256.62,162.92c-1.34,0-2.88-.83-4.41-2.45l-3.8-4c-1.23-1.29-3-2.52-4-1.72-.67.52-.67,1.68-.66,2.9,0,.22,0,.45,0,.66a5,5,0,0,1-1.57,3.61,2.5,2.5,0,0,1-2.11.53,3.62,3.62,0,0,1-1.74-1,16.23,16.23,0,0,1-4.9-8.74,2.16,2.16,0,0,0-.27-.85,1.89,1.89,0,0,0-.64-.25l-.17,0a16.38,16.38,0,0,1-2.93-1.26,18.88,18.88,0,0,0-2.07-1,4.85,4.85,0,0,0-2.83-.2l1.6,1a1,1,0,0,1,.46.72,5.48,5.48,0,0,1-8.31,5.37,9.84,9.84,0,0,1-3-3.35l-5-7.82a3.55,3.55,0,0,0-1.1-1.27,3.61,3.61,0,0,0-.74-.23,4.53,4.53,0,0,1-1.29-.45,2.36,2.36,0,0,1-1.17-2,1.34,1.34,0,0,1,0-.2,11,11,0,0,0-7.26-.84l-.43.1a5.87,5.87,0,0,1-2.79.21,5.94,5.94,0,0,1-1.68-.79l-.4-.24a6.79,6.79,0,0,0-7.6.73,1,1,0,0,1-.86.22,1,1,0,0,1-.69-.54c-1.36-2.8-1.08-5.2.71-6.1a4.9,4.9,0,0,1,1-.35,1.76,1.76,0,0,0,.65-.23c.09-.12-.1-.69-.21-1s-.15-.44-.21-.65a2.55,2.55,0,0,1,1-2.67,1.52,1.52,0,0,1,1.85.12,1.14,1.14,0,0,1,.11.11l6.15-1.78c1.25-.36,2.44-1.08,2.3-1.75a.55.55,0,0,0-1.08.15,1,1,0,0,1-.43.89,1,1,0,0,1-1,.09l-4.95-2.28a1,1,0,0,1-.56-.71,1,1,0,0,1,.24-.87,39.48,39.48,0,0,1,5.41-5c1.54-1.18,5.42-3.67,8.41-1.4a6.81,6.81,0,0,1,.83.76,4.52,4.52,0,0,0,.75.67,4.28,4.28,0,0,0,1.68.41h0l.16,0a22.25,22.25,0,0,0,6.35.17,9.35,9.35,0,0,0,2.75-1.11,12.91,12.91,0,0,1,2.46-1.11,13.26,13.26,0,0,1,4.33-.41c1.75,0,3.26.08,4.9-1,.5-.32,1-.68,1.4-1,1.33-1,2.7-2.12,5-2,2.54.16,4.72,1.66,6.84,3.12a23.64,23.64,0,0,0,3.1,1.92c5.05,2.39,10.69,1.63,16.67.83,5.31-.7,10.79-1.44,16,.17a5.87,5.87,0,0,1,3.53,2.82,2.72,2.72,0,0,1,0,2.33,4.41,4.41,0,0,1-1.38,1.51l-.43.34a3.76,3.76,0,0,0-.62,4.69,1,1,0,0,1,.06,1,1,1,0,0,1-.87.53,7.93,7.93,0,0,1-7.55-5.64,4.47,4.47,0,0,0-2.13-.14c-.63.15-1.15.73-1.06,1.18s.59.76,1.4,1.23a4.6,4.6,0,0,1,2.34,2.3,4.39,4.39,0,0,1,.06,2.12l-1.71,11.92a1,1,0,0,1-1.64.62,17.71,17.71,0,0,1-3.5-4.07,4,4,0,0,0,.08,3,15,15,0,0,0,.92,1.84,11.4,11.4,0,0,1,1.46,3.47,3.54,3.54,0,0,1-.94,3.44,4.17,4.17,0,0,1-3.58.53,3.34,3.34,0,0,0-2,0c-.86.47-.64,2.17-.19,3.48.37,1.06,1.48,4.3-.71,5.91A3.06,3.06,0,0,1,256.62,162.92Zm-11.48-10.44c1.44,0,3.09.9,4.72,2.61l3.8,4c.39.42,2.44,2.47,3.61,1.62.66-.49.66-1.72,0-3.66-1-2.81-.56-5,1.12-5.87a4.92,4.92,0,0,1,3.26-.24c1,.16,1.59.23,2-.07a1.73,1.73,0,0,0,.28-1.54,10.24,10.24,0,0,0-1.24-2.88,18,18,0,0,1-1-2.06c-.89-2.2-.66-5.16,1.55-6.28a1,1,0,0,1,1.34.43,15.16,15.16,0,0,0,2.33,3.3l1.43-10a2.78,2.78,0,0,0,0-1.18c-.16-.47-.78-.83-1.44-1.22a4.05,4.05,0,0,1-2.36-2.59,3.19,3.19,0,0,1,2.54-3.49,7.4,7.4,0,0,1,3.7.3,1,1,0,0,1,.73.78,5.92,5.92,0,0,0,4.13,4.43,5.8,5.8,0,0,1,1.71-5.53c.16-.14.34-.28.52-.42a2.74,2.74,0,0,0,.8-.8.7.7,0,0,0,0-.66,3.91,3.91,0,0,0-2.29-1.71c-4.73-1.48-10-.77-15.09-.09-6,.8-12.2,1.63-17.78-1a25.74,25.74,0,0,1-3.39-2.08c-1.89-1.3-3.84-2.65-5.82-2.77-1.54-.1-2.43.59-3.65,1.55a16.34,16.34,0,0,1-1.55,1.13,9.68,9.68,0,0,1-6,1.29,11.4,11.4,0,0,0-3.71.33,11.23,11.23,0,0,0-2.1,1,10.62,10.62,0,0,1-3.35,1.32,24,24,0,0,1-6.93-.15l-.16,0a6,6,0,0,1-2.48-.7,5.58,5.58,0,0,1-1.14-1,5.24,5.24,0,0,0-.61-.57c-1.94-1.48-5.07.69-6,1.39a38.65,38.65,0,0,0-4.22,3.77l2.64,1.21a2.53,2.53,0,0,1,4.66.75c.38,1.76-1,3.33-3.69,4.1L189.57,131a2,2,0,0,1-1.37-.1v0c.05.17.11.34.17.51a2.46,2.46,0,0,1-1.86,3.83,2.89,2.89,0,0,0-.6.18c-.62.31-.55,1.34-.26,2.32a8.9,8.9,0,0,1,8.78-.15l.46.27a4,4,0,0,0,1.09.55,4.12,4.12,0,0,0,1.85-.2l.47-.11a13,13,0,0,1,9.53,1.52,1,1,0,0,1,.48.86,1,1,0,0,1-.29.69.34.34,0,0,0,.12.14,3,3,0,0,0,.77.24,5.28,5.28,0,0,1,1.2.4,5.14,5.14,0,0,1,1.87,2l5,7.82a8.4,8.4,0,0,0,2.32,2.72,3.49,3.49,0,0,0,5.31-3L222.12,150a1,1,0,0,1-.46-.7,1,1,0,0,1,.22-.8c1.57-1.85,4.27-1.73,6.12-1.06a19.51,19.51,0,0,1,2.31,1.05,13.86,13.86,0,0,0,2.57,1.11l.14,0a2.71,2.71,0,0,1,2.34,2.58,14.19,14.19,0,0,0,4.31,7.72,2,2,0,0,0,.77.52.53.53,0,0,0,.47-.13,3,3,0,0,0,.82-2.09c0-.2,0-.41,0-.62,0-1.49,0-3.34,1.41-4.47A3.12,3.12,0,0,1,245.14,152.48Z" fill="#093f68"></path><path d="M277.63,177.27c-.13-1.28-1.12-2.84-2.31-2.36-.91.37-1,1.65-1.74,2.32-.95.91-2.63.45-3.69,1.23-.81.6-1,1.74-1.61,2.55-1.18,1.6-3.57,1.59-5.24,2.68a4.57,4.57,0,0,0-2,4.21,9.09,9.09,0,0,1,.21,2.07,8.72,8.72,0,0,1-1.13,2.47c-.38.83-.41,2,.38,2.46,1.13.65,2.27-.79,3.44-1.37,1.51-.75,3.37,0,5-.42a4.42,4.42,0,0,1,2-.4c1.43.31,1.37,2.41,2.25,3.58a9.82,9.82,0,0,0,1.2,1.12,4.68,4.68,0,0,1,1.5,3.23,2,2,0,0,0,2-.95c.45-.63.7-1.39,1.11-2.05.93-1.53,2.6-2.42,4-3.5a15.84,15.84,0,0,0,3.86-4.18,2.9,2.9,0,0,0,.59-2.31c-.22-.69-.87-1.13-1.34-1.68-1.19-1.36-1.23-3.34-1.41-5.14s-.75-3.83-2.4-4.57c-.82.74-.74,2-1,3.09a1.76,1.76,0,0,1-2.56,1.23C277.69,180,277.73,178.24,277.63,177.27Z" fill="#70cc40"></path><path d="M276.16,201.68a2.15,2.15,0,0,1-.56-.07,1,1,0,0,1-.76-.93,3.74,3.74,0,0,0-1.18-2.54l-.37-.32a5.44,5.44,0,0,1-1-.92,7,7,0,0,1-.87-1.84c-.28-.81-.47-1.3-.79-1.37a2,2,0,0,0-.88.19l-.61.2a8.32,8.32,0,0,1-2.57.14,4.6,4.6,0,0,0-2.25.21,6.69,6.69,0,0,0-.9.58c-.9.65-2.13,1.54-3.48.76s-1.37-2.49-.78-3.75a8.3,8.3,0,0,1,.47-.88,3.69,3.69,0,0,0,.57-1.3,3.74,3.74,0,0,0-.1-1.06c0-.26-.09-.52-.12-.77a5.59,5.59,0,0,1,2.47-5.16,10.26,10.26,0,0,1,2.44-1.06,4.92,4.92,0,0,0,2.54-1.38,5.11,5.11,0,0,0,.48-.88,4.53,4.53,0,0,1,1.34-1.87,4.65,4.65,0,0,1,2.24-.74,2.77,2.77,0,0,0,1.36-.41,2.91,2.91,0,0,0,.47-.78A3.2,3.2,0,0,1,275,174a2.16,2.16,0,0,1,2,.17,4.15,4.15,0,0,1,1.72,3h0c0,.15,0,.33,0,.51,0,.63.13,1.8.52,2a.55.55,0,0,0,.51.06,1,1,0,0,0,.56-.69,8.06,8.06,0,0,0,.18-.88,4.28,4.28,0,0,1,1.16-2.69,1,1,0,0,1,1.08-.17c1.7.76,2.71,2.57,3,5.38l.06.63c.14,1.54.27,3,1.1,4,.12.14.26.27.39.4a4.09,4.09,0,0,1,1.15,1.64,3.79,3.79,0,0,1-.7,3.13,16.72,16.72,0,0,1-4.1,4.45c-.34.26-.7.51-1.06.76a9.06,9.06,0,0,0-2.72,2.46,8.73,8.73,0,0,0-.42.8,7.89,7.89,0,0,1-.73,1.32A3.16,3.16,0,0,1,276.16,201.68Zm-5.58-10a2.35,2.35,0,0,1,.52,0c1.45.31,1.92,1.68,2.26,2.67a5,5,0,0,0,.58,1.29,3.93,3.93,0,0,0,.62.59l.46.39a5.74,5.74,0,0,1,1.65,2.79,1.34,1.34,0,0,0,.35-.36,7.13,7.13,0,0,0,.55-1,10.06,10.06,0,0,1,.51-1,10.84,10.84,0,0,1,3.28-3.06c.34-.24.68-.47,1-.72a14.66,14.66,0,0,0,3.61-3.92c.43-.67.58-1.15.48-1.47a2.41,2.41,0,0,0-.64-.8c-.17-.17-.34-.34-.5-.52-1.26-1.46-1.43-3.39-1.58-5.09l-.06-.61a5.93,5.93,0,0,0-1.1-3.22,7.55,7.55,0,0,0-.17.83,9,9,0,0,1-.22,1.08,3,3,0,0,1-1.75,2,2.5,2.5,0,0,1-2.28-.21c-1.28-.77-1.4-2.48-1.48-3.61,0-.16,0-.31,0-.45h0a2.25,2.25,0,0,0-.76-1.51c-.1-.06-.14,0-.18,0s-.36.43-.54.78a4.34,4.34,0,0,1-.89,1.34,4.22,4.22,0,0,1-2.45.94,3,3,0,0,0-1.34.37,3,3,0,0,0-.71,1.11,7.21,7.21,0,0,1-.68,1.23,6.66,6.66,0,0,1-3.52,2.08,8.54,8.54,0,0,0-2,.83A3.57,3.57,0,0,0,262,187.8c0,.21.06.41.1.62a5.3,5.3,0,0,1,.11,1.67,5.37,5.37,0,0,1-.82,2.06,7,7,0,0,0-.39.71c-.23.5-.21,1.07,0,1.17s.7-.2,1.32-.64a8.38,8.38,0,0,1,1.17-.76,6.31,6.31,0,0,1,3.25-.41,6.46,6.46,0,0,0,1.94-.07l.47-.16A4.42,4.42,0,0,1,270.58,191.68Z" fill="#093f68"></path><path d="M281.28,173.59a2,2,0,0,1-2-.72c-.26-.43-.25-1-.48-1.45-.46-.87-1.67-1.06-2.25-1.85a.42.42,0,0,1-.1-.3c0-.2.3-.26.51-.27l2-.08a5.37,5.37,0,0,1,3.18.52,4.31,4.31,0,0,1,1.34,1.53,6.82,6.82,0,0,1,1,2.36A9.19,9.19,0,0,0,281.28,173.59Z" fill="#70cc40"></path><path d="M280.92,174.61a2.78,2.78,0,0,1-2.47-1.22,3.36,3.36,0,0,1-.38-1,3.07,3.07,0,0,0-.14-.45,2.14,2.14,0,0,0-.79-.61,4.32,4.32,0,0,1-1.38-1.12,1.36,1.36,0,0,1-.28-1,1.39,1.39,0,0,1,1.45-1.11l2-.08a6.43,6.43,0,0,1,3.76.67,5.31,5.31,0,0,1,1.66,1.87,7.8,7.8,0,0,1,1.1,2.73,1,1,0,0,1-.31.88,1,1,0,0,1-.89.24,4.38,4.38,0,0,0-1.82.11c-.34.06-.67.12-1,.16h0Zm-2.17-4.68a2.88,2.88,0,0,1,.95,1,3.62,3.62,0,0,1,.31.93,1.9,1.9,0,0,0,.15.46c.12.2.55.3,1,.25h0q.45-.06.87-.15c.32-.06.66-.12,1-.16-.14-.28-.29-.56-.44-.81a3.35,3.35,0,0,0-1-1.2,4.61,4.61,0,0,0-2.6-.36Z" fill="#093f68"></path><path d="M265.26,169.58a9.53,9.53,0,0,1,1.29-2.52,1.35,1.35,0,0,0,.33-.69,1.37,1.37,0,0,0-.16-.59,4.36,4.36,0,0,1,.17-3.52c-.59-.69-1.78-.3-2.34.41s-.8,1.65-1.37,2.35a9.38,9.38,0,0,1-1.69,1.37C257.77,169.23,262.8,170.67,265.26,169.58Z" fill="#70cc40"></path><path d="M263.3,171c-1.59,0-3.2-.54-3.84-1.63-.4-.68-.75-2.06,1.43-3.72.16-.13.33-.25.5-.37a5.94,5.94,0,0,0,1-.84,5,5,0,0,0,.57-1,7.77,7.77,0,0,1,.78-1.33A3,3,0,0,1,266,160.9a2,2,0,0,1,1.63.72,1,1,0,0,1,.13,1.09,3.39,3.39,0,0,0-.13,2.7,2.3,2.3,0,0,1,.23,1,2.16,2.16,0,0,1-.5,1.21,8.8,8.8,0,0,0-1.17,2.28,1,1,0,0,1-.54.59A5.89,5.89,0,0,1,263.3,171Zm2-1.37h0Zm.29-6.49a1,1,0,0,0-.22.2,5.88,5.88,0,0,0-.55,1,7.14,7.14,0,0,1-.83,1.4,6.68,6.68,0,0,1-1.4,1.2l-.45.33c-.83.63-1,1-.92,1.11.29.5,2,.87,3.3.5a10.44,10.44,0,0,1,1.26-2.32l.12-.17,0-.09A5.53,5.53,0,0,1,265.55,163.09Z" fill="#093f68"></path><path d="M254.43,165.66a4.69,4.69,0,0,0-.41-.94,2.44,2.44,0,0,0-2.21-.59,15.94,15.94,0,0,1,2.09,3.71c.41,1,2.65,5.56,4,2.95C258.8,168.88,255,167.09,254.43,165.66Z" fill="#70cc40"></path><path d="M256.89,172.59h-.07c-2.08-.09-3.67-3.94-3.85-4.38a14.75,14.75,0,0,0-2-3.48,1,1,0,0,1-.11-1,1,1,0,0,1,.84-.58c.67,0,2.23-.16,3.08,1a3.14,3.14,0,0,1,.44.91l.09.24h0a6.22,6.22,0,0,0,1.27,1.33c1.3,1.15,3.07,2.73,2.12,4.64A2.06,2.06,0,0,1,256.89,172.59ZM255,167.81a8,8,0,0,0,1.86,2.74,2.05,2.05,0,0,0,.12-.2c.27-.54-.85-1.53-1.66-2.26Z" fill="#093f68"></path><path d="M266.73,173.35a18.59,18.59,0,0,0-5.62-.2,2,2,0,0,0-.94.28.72.72,0,0,0-.29.86,1.06,1.06,0,0,0,.64.46,19,19,0,0,0,3,.82,3.85,3.85,0,0,0,2.47-.1,1.55,1.55,0,0,0,.81-2.07" fill="#70cc40"></path><path d="M264.74,176.72a6.87,6.87,0,0,1-1.46-.17,21.08,21.08,0,0,1-3.11-.86,2.07,2.07,0,0,1-1.2-1,1.73,1.73,0,0,1,.62-2.11,2.86,2.86,0,0,1,1.4-.46,19.33,19.33,0,0,1,5.93.21,1,1,0,0,1,.73.57,2.18,2.18,0,0,1,.17,1.72,2.76,2.76,0,0,1-1.44,1.71A3.73,3.73,0,0,1,264.74,176.72Zm-3-2.63a19.6,19.6,0,0,0,2,.5,3.1,3.1,0,0,0,1.84,0,.84.84,0,0,0,.35-.35A17.55,17.55,0,0,0,261.7,174.09Z" fill="#093f68"></path><path d="M270.31,163.47a34,34,0,0,1-1.74-4.08,1.55,1.55,0,0,1-.11-.92,1,1,0,0,1,1.25-.55,2.4,2.4,0,0,1,1.16.94,5.49,5.49,0,0,1,1.23,3.62,3.3,3.3,0,0,1-2.17,3,5.44,5.44,0,0,1-.7.15" fill="#70cc40"></path><path d="M269.23,166.59a1,1,0,0,1-.16-2,5.22,5.22,0,0,0,.57-.11l.27-.11a1,1,0,0,1-.49-.46,33.74,33.74,0,0,1-1.79-4.2,2.43,2.43,0,0,1-.13-1.55A2,2,0,0,1,270,157a3.33,3.33,0,0,1,1.67,1.29,6.49,6.49,0,0,1,1.44,4.3,4.31,4.31,0,0,1-2.88,3.85,7.65,7.65,0,0,1-.83.18Zm.23-7.7.05.17a32.78,32.78,0,0,0,1.55,3.67c0-.11,0-.21.05-.32a4.57,4.57,0,0,0-1-2.95A1.78,1.78,0,0,0,269.46,158.89Z" fill="#093f68"></path><path d="M272.26,138.14a8.4,8.4,0,0,1,.09,2.06,5.83,5.83,0,0,1-1.94,3c.35.66,1.31.65,2,.36a5,5,0,0,0,2.52-2.83c.41-1.09,1.15-4.16,0-5C273.23,134.41,272.13,136.75,272.26,138.14Z" fill="#70cc40"></path><path d="M271.5,144.75a2.1,2.1,0,0,1-2-1.09,1,1,0,0,1,.17-1.16,5,5,0,0,0,1.66-2.46,5.33,5.33,0,0,0,0-1.31l-.06-.5h0a4,4,0,0,1,1.67-3.64,2.3,2.3,0,0,1,2.59.3c2.05,1.58.35,6.15.33,6.2a5.88,5.88,0,0,1-3.05,3.38A3.23,3.23,0,0,1,271.5,144.75Zm1.76-6.7c0,.15,0,.3,0,.45a6.73,6.73,0,0,1,0,1.86,4.89,4.89,0,0,1-.88,2,4.25,4.25,0,0,0,1.52-2c.57-1.5.74-3.58.32-3.9s-.37-.16-.4-.14a2.1,2.1,0,0,0-.64,1.71Z" fill="#093f68"></path><path d="M297.69,194.26c-.53-.22-.81-.79-1.14-1.26s-.9-.92-1.44-.72-.67,1-.87,1.55c-.49,1.44-2,2.22-3.32,2.94s-2.76,1.71-2.95,3.21c-.05.44.13,1,.57,1a1,1,0,0,0,.5-.18c1.8-1,4-.86,5.84-1.83a4.43,4.43,0,0,0,2.35-3.08,3.15,3.15,0,0,0-1.71-3.32" fill="#70cc40"></path><path d="M288.55,202h-.05a1.5,1.5,0,0,1-1.08-.53,2.15,2.15,0,0,1-.44-1.61c.25-2,2.1-3.23,3.47-4s2.49-1.34,2.84-2.38c0-.1.07-.21.1-.31a2.45,2.45,0,0,1,1.37-1.85,2.26,2.26,0,0,1,2.61,1.07l.21.32c.17.25.35.54.5.6a1,1,0,0,1,.17,1.75,4.51,4.51,0,0,1,0,1,5.38,5.38,0,0,1-2.86,3.82,11.73,11.73,0,0,1-3.18,1,10.49,10.49,0,0,0-2.66.82A1.94,1.94,0,0,1,288.55,202Zm6.8-8.37a.93.93,0,0,0,0,.13l-.12.4c-.61,1.78-2.34,2.7-3.72,3.45a5.16,5.16,0,0,0-2.4,2.09,13.61,13.61,0,0,1,2.69-.77,10.14,10.14,0,0,0,2.65-.82,3.42,3.42,0,0,0,1.83-2.35A2.2,2.2,0,0,0,295.35,193.63Z" fill="#093f68"></path><path d="M185.69,125.39c-.76-.79-2.22-.27-2.74.7a5.29,5.29,0,0,0-.2,3.23,3.26,3.26,0,0,1,1.82-1c.81,0,2,.37,2.22-.39a10.25,10.25,0,0,0-1-2.13" fill="#70cc40"></path><path d="M182.75,130.32a1,1,0,0,1-1-.85,6.13,6.13,0,0,1,.31-3.85,3.13,3.13,0,0,1,2.3-1.59,2.32,2.32,0,0,1,2,.68,1,1,0,0,1,.27.59,10.9,10.9,0,0,1,1.06,2.33,1,1,0,0,1,0,.65c-.46,1.28-1.8,1.15-2.52,1.08a4,4,0,0,0-.59,0,2.49,2.49,0,0,0-1.21.74A1,1,0,0,1,182.75,130.32Zm2-4.32h-.1a1.12,1.12,0,0,0-.8.54,2.41,2.41,0,0,0-.24,1,3,3,0,0,1,.92-.21,6.78,6.78,0,0,1,.88,0h.11a8.88,8.88,0,0,0-.55-1.06,1.88,1.88,0,0,1-.12-.3Z" fill="#093f68"></path><path d="M183.1,121.13c.55-2-.8-4-2.85-2.68-1.52,1-1.84,3.56.22,4.16A2.2,2.2,0,0,0,183.1,121.13Z" fill="#70cc40"></path><path d="M181,123.68a3.09,3.09,0,0,1-.8-.11,2.87,2.87,0,0,1-2.14-2.4,3.74,3.74,0,0,1,1.66-3.56,2.81,2.81,0,0,1,3.29-.1,3.61,3.61,0,0,1,1.06,3.88h0a3.09,3.09,0,0,1-1.49,1.87A3.2,3.2,0,0,1,181,123.68Zm.52-4.65a1.42,1.42,0,0,0-.72.27,1.7,1.7,0,0,0-.76,1.59.9.9,0,0,0,.72.76,1.2,1.2,0,0,0,1.38-.78,1.72,1.72,0,0,0-.32-1.75A.46.46,0,0,0,181.51,119Zm1.59,2.1h0Z" fill="#093f68"></path><circle cx="97.11" cy="86.13" r="2.82" fill="#f56132"></circle><path d="M97.11,90a3.83,3.83,0,1,1,3.82-3.83A3.84,3.84,0,0,1,97.11,90Zm0-5.65a1.83,1.83,0,1,0,1.82,1.82A1.83,1.83,0,0,0,97.11,84.31Z" fill="#093f68"></path><circle cx="106.88" cy="86.13" r="2.82" fill="#ffbc0e"></circle><path d="M106.88,90a3.83,3.83,0,1,1,3.83-3.83A3.83,3.83,0,0,1,106.88,90Zm0-5.65a1.83,1.83,0,1,0,1.83,1.82A1.83,1.83,0,0,0,106.88,84.31Z" fill="#093f68"></path><circle cx="116.66" cy="86.13" r="2.82" fill="#70cc40"></circle><path d="M116.66,90a3.83,3.83,0,1,1,3.82-3.83A3.83,3.83,0,0,1,116.66,90Zm0-5.65a1.83,1.83,0,1,0,1.82,1.82A1.82,1.82,0,0,0,116.66,84.31Z" fill="#093f68"></path><path d="M123.46,115.26a1,1,0,0,1-1-.77l-.34-1.46a1,1,0,0,1,1.95-.46l.34,1.46a1,1,0,0,1-.75,1.2A.91.91,0,0,1,123.46,115.26Z" fill="#fff"></path><path d="M139.53,184.12a1,1,0,0,1-1-.77l-.69-2.95a1,1,0,0,1,1.95-.46l.69,2.95a1,1,0,0,1-.75,1.2A.91.91,0,0,1,139.53,184.12Zm-2.29-9.84a1,1,0,0,1-1-.77l-.68-2.95a1,1,0,0,1,1.94-.46l.69,3a1,1,0,0,1-.74,1.2Zm-2.3-9.83a1,1,0,0,1-1-.78l-.69-2.95a1,1,0,0,1,1.95-.45l.69,2.95a1,1,0,0,1-.75,1.2A.91.91,0,0,1,134.94,164.45Zm-2.29-9.84a1,1,0,0,1-1-.77l-.69-3a1,1,0,1,1,2-.45l.69,2.95a1,1,0,0,1-.75,1.2A.83.83,0,0,1,132.65,154.61Zm-2.3-9.84a1,1,0,0,1-1-.77l-.69-2.95a1,1,0,0,1,.74-1.2,1,1,0,0,1,1.21.74l.68,2.95a1,1,0,0,1-.74,1.2Zm-2.3-9.84a1,1,0,0,1-1-.77l-.69-2.95a1,1,0,1,1,2-.45l.69,3a1,1,0,0,1-.75,1.2A.86.86,0,0,1,128.05,134.93Zm-2.29-9.83a1,1,0,0,1-1-.78l-.69-2.95a1,1,0,1,1,1.94-.45l.69,3a1,1,0,0,1-.74,1.2Z" fill="#fff"></path><path d="M141.48,192.47a1.07,1.07,0,0,1-.25,0,1,1,0,0,1-.72-.75l-.34-1.46a1,1,0,0,1,1.82-.75,1,1,0,0,1,1.16.13,1,1,0,0,1,.08,1.41l-1,1.12A1,1,0,0,1,141.48,192.47Z" fill="#fff"></path><path d="M146.82,186.53a1,1,0,0,1-.74-1.66l1.86-2.07a1,1,0,0,1,1.48,1.34l-1.86,2.06A1,1,0,0,1,146.82,186.53Zm6.19-6.88a1,1,0,0,1-.74-1.67l1.86-2.06a1,1,0,0,1,1.41-.08,1,1,0,0,1,.08,1.42l-1.86,2.06A1,1,0,0,1,153,179.65Zm6.2-6.88a1,1,0,0,1-.75-1.67l1.86-2.06a1,1,0,0,1,1.42-.08,1,1,0,0,1,.07,1.41L160,172.44A1,1,0,0,1,159.21,172.77Zm6.19-6.88a1,1,0,0,1-.67-.26,1,1,0,0,1-.07-1.41l1.86-2.07a1,1,0,0,1,1.48,1.34l-1.85,2.07A1,1,0,0,1,165.4,165.89Zm6.2-6.89a1,1,0,0,1-.75-1.66l1.86-2.07a1,1,0,0,1,1.49,1.34l-1.86,2.06A1,1,0,0,1,171.6,159Z" fill="#fff"></path><path d="M179.39,152.38a1,1,0,0,1-.89-.55,1,1,0,0,1-1.45-1.38l1-1.11a1,1,0,0,1,.9-.32,1,1,0,0,1,.76.59l.6,1.38a1,1,0,0,1-.52,1.31A1,1,0,0,1,179.39,152.38Z" fill="#fff"></path><path d="M193.67,185.33a1,1,0,0,1-.92-.61l-1.07-2.47a1,1,0,0,1,1.83-.79l1.07,2.47a1,1,0,0,1-.52,1.31A.89.89,0,0,1,193.67,185.33Zm-3.57-8.24a1,1,0,0,1-.92-.6L188.11,174a1,1,0,0,1,.52-1.32,1,1,0,0,1,1.31.52l1.08,2.47a1,1,0,0,1-.52,1.32A1.14,1.14,0,0,1,190.1,177.09Zm-3.57-8.24a1,1,0,0,1-.92-.6l-1.07-2.47a1,1,0,0,1,.52-1.31,1,1,0,0,1,1.32.52l1.07,2.47a1,1,0,0,1-.52,1.31A1,1,0,0,1,186.53,168.85ZM183,160.62a1,1,0,0,1-.92-.6L181,157.55a1,1,0,0,1,1.84-.8l1.07,2.47a1,1,0,0,1-.52,1.32A1.14,1.14,0,0,1,183,160.62Z" fill="#fff"></path><path d="M196.76,192.47a1,1,0,0,1-.92-.61l-.59-1.37a1,1,0,1,1,1.83-.8l.31.72.78-.07a1,1,0,0,1,1.08.91,1,1,0,0,1-.91,1.09l-1.49.12Z" fill="#fff"></path><path d="M205.35,191.73a1,1,0,0,1-1-.91,1,1,0,0,1,.91-1.09l3-.26a1,1,0,0,1,1.08.91,1,1,0,0,1-.91,1.09l-3,.26Zm10.14-.87a1,1,0,0,1-1-.91,1,1,0,0,1,.91-1.09l3-.26a1,1,0,0,1,.17,2l-3,.26Zm10.14-.87a1,1,0,0,1-.08-2l3-.27a1,1,0,0,1,.17,2l-3,.26Zm10.14-.87a1,1,0,0,1-.08-2l3-.26a1,1,0,1,1,.17,2l-3,.26Zm10.14-.87a1,1,0,0,1-.09-2l3.05-.26a1,1,0,0,1,.17,2l-3,.26Zm10.14-.86a1,1,0,0,1-.09-2l3-.26a1,1,0,0,1,1.08.91,1,1,0,0,1-.91,1.08l-3.05.26Zm10.14-.87a1,1,0,0,1-.09-2l3-.26a1,1,0,0,1,.17,2l-3.05.26Zm10.14-.87a1,1,0,0,1-1-.92,1,1,0,0,1,.91-1.08l3-.26a1,1,0,1,1,.18,2l-3,.26Z" fill="#fff"></path><path d="M286.47,184.78a1,1,0,0,1-.12-2,1,1,0,0,1,1.77-.93l.72,1.32a1,1,0,0,1-.79,1.48l-1.5.12Z" fill="#fff"></path><path d="M284.09,177.55a1,1,0,0,1-.88-.52l-1.35-2.47a1,1,0,1,1,1.75-1l1.35,2.47a1,1,0,0,1-.39,1.36A1.07,1.07,0,0,1,284.09,177.55Zm-4.51-8.25a1,1,0,0,1-.88-.52l-1.35-2.48a1,1,0,1,1,1.75-1l1.36,2.48a1,1,0,0,1-.4,1.35A.94.94,0,0,1,279.58,169.3ZM275.07,161a1,1,0,0,1-.88-.52L272.84,158a1,1,0,0,1,1.75-1l1.36,2.48a1,1,0,0,1-.4,1.36A1,1,0,0,1,275.07,161Zm-4.51-8.26a1,1,0,0,1-.88-.52l-1.35-2.47a1,1,0,0,1,.4-1.36,1,1,0,0,1,1.36.4l1.35,2.48a1,1,0,0,1-.4,1.35A.93.93,0,0,1,270.56,152.78Zm-4.51-8.25a1,1,0,0,1-.87-.52l-1.36-2.48a1,1,0,1,1,1.76-1l1.35,2.48a1,1,0,0,1-.88,1.48Zm-4.5-8.26a1,1,0,0,1-.88-.52l-1.36-2.48a1,1,0,0,1,1.76-1l1.35,2.47a1,1,0,0,1-.87,1.48ZM257,128a1,1,0,0,1-.88-.52L254.81,125a1,1,0,1,1,1.75-1l1.35,2.48a1,1,0,0,1-.39,1.35A1,1,0,0,1,257,128Z" fill="#fff"></path><path d="M252.53,119.76a1,1,0,0,1-.88-.52l-.27-.49-.5.24a1,1,0,1,1-.85-1.81l1.35-.64a1,1,0,0,1,1.31.42l.72,1.32a1,1,0,0,1-.4,1.36A1.07,1.07,0,0,1,252.53,119.76Z" fill="#fff"></path><path d="M189.44,147.87A1,1,0,0,1,189,146l2.61-1.24a1,1,0,0,1,.85,1.81l-2.61,1.24A1.07,1.07,0,0,1,189.44,147.87Zm8.72-4.11a1,1,0,0,1-.91-.57,1,1,0,0,1,.48-1.34l2.62-1.23a1,1,0,1,1,.85,1.81l-2.62,1.23A.9.9,0,0,1,198.16,143.76Zm8.71-4.11a1,1,0,0,1-.42-1.91l2.61-1.23a1,1,0,0,1,.86,1.81l-2.62,1.23A.94.94,0,0,1,206.87,139.65Zm8.72-4.12a1,1,0,0,1-.43-1.9l2.62-1.23a1,1,0,1,1,.85,1.8L216,135.44A1.11,1.11,0,0,1,215.59,135.53Zm8.72-4.11a1,1,0,0,1-.43-1.9l2.61-1.24a1,1,0,0,1,1.33.48,1,1,0,0,1-.47,1.33l-2.62,1.24A1.06,1.06,0,0,1,224.31,131.42Zm8.71-4.11a1,1,0,0,1-.43-1.91l2.62-1.23a1,1,0,1,1,.85,1.81l-2.61,1.23A1,1,0,0,1,233,127.31Zm8.72-4.12a1,1,0,0,1-.43-1.9l2.61-1.23a1,1,0,0,1,1.34.47,1,1,0,0,1-.48,1.34l-2.62,1.23A1,1,0,0,1,241.74,123.19Z" fill="#fff"></path><path d="M182,151.39a1,1,0,0,1-.43-1.9l1.36-.64a1,1,0,0,1,1.33.47,1,1,0,0,1-.48,1.34l-1.36.64A1.06,1.06,0,0,1,182,151.39Z" fill="#fff"></path><path d="M177.14,153.39a1,1,0,0,1-1-.93l-.21-3a1,1,0,0,1,2-.14l.21,3a1,1,0,0,1-.93,1.07Zm-.71-10a1,1,0,0,1-1-.93l-.22-3a1,1,0,0,1,2-.14l.21,3a1,1,0,0,1-.93,1.07Zm-.71-10a1,1,0,0,1-1-.93l-.22-3a1,1,0,0,1,.93-1.06,1,1,0,0,1,1.07.92l.21,3a1,1,0,0,1-.93,1.07Zm-.71-10a1,1,0,0,1-1-.93l-.22-3a1,1,0,1,1,2-.14l.21,3a1,1,0,0,1-.92,1.07Zm-.7-10a1,1,0,0,1-1-.93l-.14-2a1,1,0,0,1,.93-1.06,1,1,0,0,1,1.07.92l.13,2a1,1,0,0,1-.92,1.06Z" fill="#fff"></path><circle cx="141.48" cy="191.47" r="7.82" fill="#fff"></circle><path d="M141.48,200.28a8.82,8.82,0,1,1,8.82-8.81A8.83,8.83,0,0,1,141.48,200.28Zm0-15.63a6.82,6.82,0,1,0,6.82,6.82A6.83,6.83,0,0,0,141.48,184.65Z" fill="#093f68"></path><circle cx="251.81" cy="117.44" r="7.82" fill="#fff"></circle><path d="M251.81,126.26a8.82,8.82,0,1,1,8.82-8.82A8.83,8.83,0,0,1,251.81,126.26Zm0-15.64a6.82,6.82,0,1,0,6.82,6.82A6.83,6.83,0,0,0,251.81,110.62Z" fill="#093f68"></path><circle cx="196.76" cy="191.47" r="7.82" fill="#ffbc0e"></circle><path d="M196.76,200.28a8.82,8.82,0,1,1,8.82-8.81A8.83,8.83,0,0,1,196.76,200.28Zm0-15.63a6.82,6.82,0,1,0,6.82,6.82A6.83,6.83,0,0,0,196.76,184.65Z" fill="#093f68"></path><circle cx="178.66" cy="152.39" r="7.82" fill="#f56132"></circle><path d="M178.66,161.2a8.82,8.82,0,1,1,8.82-8.81A8.83,8.83,0,0,1,178.66,161.2Zm0-15.63a6.82,6.82,0,1,0,6.82,6.82A6.83,6.83,0,0,0,178.66,145.57Z" fill="#093f68"></path><circle cx="287.96" cy="183.65" r="7.82" fill="#f56132"></circle><path d="M288,192.47a8.82,8.82,0,1,1,8.82-8.82A8.83,8.83,0,0,1,288,192.47Zm0-15.64a6.82,6.82,0,1,0,6.82,6.82A6.83,6.83,0,0,0,288,176.83Z" fill="#093f68"></path><path d="M131.38,115a1,1,0,0,1-.1-2l3-.29a1,1,0,0,1,1.1.89,1,1,0,0,1-.9,1.1l-3,.29Zm10-1a1,1,0,0,1-.1-2l3-.3a1,1,0,1,1,.19,2l-3,.3Zm9.95-1a1,1,0,0,1-.1-2l3-.29a1,1,0,0,1,1.09.89,1,1,0,0,1-.9,1.1l-3,.29Zm9.95-1a1,1,0,0,1-.1-2l3-.3a1,1,0,0,1,.2,2l-3,.3Zm10-1a1,1,0,0,1-.1-2l3-.3a1,1,0,0,1,.2,2l-3,.3Z" fill="#fff"></path><circle cx="124.71" cy="114.64" r="7.82" fill="#f56132"></circle><path d="M124.71,123.46a8.82,8.82,0,1,1,8.82-8.82A8.83,8.83,0,0,1,124.71,123.46Zm0-15.64a6.82,6.82,0,1,0,6.82,6.82A6.83,6.83,0,0,0,124.71,107.82Z" fill="#093f68"></path><circle cx="174.17" cy="110.54" r="7.82" fill="#ffbc0e"></circle><path d="M174.17,119.36a8.82,8.82,0,1,1,8.81-8.82A8.83,8.83,0,0,1,174.17,119.36Zm0-15.63a6.82,6.82,0,1,0,6.81,6.81A6.83,6.83,0,0,0,174.17,103.73Z" fill="#093f68"></path></g></svg>